<svg id="Layer_1" data-name="Layer 1" xmlns="http://www.w3.org/2000/svg" width="292.15mm" height="292.61mm" viewBox="0 0 828.14 829.44">
  <defs>
    <style>
      .cls-1 {
        fill: #010101;
      }

      .cls-2 {
        fill: #4064af;
      }

      .cls-3 {
        fill: #ce8d2a;
      }

      .cls-4 {
        fill: #e5eef7;
      }

      .cls-5 {
        fill: #73441b;
      }

      .cls-6 {
        fill: #f7cf19;
      }
    </style>
  </defs>
  <title>question_mark</title>
  <g>
    <path class="cls-1" d="M.81,725.31v-621h51.8q0,67.55,0,135.1c0,6.72.08,13.44.13,20.15q0,25.88,0,51.75v51.74c0,1.21-.13,2.42-.13,3.63q0,151.78,0,303.55c0,1.08.06,2.15.09,3.23l-.11,51.91Z" transform="translate(-0.74 0.57)"/>
    <path class="cls-1" d="M104.31.81h621q0,25.87.07,51.73l-51.91.11c-1.08,0-2.15-.09-3.23-.09H263.19c-1.21,0-2.42.08-3.63.13L104.3,52.61Z" transform="translate(-0.74 0.57)"/>
    <path class="cls-1" d="M725.31,828.81h-621q0-25.87-.07-51.73H725.38Q725.34,802.94,725.31,828.81Z" transform="translate(-0.74 0.57)"/>
    <path class="cls-1" d="M828.81,104.31v621l-51.73.07q0-310.57,0-621.14Z" transform="translate(-0.74 0.57)"/>
    <path class="cls-2" d="M104.31-.5q0,25.9,0,51.81l.07-.06c-16.11,0-32.22.08-48.33-.06-2.83,0-3.58.73-3.56,3.56.14,16.11.06,32.22.06,48.33l.06-.07H.81Q.81,52.67.74,2.33c0-2.41.49-2.91,2.9-2.9Q54-.42,104.31-.5Z" transform="translate(-0.74 0.57)"/>
    <path class="cls-2" d="M828.81,104.31l-51.73-.07,0,.06c0-16-.13-32,0-48,0-3-.75-3.8-3.77-3.77-16,.14-32,0-48,0l.06,0L725.31.81Q775.64.81,826,.74c2.41,0,2.91.49,2.9,2.9Q828.73,54,828.81,104.31Z" transform="translate(-0.74 0.57)"/>
    <path class="cls-2" d="M104.24,775.77l.07,51.73q-50.33,0-100.67.07c-2.41,0-2.91-.49-2.9-2.9Q.89,774.34.81,724l51.73.07,0-.06c0,16,.13,32,0,48,0,3,.75,3.8,3.77,3.77,16-.14,32,0,48,0Z" transform="translate(-0.74 0.57)"/>
    <path class="cls-2" d="M777.08,725.38l51.73-.07q0,50.33.07,100.67c0,2.41-.49,2.91-2.9,2.9q-50.33-.15-100.67-.07,0-25.87.07-51.73l-.06,0c16,0,32-.13,48,0,3,0,3.8-.75,3.77-3.77-.14-16,0-32,0-48Z" transform="translate(-0.74 0.57)"/>
    <path class="cls-3" d="M259.56,52.69c1.21,0,2.42-.13,3.63-.13H670.24c1.08,0,2.15.06,3.23.09,0,15.75.17,31.5,0,47.25,0,3.54.87,4.54,4.46,4.5,15.75-.17,31.5,0,47.25,0,0,.81.12,1.61.12,2.42q0,281.32.08,562.64c0,3.53-1.18,4.18-4.39,4.15-14.55-.16-29.1,0-43.65-.14-3,0-3.89.83-3.86,3.86.15,14.15.09,28.29.06,42.44,0,6.25.71,5.51-5.68,5.51q-279.3,0-558.6,0c-1.61,0-3.23-.08-4.84-.12,0-15.89-.17-31.77,0-47.65,0-3.22-.92-4.07-4.08-4-15.88.12-31.77,0-47.66,0,0-1.08-.09-2.15-.09-3.23q0-151.78,0-303.55c0-1.21.08-2.42.13-3.63l51.53,0c0,1.89.08,3.77.08,5.66q0,124.07-.1,248.14c0,4.19,1.16,5.15,5.18,5.08,14.28-.25,28.56,0,42.84-.16,3,0,3.93.83,3.9,3.87-.14,14.55,0,29.1-.13,43.65,0,3.26.75,4.38,4.22,4.37q75.57-.18,151.15-.1H466.51q75.57,0,151.15.1c3.47,0,4.25-1.12,4.22-4.38-.16-14.55,0-29.1-.13-43.65,0-3,.91-3.89,3.91-3.86,14.55.14,29.1,0,43.65.13,3.31,0,4.34-.84,4.33-4.26q-.15-127.31-.1-254.61V207.86c0-15.85-.07-31.7.1-47.55,0-3.31-.86-4.35-4.26-4.32-15.85.17-31.7.07-47.55.07,0-15.85-.1-31.7.07-47.55,0-3.39-1-4.29-4.32-4.26-15.85.17-31.7.09-47.55.1l-305.21,0c-1.75,0-3.5-.08-5.25-.13Q259.56,78.43,259.56,52.69Z" transform="translate(-0.74 0.57)"/>
    <path class="cls-4" d="M259.56,52.69q0,25.74,0,51.48c-1.6,0-3.2.12-4.81.13l-46.94.14c-16.41,0-32.81,0-49.22-.19-2.78,0-2.54,1.5-2.55,3.31q0,24.21-.06,48.42-24.21,0-48.42.07c-1.8,0-3.34-.25-3.32,2.54.16,16.41.14,32.81.19,49.22,0,1.6-.12,3.2-.13,4.81q-.08,23.47-.14,46.94H52.69c0-6.72-.13-13.44-.13-20.15q0-67.55,0-135.1l-.06.07c16,0,32.07-.13,48.11,0,3,0,3.76-.71,3.73-3.73-.15-16,0-32.07,0-48.11l-.07.06Z" transform="translate(-0.74 0.57)"/>
    <path class="cls-3" d="M52.69,259.56h51.48q.09,25.82.18,51.65v.35l-51.68-.24Q52.69,285.43,52.69,259.56Z" transform="translate(-0.74 0.57)"/>
    <path class="cls-4" d="M52.69,311.31l51.68.24q-.07,25.74-.14,51.48l-51.53,0Q52.69,337.18,52.69,311.31Z" transform="translate(-0.74 0.57)"/>
    <path class="cls-5" d="M52.65,673.47c15.89,0,31.77.14,47.66,0,3.16,0,4.1.83,4.08,4-.12,15.88,0,31.77,0,47.65l-.26.26-51.68-.13,0,.06Q52.59,699.42,52.65,673.47Z" transform="translate(-0.74 0.57)"/>
    <path class="cls-5" d="M725.19,104.42c-15.75,0-31.5-.2-47.25,0-3.6,0-4.5-1-4.46-4.5.17-15.75,0-31.5,0-47.25l51.91-.11-.06,0q.06,25.84.13,51.68Z" transform="translate(-0.74 0.57)"/>
    <path class="cls-5" d="M104.42,725.19c1.61,0,3.23.12,4.84.12q279.3,0,558.6,0c6.39,0,5.67.74,5.68-5.51,0-14.15.09-28.29-.06-42.44,0-3,.83-3.89,3.86-3.86,14.55.15,29.1,0,43.65.14,3.2,0,4.39-.61,4.39-4.15q-.13-281.32-.08-562.64c0-.81-.08-1.61-.12-2.42l.26-.26,51.68.13,0-.06q0,310.57,0,621.14l0-.06c-16,0-32,.06-48-.07-3,0-3.9.86-3.87,3.87.14,16,.07,32,.07,48l.06,0H104.24l.06,0q-.07-25.84-.13-51.68Z" transform="translate(-0.74 0.57)"/>
    <path class="cls-1" d="M104.37,52.55c0,16-.13,32.07,0,48.11,0,3-.71,3.76-3.73,3.73-16-.15-32.07,0-48.11,0,0-16.11.08-32.22-.06-48.33,0-2.83.73-3.58,3.56-3.56C72.15,52.63,88.26,52.55,104.37,52.55Z" transform="translate(-0.74 0.57)"/>
    <path class="cls-1" d="M777.12,104.3l-51.68-.13q-.06-25.84-.13-51.68c16,0,32,.13,48,0,3,0,3.8.75,3.77,3.77C777,72.27,777.1,88.28,777.12,104.3Z" transform="translate(-0.74 0.57)"/>
    <path class="cls-1" d="M104.17,725.45q.06,25.84.13,51.68c-16,0-32-.13-48,0-3,0-3.8-.75-3.77-3.77.14-16,0-32,0-48Z" transform="translate(-0.74 0.57)"/>
    <path class="cls-1" d="M725.32,777.12c0-16,.07-32-.07-48,0-3,.86-3.9,3.87-3.87,16,.14,32,.07,48,.07,0,16-.13,32,0,48,0,3-.75,3.8-3.77,3.77C757.35,777,741.33,777.1,725.32,777.12Z" transform="translate(-0.74 0.57)"/>
    <path class="cls-6" d="M104.23,363q.07-25.74.14-51.48v-.34l51.73.08c0,15.89.09,31.79-.12,47.68,0,3.36.77,4.2,4.15,4.18,31.79-.14,63.57,0,95.36-.17,3.36,0,4.18.8,4.16,4.16-.14,31.92,0,63.84-.16,95.76,0,3.06.78,3.76,3.77,3.73,16-.17,32.06-.09,48.08-.1q0,25.9,0,51.81c-16.16,0-32.33,0-48.49-.09-2.61,0-3.36.65-3.35,3.32q.14,48.49,0,97c0,2.67.73,3.34,3.35,3.32,16.16-.13,32.33-.08,48.49-.09q0,25.87,0,51.75-75.57,0-151.15.1c-3.46,0-4.25-1.11-4.22-4.37.16-14.55,0-29.1.13-43.65,0-3-.9-3.9-3.9-3.87-14.28.14-28.56-.09-42.84.16-4,.07-5.19-.89-5.18-5.08q.2-124.07.1-248.14C104.31,366.8,104.25,364.91,104.23,363Z" transform="translate(-0.74 0.57)"/>
    <path class="cls-6" d="M673.53,363q0,127.31.1,254.61c0,3.41-1,4.3-4.33,4.26-14.55-.17-29.1,0-43.65-.13-3,0-3.94.82-3.91,3.86.15,14.55,0,29.1.13,43.65,0,3.26-.75,4.38-4.22,4.38q-75.57-.18-151.15-.1,0-25.87,0-51.75c16.16,0,32.33,0,48.49.09,2.61,0,3.36-.65,3.35-3.32q-.14-48.49,0-97c0-2.67-.73-3.34-3.35-3.32-16.16.13-32.33.08-48.49.09q0-25.9,0-51.81,50.13,0,100.25.09c2.63,0,3.36-.68,3.34-3.33-.13-16.17-.08-32.34-.09-48.51,16.17,0,32.34,0,48.51.09,2.64,0,3.36-.69,3.33-3.33-.13-16.17-.08-32.34-.09-48.51Z" transform="translate(-0.74 0.57)"/>
    <path class="cls-1" d="M207.81,104.44l46.94-.14c1.6,0,3.2-.08,4.81-.13s3.5.13,5.25.13l305.21,0q0,25.88.08,51.75H207.78Q207.79,130.27,207.81,104.44Z" transform="translate(-0.74 0.57)"/>
    <path class="cls-1" d="M673.53,363l-51.75,0,.05.06q0-77.65-.06-155.3l51.75.08Z" transform="translate(-0.74 0.57)"/>
    <path class="cls-1" d="M466.53,621.78q0,25.88,0,51.75H311.36q0-25.88,0-51.75l-.06.05h155.3Z" transform="translate(-0.74 0.57)"/>
    <path class="cls-6" d="M570.09,156.09q0-25.88-.08-51.75c15.85,0,31.7.07,47.55-.1,3.31,0,4.35.86,4.32,4.26-.17,15.85-.07,31.7-.07,47.55l0,0L570,156Z" transform="translate(-0.74 0.57)"/>
    <path class="cls-6" d="M673.53,207.86l-51.75-.08.06.09q0-25.9,0-51.79l0,0c15.85,0,31.7.1,47.55-.07,3.39,0,4.29,1,4.26,4.32C673.46,176.15,673.54,192,673.53,207.86Z" transform="translate(-0.74 0.57)"/>
    <path class="cls-1" d="M156.09,311.28l-51.73-.08q-.09-25.82-.18-51.65.07-23.47.14-46.94c0-1.6.08-3.2.13-4.81l51.65,0q0,51.78-.06,103.55Z" transform="translate(-0.74 0.57)"/>
    <path class="cls-6" d="M207.81,104.44q0,25.82,0,51.65l.09-.06-51.74.09L156,156q0-24.21.06-48.42c0-1.81-.24-3.34,2.55-3.31C175,104.41,191.4,104.4,207.81,104.44Z" transform="translate(-0.74 0.57)"/>
    <path class="cls-6" d="M156.09,207.78l-51.65,0c0-16.41,0-32.82-.19-49.22,0-2.79,1.51-2.54,3.32-2.54q24.21,0,48.42-.07l.14.14L156,207.87Z" transform="translate(-0.74 0.57)"/>
    <path class="cls-1" d="M311.34,466.53c-16,0-32.06-.06-48.08.1-3,0-3.78-.67-3.77-3.73.12-31.92,0-63.84.16-95.76,0-3.36-.8-4.18-4.16-4.16-31.79.14-63.57,0-95.36.17-3.37,0-4.19-.83-4.15-4.18.21-15.89.11-31.79.12-47.68l-.05.06q75.8,0,151.6,0c3,0,3.8-.61,3.76-3.69-.19-14.82,0-29.65-.16-44.47,0-3,.68-3.74,3.72-3.74q74,.16,148,0c3,0,3.74.7,3.73,3.72q-.19,47.9,0,95.81c0,3.39-.82,4.13-4.16,4.12-49.05-.12-98.1,0-147.15-.17-3.4,0-4.13.85-4.11,4.16.13,33.15.07,66.3.06,99.45Z" transform="translate(-0.74 0.57)"/>
    <path class="cls-1" d="M466.53,466.53q0,25.9,0,51.81l.06-.05H311.28l.06.05q0-25.9,0-51.81l-.05.06h155.3Z" transform="translate(-0.74 0.57)"/>
    <path class="cls-1" d="M311.34,621.78c-16.16,0-32.33,0-48.49.09-2.61,0-3.36-.65-3.35-3.32q.14-48.49,0-97c0-2.67.73-3.34,3.35-3.32,16.16.13,32.33.08,48.49.09l-.06-.05V621.83Z" transform="translate(-0.74 0.57)"/>
    <path class="cls-1" d="M570,414.78c0,16.17,0,32.34.09,48.51,0,2.65-.7,3.34-3.34,3.33q-50.13-.15-100.25-.09l.06.05c0-16.13.07-32.27-.1-48.4,0-2.93.85-3.45,3.58-3.44q50,.16,100,.09Z" transform="translate(-0.74 0.57)"/>
    <path class="cls-1" d="M466.53,518.34c16.16,0,32.33,0,48.49-.09,2.61,0,3.36.65,3.35,3.32q-.14,48.49,0,97c0,2.67-.73,3.34-3.35,3.32-16.16-.13-32.33-.08-48.49-.09l.06.05V518.28Z" transform="translate(-0.74 0.57)"/>
    <path class="cls-1" d="M621.78,363c0,16.17,0,32.34.09,48.51,0,2.64-.69,3.36-3.33,3.33-16.17-.13-32.34-.08-48.51-.09l.06.05c0-16.25,0-32.5-.09-48.74,0-2.49.6-3.12,3.1-3.1,16.25.13,32.49.08,48.74.09Z" transform="translate(-0.74 0.57)"/>
    <path class="cls-4" d="M621.83,363.08c-16.25,0-32.5,0-48.74-.09-2.49,0-3.12.6-3.1,3.1.13,16.25.08,32.49.09,48.74q-50,0-100-.09c-2.73,0-3.61.52-3.58,3.44.17,16.13.09,32.26.1,48.4H311.28c0-33.15.07-66.3-.06-99.45,0-3.32.71-4.17,4.11-4.16,49.05.13,98.1,0,147.15.17,3.34,0,4.17-.74,4.16-4.12q-.22-47.9,0-95.81c0-3-.71-3.73-3.73-3.72q-74,.16-148,0c-3,0-3.75.73-3.72,3.74.17,14.82,0,29.65.16,44.47,0,3.08-.8,3.7-3.76,3.69q-75.8-.14-151.6,0,0-51.78.06-103.55l-.05.09c16.11,0,32.23-.12,48.34,0,2.83,0,3.53-.68,3.51-3.51-.13-16.11,0-32.23,0-48.34l-.09.06H570.09L570,156c0,16.11.12,32.23,0,48.34,0,2.83.68,3.53,3.51,3.51,16.11-.13,32.23,0,48.34,0l-.06-.09Q621.81,285.43,621.83,363.08Z" transform="translate(-0.74 0.57)"/>
    <path class="cls-4" d="M466.58,518.28V621.83H311.28V518.28Z" transform="translate(-0.74 0.57)"/>
    <path class="cls-1" d="M621.83,207.87c-16.11,0-32.23-.12-48.34,0-2.83,0-3.53-.68-3.51-3.51.13-16.11,0-32.23,0-48.34l51.79,0Q621.81,182,621.83,207.87Z" transform="translate(-0.74 0.57)"/>
    <path class="cls-1" d="M207.87,156c0,16.11-.12,32.23,0,48.34,0,2.83-.68,3.53-3.51,3.51-16.11-.13-32.23,0-48.34,0l.09-51.74Z" transform="translate(-0.74 0.57)"/>
  </g>
</svg>
