  0
SECTION
  2
HEADER
  9
$ACADVER
  1
AC1024
  9
$ACADMAINTVER
 70
     6
  9
$DWGCODEPAGE
  3
ANSI_1252
  9
$INSBASE
 10
0.0
 20
0.0
 30
0.0
  9
$EXTMIN
 10
1.000000000000000E+20
 20
1.000000000000000E+20
 30
1.000000000000000E+20
  9
$EXTMAX
 10
-1.000000000000000E+20
 20
-1.000000000000000E+20
 30
-1.000000000000000E+20
  9
$LIMMIN
 10
0.0
 20
0.0
  9
$LIMMAX
 10
12.0
 20
9.0
  9
$ORTHOMODE
 70
     0
  9
$REGENMODE
 70
     1
  9
$FILLMODE
 70
     1
  9
$QTEXTMODE
 70
     0
  9
$MIRRTEXT
 70
     1
  9
$LTSCALE
 40
1.0
  9
$ATTMODE
 70
     1
  9
$TEXTSIZE
 40
0.2
  9
$TRACEWID
 40
0.05
  9
$TEXTSTYLE
  7
Standard
  9
$CLAYER
  8
0
  9
$CELTYPE
  6
ByLayer
  9
$CECOLOR
 62
   256
  9
$CELTSCALE
 40
1.0
  9
$DISPSILH
 70
     0
  9
$DIMSCALE
 40
1.0
  9
$DIMASZ
 40
0.18
  9
$DIMEXO
 40
0.0625
  9
$DIMDLI
 40
0.38
  9
$DIMRND
 40
0.0
  9
$DIMDLE
 40
0.0
  9
$DIMEXE
 40
0.18
  9
$DIMTP
 40
0.0
  9
$DIMTM
 40
0.0
  9
$DIMTXT
 40
0.18
  9
$DIMCEN
 40
0.09
  9
$DIMTSZ
 40
0.0
  9
$DIMTOL
 70
     0
  9
$DIMLIM
 70
     0
  9
$DIMTIH
 70
     1
  9
$DIMTOH
 70
     1
  9
$DIMSE1
 70
     0
  9
$DIMSE2
 70
     0
  9
$DIMTAD
 70
     0
  9
$DIMZIN
 70
     0
  9
$DIMBLK
  1

  9
$DIMASO
 70
     1
  9
$DIMSHO
 70
     1
  9
$DIMPOST
  1

  9
$DIMAPOST
  1

  9
$DIMALT
 70
     0
  9
$DIMALTD
 70
     2
  9
$DIMALTF
 40
25.4
  9
$DIMLFAC
 40
1.0
  9
$DIMTOFL
 70
     0
  9
$DIMTVP
 40
0.0
  9
$DIMTIX
 70
     0
  9
$DIMSOXD
 70
     0
  9
$DIMSAH
 70
     0
  9
$DIMBLK1
  1

  9
$DIMBLK2
  1

  9
$DIMSTYLE
  2
Standard
  9
$DIMCLRD
 70
     0
  9
$DIMCLRE
 70
     0
  9
$DIMCLRT
 70
     0
  9
$DIMTFAC
 40
1.0
  9
$DIMGAP
 40
0.09
  9
$DIMJUST
 70
     0
  9
$DIMSD1
 70
     0
  9
$DIMSD2
 70
     0
  9
$DIMTOLJ
 70
     1
  9
$DIMTZIN
 70
     0
  9
$DIMALTZ
 70
     0
  9
$DIMALTTZ
 70
     0
  9
$DIMUPT
 70
     0
  9
$DIMDEC
 70
     4
  9
$DIMTDEC
 70
     4
  9
$DIMALTU
 70
     2
  9
$DIMALTTD
 70
     2
  9
$DIMTXSTY
  7
Standard
  9
$DIMAUNIT
 70
     0
  9
$DIMADEC
 70
     0
  9
$DIMALTRND
 40
0.0
  9
$DIMAZIN
 70
     0
  9
$DIMDSEP
 70
    46
  9
$DIMATFIT
 70
     3
  9
$DIMFRAC
 70
     0
  9
$DIMLDRBLK
  1

  9
$DIMLUNIT
 70
     2
  9
$DIMLWD
 70
    -2
  9
$DIMLWE
 70
    -2
  9
$DIMTMOVE
 70
     0
  9
$DIMFXL
 40
1.0
  9
$DIMFXLON
 70
     0
  9
$DIMJOGANG
 40
0.7853981633974483
  9
$DIMTFILL
 70
     0
  9
$DIMTFILLCLR
 70
     0
  9
$DIMARCSYM
 70
     0
  9
$DIMLTYPE
  6

  9
$DIMLTEX1
  6

  9
$DIMLTEX2
  6

  9
$DIMTXTDIRECTION
 70
     0
  9
$LUNITS
 70
     2
  9
$LUPREC
 70
     4
  9
$SKETCHINC
 40
0.1
  9
$FILLETRAD
 40
0.5
  9
$AUNITS
 70
     0
  9
$AUPREC
 70
     0
  9
$MENU
  1
.
  9
$ELEVATION
 40
0.0
  9
$PELEVATION
 40
0.0
  9
$THICKNESS
 40
0.0
  9
$LIMCHECK
 70
     0
  9
$CHAMFERA
 40
0.5
  9
$CHAMFERB
 40
0.5
  9
$CHAMFERC
 40
1.0
  9
$CHAMFERD
 40
0.0
  9
$SKPOLY
 70
     0
  9
$TDCREATE
 40
2457887.487700463
  9
$TDUCREATE
 40
2457887.77936713
  9
$TDUPDATE
 40
2457887.487700636
  9
$TDUUPDATE
 40
2457887.779367303
  9
$TDINDWG
 40
0.0000000116
  9
$TDUSRTIMER
 40
0.0000000116
  9
$USRTIMER
 70
     1
  9
$ANGBASE
 50
0.0
  9
$ANGDIR
 70
     0
  9
$PDMODE
 70
     0
  9
$PDSIZE
 40
0.0
  9
$PLINEWID
 40
0.0
  9
$SPLFRAME
 70
     0
  9
$SPLINETYPE
 70
     6
  9
$SPLINESEGS
 70
     8
  9
$HANDSEED
  5
79
  9
$SURFTAB1
 70
     6
  9
$SURFTAB2
 70
     6
  9
$SURFTYPE
 70
     6
  9
$SURFU
 70
     6
  9
$SURFV
 70
     6
  9
$UCSBASE
  2

  9
$UCSNAME
  2

  9
$UCSORG
 10
0.0
 20
0.0
 30
0.0
  9
$UCSXDIR
 10
1.0
 20
0.0
 30
0.0
  9
$UCSYDIR
 10
0.0
 20
1.0
 30
0.0
  9
$UCSORTHOREF
  2

  9
$UCSORTHOVIEW
 70
     0
  9
$UCSORGTOP
 10
0.0
 20
0.0
 30
0.0
  9
$UCSORGBOTTOM
 10
0.0
 20
0.0
 30
0.0
  9
$UCSORGLEFT
 10
0.0
 20
0.0
 30
0.0
  9
$UCSORGRIGHT
 10
0.0
 20
0.0
 30
0.0
  9
$UCSORGFRONT
 10
0.0
 20
0.0
 30
0.0
  9
$UCSORGBACK
 10
0.0
 20
0.0
 30
0.0
  9
$PUCSBASE
  2

  9
$PUCSNAME
  2

  9
$PUCSORG
 10
0.0
 20
0.0
 30
0.0
  9
$PUCSXDIR
 10
1.0
 20
0.0
 30
0.0
  9
$PUCSYDIR
 10
0.0
 20
1.0
 30
0.0
  9
$PUCSORTHOREF
  2

  9
$PUCSORTHOVIEW
 70
     0
  9
$PUCSORGTOP
 10
0.0
 20
0.0
 30
0.0
  9
$PUCSORGBOTTOM
 10
0.0
 20
0.0
 30
0.0
  9
$PUCSORGLEFT
 10
0.0
 20
0.0
 30
0.0
  9
$PUCSORGRIGHT
 10
0.0
 20
0.0
 30
0.0
  9
$PUCSORGFRONT
 10
0.0
 20
0.0
 30
0.0
  9
$PUCSORGBACK
 10
0.0
 20
0.0
 30
0.0
  9
$USERI1
 70
     0
  9
$USERI2
 70
     0
  9
$USERI3
 70
     0
  9
$USERI4
 70
     0
  9
$USERI5
 70
     0
  9
$USERR1
 40
0.0
  9
$USERR2
 40
0.0
  9
$USERR3
 40
0.0
  9
$USERR4
 40
0.0
  9
$USERR5
 40
0.0
  9
$WORLDVIEW
 70
     1
  9
$SHADEDGE
 70
     3
  9
$SHADEDIF
 70
    70
  9
$TILEMODE
 70
     1
  9
$MAXACTVP
 70
    64
  9
$PINSBASE
 10
0.0
 20
0.0
 30
0.0
  9
$PLIMCHECK
 70
     0
  9
$PEXTMIN
 10
1.000000000000000E+20
 20
1.000000000000000E+20
 30
1.000000000000000E+20
  9
$PEXTMAX
 10
-1.000000000000000E+20
 20
-1.000000000000000E+20
 30
-1.000000000000000E+20
  9
$PLIMMIN
 10
0.0
 20
0.0
  9
$PLIMMAX
 10
12.0
 20
9.0
  9
$UNITMODE
 70
     0
  9
$VISRETAIN
 70
     1
  9
$PLINEGEN
 70
     0
  9
$PSLTSCALE
 70
     1
  9
$TREEDEPTH
 70
  3020
  9
$CMLSTYLE
  2
Standard
  9
$CMLJUST
 70
     0
  9
$CMLSCALE
 40
1.0
  9
$PROXYGRAPHICS
 70
     1
  9
$MEASUREMENT
 70
     0
  9
$CELWEIGHT
370
    -1
  9
$ENDCAPS
280
     0
  9
$JOINSTYLE
280
     0
  9
$LWDISPLAY
290
     1
  9
$INSUNITS
 70
     1
  9
$HYPERLINKBASE
  1

  9
$STYLESHEET
  1

  9
$XEDIT
290
     1
  9
$CEPSNTYPE
380
     0
  9
$PSTYLEMODE
290
     1
  9
$FINGERPRINTGUID
  2
{D8FC0D37-8921-4F46-A751-98DEBC55FA04}
  9
$VERSIONGUID
  2
{FAEB1C32-E019-11D5-929B-00C0DF256EC4}
  9
$EXTNAMES
290
     1
  9
$PSVPSCALE
 40
0.0
  9
$OLESTARTUP
290
     0
  9
$SORTENTS
280
   127
  9
$INDEXCTL
280
     0
  9
$HIDETEXT
280
     1
  9
$XCLIPFRAME
280
     2
  9
$HALOGAP
280
     0
  9
$OBSCOLOR
 70
   257
  9
$OBSLTYPE
280
     0
  9
$INTERSECTIONDISPLAY
280
     0
  9
$INTERSECTIONCOLOR
 70
   257
  9
$DIMASSOC
280
     2
  9
$PROJECTNAME
  1

  9
$CAMERADISPLAY
290
     0
  9
$LENSLENGTH
 40
50.0
  9
$CAMERAHEIGHT
 40
0.0
  9
$STEPSPERSEC
 40
2.0
  9
$STEPSIZE
 40
6.0
  9
$3DDWFPREC
 40
2.0
  9
$PSOLWIDTH
 40
0.25
  9
$PSOLHEIGHT
 40
4.0
  9
$LOFTANG1
 40
1.570796326794897
  9
$LOFTANG2
 40
1.570796326794897
  9
$LOFTMAG1
 40
0.0
  9
$LOFTMAG2
 40
0.0
  9
$LOFTPARAM
 70
     7
  9
$LOFTNORMALS
280
     1
  9
$LATITUDE
 40
37.795
  9
$LONGITUDE
 40
-122.394
  9
$NORTHDIRECTION
 40
0.0
  9
$TIMEZONE
 70
 -8000
  9
$LIGHTGLYPHDISPLAY
280
     1
  9
$TILEMODELIGHTSYNCH
280
     1
  9
$CMATERIAL
347
3C
  9
$SOLIDHIST
280
     1
  9
$SHOWHIST
280
     1
  9
$DWFFRAME
280
     2
  9
$DGNFRAME
280
     2
  9
$REALWORLDSCALE
290
     1
  9
$INTERFERECOLOR
 62
   256
  9
$CSHADOW
280
     0
  9
$SHADOWPLANELOCATION
 40
0.0
  0
ENDSEC
  0
SECTION
  2
CLASSES
  0
CLASS
  1
ACDBDICTIONARYWDFLT
  2
AcDbDictionaryWithDefault
  3
ObjectDBX Classes
 90
        0
 91
        4
280
     0
281
     0
  0
CLASS
  1
VISUALSTYLE
  2
AcDbVisualStyle
  3
ObjectDBX Classes
 90
     4095
 91
        4
280
     0
281
     0
  0
CLASS
  1
MATERIAL
  2
AcDbMaterial
  3
ObjectDBX Classes
 90
     1153
 91
        4
280
     0
281
     0
  0
CLASS
  1
SUN
  2
AcDbSun
  3
SCENEOE
 90
     1024
 91
        4
280
     0
281
     0
  0
ENDSEC
  0
SECTION
  2
TABLES
  0
TABLE
  2
VPORT
  5
8
330
0
100
AcDbSymbolTable
 70
     1
  0
VPORT
  5
29
330
8
100
AcDbSymbolTableRecord
100
AcDbViewportTableRecord
  2
*Active
 70
     0
 10
0.0
 20
0.0
 11
1.0
 21
1.0
 12
0.0
 22
0.0
 13
0.0
 23
0.0
 14
0.5
 24
0.5
 15
0.5
 25
0.5
 16
0.0
 26
0.0
 36
1.0
 17
304.7999999238
 27
-276.2249999309437
 37
0.0
 40
552.4499998618875
 41
1.103448275862069
 42
50.0
 43
0.0
 44
0.0
 50
0.0
 51
0.0
 71
     0
 72
   100
 73
     1
 74
     3
 75
     0
 76
     0
 77
     0
 78
     0
281
     0
 65
     1
110
0.0
120
0.0
130
0.0
111
1.0
121
0.0
131
0.0
112
0.0
122
1.0
132
0.0
 79
     0
146
0.0
 60
     3
 61
     5
292
     1
282
     1
141
0.0
142
0.0
 63
   250
361
3F
  0
ENDTAB
  0
TABLE
  2
LTYPE
  5
5
330
0
100
AcDbSymbolTable
 70
     1
  0
LTYPE
  5
14
330
5
100
AcDbSymbolTableRecord
100
AcDbLinetypeTableRecord
  2
ByBlock
 70
     0
  3

 72
    65
 73
     0
 40
0.0
  0
LTYPE
  5
15
330
5
100
AcDbSymbolTableRecord
100
AcDbLinetypeTableRecord
  2
ByLayer
 70
     0
  3

 72
    65
 73
     0
 40
0.0
  0
LTYPE
  5
16
330
5
100
AcDbSymbolTableRecord
100
AcDbLinetypeTableRecord
  2
Continuous
 70
     0
  3
Solid line
 72
    65
 73
     0
 40
0.0
  0
ENDTAB
  0
TABLE
  2
LAYER
  5
2
330
0
100
AcDbSymbolTable
 70
     3
  0
LAYER
  5
10
330
2
100
AcDbSymbolTableRecord
100
AcDbLayerTableRecord
  2
0
 70
     0
 62
     7
  6
Continuous
370
    -3
390
F
347
3E
  0
LAYER
  5
40
330
2
100
AcDbSymbolTableRecord
100
AcDbLayerTableRecord
  2
Layer 1
 70
     0
 62
     7
  6
Continuous
370
    -3
390
F
347
3E
  0
LAYER
  5
6F
330
2
100
AcDbSymbolTableRecord
100
AcDbLayerTableRecord
  2
Layer 2
 70
     0
 62
     7
  6
Continuous
370
    -3
390
F
347
3E
  0
ENDTAB
  0
TABLE
  2
STYLE
  5
3
330
0
100
AcDbSymbolTable
 70
     1
  0
STYLE
  5
11
330
3
100
AcDbSymbolTableRecord
100
AcDbTextStyleTableRecord
  2
Standard
 70
     0
 40
0.0
 41
1.0
 50
0.0
 71
     0
 42
0.2
  3
txt
  4

  0
ENDTAB
  0
TABLE
  2
VIEW
  5
6
330
0
100
AcDbSymbolTable
 70
     0
  0
ENDTAB
  0
TABLE
  2
UCS
  5
7
330
0
100
AcDbSymbolTable
 70
     0
  0
ENDTAB
  0
TABLE
  2
APPID
  5
9
330
0
100
AcDbSymbolTable
 70
     1
  0
APPID
  5
12
330
9
100
AcDbSymbolTableRecord
100
AcDbRegAppTableRecord
  2
ACAD
 70
     0
  0
ENDTAB
  0
TABLE
  2
DIMSTYLE
  5
A
330
0
100
AcDbSymbolTable
 70
     1
100
AcDbDimStyleTable
  0
DIMSTYLE
105
27
330
A
100
AcDbSymbolTableRecord
100
AcDbDimStyleTableRecord
  2
Standard
 70
     0
178
     0
340
11
  0
ENDTAB
  0
TABLE
  2
BLOCK_RECORD
  5
1
330
0
100
AcDbSymbolTable
 70
     2
  0
BLOCK_RECORD
  5
1F
330
1
100
AcDbSymbolTableRecord
100
AcDbBlockTableRecord
  2
*Model_Space
340
22
 70
     0
280
     1
281
     0
  0
BLOCK_RECORD
  5
1B
330
1
100
AcDbSymbolTableRecord
100
AcDbBlockTableRecord
  2
*Paper_Space
340
1E
 70
     0
280
     1
281
     0
  0
BLOCK_RECORD
  5
23
330
1
100
AcDbSymbolTableRecord
100
AcDbBlockTableRecord
  2
*Paper_Space0
340
26
 70
     0
280
     1
281
     0
  0
BLOCK_RECORD
  5
48
330
1
100
AcDbSymbolTableRecord
100
AcDbBlockTableRecord
  2
block 2
340
0
102
{BLKREFS
331
49
102
}
 70
     0
280
     1
281
     0
  0
ENDTAB
  0
ENDSEC
  0
SECTION
  2
BLOCKS
  0
BLOCK
  5
20
330
1F
100
AcDbEntity
  8
0
100
AcDbBlockBegin
  2
*Model_Space
 70
     0
 10
0.0
 20
0.0
 30
0.0
  3
*Model_Space
  1

  0
ENDBLK
  5
21
330
1F
100
AcDbEntity
  8
0
100
AcDbBlockEnd
  0
BLOCK
  5
1C
330
1B
100
AcDbEntity
 67
     1
  8
0
100
AcDbBlockBegin
  2
*Paper_Space
 70
     0
 10
0.0
 20
0.0
 30
0.0
  3
*Paper_Space
  1

  0
ENDBLK
  5
1D
330
1B
100
AcDbEntity
 67
     1
  8
0
100
AcDbBlockEnd
  0
BLOCK
  5
24
330
23
100
AcDbEntity
  8
0
100
AcDbBlockBegin
  2
*Paper_Space0
 70
     0
 10
0.0
 20
0.0
 30
0.0
  3
*Paper_Space0
  1

  0
ENDBLK
  5
25
330
23
100
AcDbEntity
  8
0
100
AcDbBlockEnd
  0
BLOCK
  5
4A
330
48
100
AcDbEntity
  8
0
100
AcDbBlockBegin
  2
block 2
 70
     0
 10
0.0
 20
0.0
 30
0.0
  3
block 2
  1

  0
SPLINE
  5
4C
330
48
100
AcDbEntity
  8
Layer 1
 62
   165
420
  4285358
370
    35
100
AcDbSpline
210
0.0
220
0.0
230
1.0
 70
    11
 71
     3
 72
    17
 73
    13
 74
     0
 42
0.0000000001
 43
0.0000000001
 12
1.0
 22
0.0
 32
0.0
 13
1.0
 23
0.0
 33
0.0
 40
0.0
 40
0.0
 40
0.0
 40
0.0
 40
1.0
 40
1.0
 40
1.0
 40
2.0
 40
2.0
 40
2.0
 40
3.0
 40
3.0
 40
3.0
 40
4.0
 40
4.0
 40
4.0
 40
4.0
 10
432.964047438496
 20
-368.2580864131308
 30
0.0
 10
303.0704027323337
 20
-368.2580864072991
 30
0.0
 10
173.1767438350979
 20
-368.2580864014673
 30
0.0
 10
43.28308493786487
 20
-368.2580863956355
 30
0.0
 10
43.27328600226902
 20
-360.5170340709968
 30
0.0
 10
43.26348351890623
 20
-352.7760119129674
 30
0.0
 10
43.25385842395558
 20
-345.0351707545609
 30
0.0
 10
173.1674344922218
 20
-345.0354724264351
 30
0.0
 10
303.0808189809953
 20
-345.0355930986839
 30
0.0
 10
432.9942176608427
 20
-345.0357137709352
 30
0.0
 10
432.984170380777
 20
-352.7764945961319
 30
0.0
 10
432.9740947185668
 20
-360.5173055879328
 30
0.0
 10
432.964047438496
 20
-368.2580864131308
 30
0.0
  0
SPLINE
  5
4D
330
48
100
AcDbEntity
  8
Layer 1
 62
   165
420
  4285358
370
    35
100
AcDbSpline
210
0.0
220
0.0
230
1.0
 70
    11
 71
     3
 72
    29
 73
    25
 74
     0
 42
0.0000000001
 43
0.0000000001
 12
1.0
 22
0.0
 32
0.0
 13
1.0
 23
0.0
 33
0.0
 40
0.0
 40
0.0
 40
0.0
 40
0.0
 40
1.0
 40
1.0
 40
1.0
 40
2.0
 40
2.0
 40
2.0
 40
3.0
 40
3.0
 40
3.0
 40
4.0
 40
4.0
 40
4.0
 40
5.0
 40
5.0
 40
5.0
 40
6.0
 40
6.0
 40
6.0
 40
7.0
 40
7.0
 40
7.0
 40
8.0
 40
8.0
 40
8.0
 40
8.0
 10
43.28308495439664
 20
-0.0421012092004549
 30
0.0
 10
173.1767438516296
 20
-0.0421012150322158
 30
0.0
 10
303.0704027488658
 20
-0.0421012208639767
 30
0.0
 10
432.9640474550288
 20
-0.0421012266957375
 30
0.0
 10
432.9750597273642
 20
-7.784748610533692
 30
0.0
 10
432.9860719997073
 20
-15.527395994371
 30
0.0
 10
432.9970275077538
 20
-23.26997738876161
 30
0.0
 10
425.6857015253171
 20
-23.29169545810275
 30
0.0
 10
418.3744323071707
 20
-23.31348140230183
 30
0.0
 10
411.063134706881
 20
-23.33526734650347
 30
0.0
 10
410.3666652236755
 20
-23.31412432769742
 30
0.0
 10
409.6702241226094
 20
-23.27447598257745
 30
0.0
 10
408.9737546394026
 20
-23.27445712841884
 30
0.0
 10
309.4720809476743
 20
-23.271708192135
 30
0.0
 10
209.970421447017
 20
-23.271676135652
 30
0.0
 10
110.4687548508239
 20
-23.27517545727801
 30
0.0
 10
109.7728884882246
 20
-23.27519996761517
 30
0.0
 10
109.0770150300784
 20
-23.32564230076665
 30
0.0
 10
108.3811486674727
 20
-23.35254337010232
 30
0.0
 10
86.68013137537396
 20
-23.33722627580726
 30
0.0
 10
64.97910698773461
 20
-23.32190918150771
 30
0.0
 10
43.27808969563554
 20
-23.30659208720881
 30
0.0
 10
43.27975359930154
 20
-15.55176116606937
 30
0.0
 10
43.28142105073096
 20
-7.796931187633309
 30
0.0
 10
43.28308495439664
 20
-0.0421012092004549
 30
0.0
  0
SPLINE
  5
4E
330
48
100
AcDbEntity
  8
Layer 1
 62
   165
420
  4285358
370
    35
100
AcDbSpline
210
0.0
220
0.0
230
1.0
 70
    11
 71
     3
 72
    38
 73
    34
 74
     0
 42
0.0000000001
 43
0.0000000001
 12
1.0
 22
0.0
 32
0.0
 13
1.0
 23
0.0
 33
0.0
 40
0.0
 40
0.0
 40
0.0
 40
0.0
 40
1.0
 40
1.0
 40
1.0
 40
2.0
 40
2.0
 40
2.0
 40
3.0
 40
3.0
 40
3.0
 40
4.0
 40
4.0
 40
4.0
 40
5.0
 40
5.0
 40
5.0
 40
6.0
 40
6.0
 40
6.0
 40
7.0
 40
7.0
 40
7.0
 40
8.0
 40
8.0
 40
8.0
 40
9.0
 40
9.0
 40
9.0
 40
10.0
 40
10.0
 40
10.0
 40
11.0
 40
11.0
 40
11.0
 40
11.0
 10
0.0368683378283136
 20
-322.2928694509565
 30
0.0
 10
0.0368683419631014
 20
-230.1976806562007
 30
0.0
 10
0.0368683460978892
 20
-138.1025069447488
 30
0.0
 10
0.0368683502326769
 20
-46.00731814999341
 30
0.0
 10
7.332594795616618
 20
-46.00560242470385
 30
0.0
 10
14.62832124100281
 20
-46.00388292858604
 30
0.0
 10
21.9240973551466
 20
-46.00215966164381
 30
0.0
 10
21.91359241289941
 20
-55.27822833265935
 30
0.0
 10
21.88806267206765
 20
-64.55431962862711
 30
0.0
 10
21.89600612478811
 20
-73.83038452881632
 30
0.0
 10
21.90781487083623
 20
-87.61985609516647
 30
0.0
 10
21.94329610061247
 20
-101.409320119863
 30
0.0
 10
21.96866086918659
 20
-115.1986634781435
 30
0.0
 10
21.96864135611921
 20
-122.7794481758837
 30
0.0
 10
21.96866796404186
 20
-130.3603535400414
 30
0.0
 10
21.96869457196451
 20
-137.9412664458499
 30
0.0
 10
21.96859700798898
 20
-145.6819869378395
 30
0.0
 10
21.96849944401344
 20
-153.4227225131295
 30
0.0
 10
21.96840365392634
 20
-161.163443005117
 30
0.0
 10
21.94309742286157
 20
-162.1500116315341
 30
0.0
 10
21.89573649039395
 20
-163.1365953412523
 30
0.0
 10
21.89565489168068
 20
-164.1231639676681
 30
0.0
 10
21.89198649732188
 20
-208.0999642725024
 30
0.0
 10
21.89209470227815
 20
-252.0767645773342
 30
0.0
 10
21.89497726201646
 20
-296.0535648821691
 30
0.0
 10
21.89504289568596
 20
-297.0407670072759
 30
0.0
 10
21.93230510570558
 20
-298.0279389657798
 30
0.0
 10
21.9522151811498
 20
-299.0151410908879
 30
0.0
 10
21.93171794966411
 20
-306.7863901864089
 30
0.0
 10
21.91122249206173
 20
-314.55763928193
 30
0.0
 10
21.89072526057187
 20
-322.3288883774498
 30
0.0
 10
14.60610687762134
 20
-322.3168820686183
 30
0.0
 10
7.321487607726913
 20
-322.304875759788
 30
0.0
 10
0.0368683378283136
 20
-322.2928694509565
 30
0.0
  0
SPLINE
  5
4F
330
48
100
AcDbEntity
  8
Layer 1
 62
   165
420
  4285358
370
    35
100
AcDbSpline
210
0.0
220
0.0
230
1.0
 70
    11
 71
     3
 72
    17
 73
    13
 74
     0
 42
0.0000000001
 43
0.0000000001
 12
1.0
 22
0.0
 32
0.0
 13
1.0
 23
0.0
 33
0.0
 40
0.0
 40
0.0
 40
0.0
 40
0.0
 40
1.0
 40
1.0
 40
1.0
 40
2.0
 40
2.0
 40
2.0
 40
3.0
 40
3.0
 40
3.0
 40
4.0
 40
4.0
 40
4.0
 40
4.0
 10
476.2102640550596
 20
-46.00731817137162
 30
0.0
 10
476.2102640509244
 20
-138.1025069661273
 30
0.0
 10
476.2102640467906
 20
-230.1976806775796
 30
0.0
 10
476.2102640426555
 20
-322.2928694723353
 30
0.0
 10
468.9271499134419
 20
-322.3032769504848
 30
0.0
 10
461.6440074020915
 20
-322.3136844286344
 30
0.0
 10
454.3610635657561
 20
-322.323941073764
 30
0.0
 10
454.3611487163258
 20
-230.2078468222419
 30
0.0
 10
454.3610351918806
 20
-138.0919637369506
 30
0.0
 10
454.3609216674315
 20
-45.97607311000652
 30
0.0
 10
461.6440357966413
 20
-45.98648813046134
 30
0.0
 10
468.9271499258472
 20
-45.99690315091744
 30
0.0
 10
476.2102640550596
 20
-46.00731817137162
 30
0.0
  0
SPLINE
  5
50
330
48
100
AcDbEntity
  8
Layer 1
 62
   165
420
  4285358
370
    35
100
AcDbSpline
210
0.0
220
0.0
230
1.0
 70
    11
 71
     3
 72
    35
 73
    31
 74
     0
 42
0.0000000001
 43
0.0000000001
 12
1.0
 22
0.0
 32
0.0
 13
1.0
 23
0.0
 33
0.0
 40
0.0
 40
0.0
 40
0.0
 40
0.0
 40
1.0
 40
1.0
 40
1.0
 40
2.0
 40
2.0
 40
2.0
 40
3.0
 40
3.0
 40
3.0
 40
4.0
 40
4.0
 40
4.0
 40
5.0
 40
5.0
 40
5.0
 40
6.0
 40
6.0
 40
6.0
 40
7.0
 40
7.0
 40
7.0
 40
8.0
 40
8.0
 40
8.0
 40
9.0
 40
9.0
 40
9.0
 40
10.0
 40
10.0
 40
10.0
 40
10.0
 10
21.92404768638835
 20
-46.00216720329519
 30
0.0
 10
14.62832124100281
 20
-46.00388292858604
 30
0.0
 10
7.332594795616618
 20
-46.00560242470385
 30
0.0
 10
0.0368683502326769
 20
-46.00731814999341
 30
0.0
 10
0.0368683508965146
 20
-31.21957708559485
 30
0.0
 10
0.058942842864031
 20
-16.43173797972832
 30
0.0
 10
0.0002013357177401
 20
-1.644262287174831
 30
0.0
 10
-0.0052315724099731
 20
-0.2765928212801567
 30
0.0
 10
0.2575394828106632
 20
0.0026425836643575
 30
0.0
 10
1.544272292212887
 20
-0.0031313162366767
 30
0.0
 10
15.45701250166336
 20
-0.0655611044230109
 30
0.0
 10
29.37009662290045
 20
-0.0421012085760817
 30
0.0
 10
43.28308495439664
 20
-0.0421012092004549
 30
0.0
 10
43.28142105073096
 20
-7.796931187633309
 30
0.0
 10
43.27975359930154
 20
-15.55176116606937
 30
0.0
 10
43.27808260010103
 20
-23.30667504537272
 30
0.0
 10
43.27808260010103
 20
-23.30667504537272
 30
0.0
 10
43.3198788580051
 20
-23.26730008513492
 30
0.0
 10
43.3198788580051
 20
-23.26730008513492
 30
0.0
 10
36.81006468150048
 20
-23.26885366496212
 30
0.0
 10
30.2996793143068
 20
-23.32018402726894
 30
0.0
 10
23.79086738234388
 20
-23.23502370309064
 30
0.0
 10
22.26896703957192
 20
-23.21510997337061
 30
0.0
 10
21.8391141151798
 20
-23.67200016390557
 30
0.0
 10
21.85784810541914
 20
-25.28958062079251
 30
0.0
 10
21.93797090355737
 20
-32.20761633495282
 30
0.0
 10
21.88967868165218
 20
-39.12732629564416
 30
0.0
 10
21.88821700081594
 20
-46.04642538259988
 30
0.0
 10
21.88821700081594
 20
-46.04642538259988
 30
0.0
 10
21.92404768638835
 20
-46.00216720329519
 30
0.0
 10
21.92404768638835
 20
-46.00216720329519
 30
0.0
  0
SPLINE
  5
51
330
48
100
AcDbEntity
  8
Layer 1
 62
   165
420
  4285358
370
    35
100
AcDbSpline
210
0.0
220
0.0
230
1.0
 70
    11
 71
     3
 72
    35
 73
    31
 74
     0
 42
0.0000000001
 43
0.0000000001
 12
1.0
 22
0.0
 32
0.0
 13
1.0
 23
0.0
 33
0.0
 40
0.0
 40
0.0
 40
0.0
 40
0.0
 40
1.0
 40
1.0
 40
1.0
 40
2.0
 40
2.0
 40
2.0
 40
3.0
 40
3.0
 40
3.0
 40
4.0
 40
4.0
 40
4.0
 40
5.0
 40
5.0
 40
5.0
 40
6.0
 40
6.0
 40
6.0
 40
7.0
 40
7.0
 40
7.0
 40
8.0
 40
8.0
 40
8.0
 40
9.0
 40
9.0
 40
9.0
 40
10.0
 40
10.0
 40
10.0
 40
10.0
 10
476.2102640550596
 20
-46.00731817137162
 30
0.0
 10
468.9271499258472
 20
-45.99690315091744
 30
0.0
 10
461.6440357966413
 20
-45.98648813046134
 30
0.0
 10
454.3609216674315
 20
-45.97607311000652
 30
0.0
 10
454.3609216674315
 20
-45.97607311000652
 30
0.0
 10
454.3873170633068
 20
-46.00695617114082
 30
0.0
 10
454.3873170633068
 20
-46.00695617114082
 30
0.0
 10
454.3763615552205
 20
-39.09995389250083
 30
0.0
 10
454.3183200667472
 20
-32.19241238580757
 30
0.0
 10
454.3894741073364
 20
-25.28637355309469
 30
0.0
 10
454.4061060450256
 20
-23.67190214186633
 30
0.0
 10
453.9782451925502
 20
-23.21711795734976
 30
0.0
 10
452.4592894974417
 20
-23.23479747280273
 30
0.0
 10
445.96173640805
 20
-23.3104176077958
 30
0.0
 10
439.4628209756527
 20
-23.24872878715835
 30
0.0
 10
432.9643880397406
 20
-23.2371127588073
 30
0.0
 10
432.9643880397406
 20
-23.2371127588073
 30
0.0
 10
432.9970842720479
 20
-23.27004337820832
 30
0.0
 10
432.9970842720479
 20
-23.27004337820832
 30
0.0
 10
432.9860719997073
 20
-15.527395994371
 30
0.0
 10
432.9750597273642
 20
-7.784748610533692
 30
0.0
 10
432.9640474550288
 20
-0.0421012266957375
 30
0.0
 10
446.8369282663086
 20
-0.0421012273188273
 30
0.0
 10
460.7099509883248
 20
-0.069254176670751
 30
0.0
 10
474.5825195960015
 20
-0.0001142646101412
 30
0.0
 10
475.9703213939776
 20
0.00680225422726
 30
0.0
 10
476.2562998980923
 20
-0.2971272266295891
 30
0.0
 10
476.2497720044214
 20
-1.77217201018147
 30
0.0
 10
476.1847201248949
 20
-16.51696242902767
 30
0.0
 10
476.2102640557218
 20
-31.26220251882033
 30
0.0
 10
476.2102640550596
 20
-46.00731817137162
 30
0.0
  0
SPLINE
  5
52
330
48
100
AcDbEntity
  8
Layer 1
 62
   165
420
  4285358
370
    35
100
AcDbSpline
210
0.0
220
0.0
230
1.0
 70
    11
 71
     3
 72
    35
 73
    31
 74
     0
 42
0.0000000001
 43
0.0000000001
 12
1.0
 22
0.0
 32
0.0
 13
1.0
 23
0.0
 33
0.0
 40
0.0
 40
0.0
 40
0.0
 40
0.0
 40
1.0
 40
1.0
 40
1.0
 40
2.0
 40
2.0
 40
2.0
 40
3.0
 40
3.0
 40
3.0
 40
4.0
 40
4.0
 40
4.0
 40
5.0
 40
5.0
 40
5.0
 40
6.0
 40
6.0
 40
6.0
 40
7.0
 40
7.0
 40
7.0
 40
8.0
 40
8.0
 40
8.0
 40
9.0
 40
9.0
 40
9.0
 40
10.0
 40
10.0
 40
10.0
 40
10.0
 10
0.0368683378283136
 20
-322.2928694509565
 30
0.0
 10
7.321487607726913
 20
-322.304875759788
 30
0.0
 10
14.60610687762134
 20
-322.3168820686183
 30
0.0
 10
21.89065253132679
 20
-322.3288582108456
 30
0.0
 10
21.89065253132679
 20
-322.3288582108456
 30
0.0
 10
21.85982065123708
 20
-322.2932314511879
 30
0.0
 10
21.85982065123708
 20
-322.2932314511879
 30
0.0
 10
21.8707495510603
 20
-329.2002375006535
 30
0.0
 10
21.92878749176087
 20
-336.1077563823952
 30
0.0
 10
21.85763877282711
 20
-343.0138272671242
 30
0.0
 10
21.84100506125391
 20
-344.6282835950511
 30
0.0
 10
22.26889961752922
 20
-345.083014988008
 30
0.0
 10
23.7878641820587
 20
-345.0653675245718
 30
0.0
 10
30.28538888930271
 20
-344.9897398479299
 30
0.0
 10
36.78432915607946
 20
-345.0514607205816
 30
0.0
 10
43.2827514486872
 20
-345.0630748635207
 30
0.0
 10
43.2827514486872
 20
-345.0630748635207
 30
0.0
 10
43.25368103554312
 20
-345.03495958833
 30
0.0
 10
43.25368103554312
 20
-345.03495958833
 30
0.0
 10
43.26348351890623
 20
-352.7760119129674
 30
0.0
 10
43.27328600226902
 20
-360.5170340709968
 30
0.0
 10
43.28308493786487
 20
-368.2580863956355
 30
0.0
 10
29.37009305860046
 20
-368.2580863950105
 30
0.0
 10
15.45700716348199
 20
-368.2346469428576
 30
0.0
 10
1.544261410639287
 20
-368.2970918130973
 30
0.0
 10
0.2575192329130028
 20
-368.3028536344564
 30
0.0
 10
-0.0052305356765131
 20
-368.0236013786119
 30
0.0
 10
0.0002023725785774
 20
-366.6559380403085
 30
0.0
 10
0.0589421071602533
 20
-351.8684496212215
 30
0.0
 10
0.036868337164476
 20
-337.0805992028812
 30
0.0
 10
0.0368683378283136
 20
-322.2928694509565
 30
0.0
  0
SPLINE
  5
53
330
48
100
AcDbEntity
  8
Layer 1
 62
   165
420
  4285358
370
    35
100
AcDbSpline
210
0.0
220
0.0
230
1.0
 70
    11
 71
     3
 72
    35
 73
    31
 74
     0
 42
0.0000000001
 43
0.0000000001
 12
1.0
 22
0.0
 32
0.0
 13
1.0
 23
0.0
 33
0.0
 40
0.0
 40
0.0
 40
0.0
 40
0.0
 40
1.0
 40
1.0
 40
1.0
 40
2.0
 40
2.0
 40
2.0
 40
3.0
 40
3.0
 40
3.0
 40
4.0
 40
4.0
 40
4.0
 40
5.0
 40
5.0
 40
5.0
 40
6.0
 40
6.0
 40
6.0
 40
7.0
 40
7.0
 40
7.0
 40
8.0
 40
8.0
 40
8.0
 40
9.0
 40
9.0
 40
9.0
 40
10.0
 40
10.0
 40
10.0
 40
10.0
 10
454.3608932728778
 20
-322.3241220733894
 30
0.0
 10
461.6440074020915
 20
-322.3136844286344
 30
0.0
 10
468.9271499134419
 20
-322.3032769504848
 30
0.0
 10
476.2102640426555
 20
-322.2928694723353
 30
0.0
 10
476.2102640419933
 20
-337.0379738124088
 30
0.0
 10
476.1847201098419
 20
-351.7832289855036
 30
0.0
 10
476.2497719880453
 20
-366.5280014929344
 30
0.0
 10
476.2562998815827
 20
-368.0030579424792
 30
0.0
 10
475.9703213774411
 20
-368.306956313997
 30
0.0
 10
474.5825195794662
 20
-368.3000481615534
 30
0.0
 10
460.7099509717959
 20
-368.2309063039177
 30
0.0
 10
446.8369282497759
 20
-368.2580864137532
 30
0.0
 10
432.964047438496
 20
-368.2580864131308
 30
0.0
 10
432.9740947185668
 20
-360.5173055879328
 30
0.0
 10
432.984170380777
 20
-352.7764945961319
 30
0.0
 10
432.9940189858212
 20
-345.0359249371636
 30
0.0
 10
432.993848692943
 20
-345.0361361033946
 30
0.0
 10
432.9643880252909
 20
-345.063074881016
 30
0.0
 10
432.9643880252909
 20
-345.0631050476215
 30
0.0
 10
439.4628209612042
 20
-345.0514607386596
 30
0.0
 10
445.9617363936067
 20
-344.9897700331961
 30
0.0
 10
452.4592894829919
 20
-345.0653977104219
 30
0.0
 10
453.9783019423931
 20
-345.0830753405984
 30
0.0
 10
454.4060776484724
 20
-344.6282534478685
 30
0.0
 10
454.3894457109282
 20
-343.0137971199378
 30
0.0
 10
454.3183200531021
 20
-336.1077262352024
 30
0.0
 10
454.3763899243398
 20
-329.2002073534671
 30
0.0
 10
454.3873170509028
 20
-322.2932013040027
 30
0.0
 10
454.3873170509028
 20
-322.2932013040027
 30
0.0
 10
454.3608932728778
 20
-322.3241220733894
 30
0.0
 10
454.3608932728778
 20
-322.3241220733894
 30
0.0
  0
SPLINE
  5
54
330
48
100
AcDbEntity
  8
Layer 1
 62
   165
420
  4285358
370
    35
100
AcDbSpline
210
0.0
220
0.0
230
1.0
 70
    11
 71
     3
 72
    74
 73
    70
 74
     0
 42
0.0000000001
 43
0.0000000001
 12
1.0
 22
0.0
 32
0.0
 13
1.0
 23
0.0
 33
0.0
 40
0.0
 40
0.0
 40
0.0
 40
0.0
 40
1.0
 40
1.0
 40
1.0
 40
2.0
 40
2.0
 40
2.0
 40
3.0
 40
3.0
 40
3.0
 40
4.0
 40
4.0
 40
4.0
 40
5.0
 40
5.0
 40
5.0
 40
6.0
 40
6.0
 40
6.0
 40
7.0
 40
7.0
 40
7.0
 40
8.0
 40
8.0
 40
8.0
 40
9.0
 40
9.0
 40
9.0
 40
10.0
 40
10.0
 40
10.0
 40
11.0
 40
11.0
 40
11.0
 40
12.0
 40
12.0
 40
12.0
 40
13.0
 40
13.0
 40
13.0
 40
14.0
 40
14.0
 40
14.0
 40
15.0
 40
15.0
 40
15.0
 40
16.0
 40
16.0
 40
16.0
 40
17.0
 40
17.0
 40
17.0
 40
18.0
 40
18.0
 40
18.0
 40
19.0
 40
19.0
 40
19.0
 40
20.0
 40
20.0
 40
20.0
 40
21.0
 40
21.0
 40
21.0
 40
22.0
 40
22.0
 40
22.0
 40
23.0
 40
23.0
 40
23.0
 40
23.0
 10
454.3609216674315
 20
-45.97607311000652
 30
0.0
 10
454.3610351918806
 20
-138.0919637369506
 30
0.0
 10
454.3611487163258
 20
-230.2078468222419
 30
0.0
 10
454.3610635657561
 20
-322.323941073764
 30
0.0
 10
454.3608932728778
 20
-322.3241220733894
 30
0.0
 10
454.3873170509028
 20
-322.2932013040027
 30
0.0
 10
454.3873170509028
 20
-322.2932013040027
 30
0.0
 10
447.8942767227435
 20
-322.2932918035241
 30
0.0
 10
441.40078228025
 20
-322.3367317133959
 30
0.0
 10
434.9085366521855
 20
-322.2611945359854
 30
0.0
 10
433.3891836070278
 20
-322.2435169058076
 30
0.0
 10
432.917642631664
 20
-322.7447350359216
 30
0.0
 10
432.9342745692044
 20
-324.3596136963117
 30
0.0
 10
433.0053150805894
 20
-331.2600434260472
 30
0.0
 10
432.9644164077446
 20
-338.1618004863669
 30
0.0
 10
432.9643880252909
 20
-345.063074881016
 30
0.0
 10
432.9643880252909
 20
-345.063074881016
 30
0.0
 10
432.993848692943
 20
-345.0361361033946
 30
0.0
 10
432.9940189858212
 20
-345.0359249371636
 30
0.0
 10
303.0808189809953
 20
-345.0355930986839
 30
0.0
 10
173.1674344922218
 20
-345.0354724264351
 30
0.0
 10
43.25385842395558
 20
-345.0351707545609
 30
0.0
 10
43.25368103554312
 20
-345.03495958833
 30
0.0
 10
43.2827514486872
 20
-345.0630748635207
 30
0.0
 10
43.2827514486872
 20
-345.0630748635207
 30
0.0
 10
43.25822927479498
 20
-337.4992513390379
 30
0.0
 10
43.23372129197337
 20
-329.9353976479483
 30
0.0
 10
43.20921330915786
 20
-322.3715741234656
 30
0.0
 10
43.20921330915786
 20
-322.3715741234656
 30
0.0
 10
43.36321838168364
 20
-322.212113453241
 30
0.0
 10
43.36321838168364
 20
-322.212113453241
 30
0.0
 10
44.36947544182899
 20
-322.23905223091
 30
0.0
 10
45.37573250197818
 20
-322.289520959917
 30
0.0
 10
46.38198956212449
 20
-322.2895511265662
 30
0.0
 10
166.8169860671041
 20
-322.2930806246748
 30
0.0
 10
287.2519825720822
 20
-322.2928392972478
 30
0.0
 10
407.6869932681279
 20
-322.2928393026547
 30
0.0
 10
408.1519779677251
 20
-322.2928393026752
 30
0.0
 10
408.6246542289197
 20
-322.2346479230384
 30
0.0
 10
409.080613406052
 20
-322.3027641155252
 30
0.0
 10
410.7668250881333
 20
-322.5546250947463
 30
0.0
 10
411.1588676722847
 20
-321.7116193381219
 30
0.0
 10
411.1386879664848
 20
-320.0458496163089
 30
0.0
 10
411.0628792545288
 20
-313.7865808939703
 30
0.0
 10
411.1601164873529
 20
-307.5248385100862
 30
0.0
 10
411.0752254886391
 20
-301.2658111205802
 30
0.0
 10
411.0518102181791
 20
-299.5385015260337
 30
0.0
 10
411.5467096997961
 20
-298.9996053071747
 30
0.0
 10
413.1772072290928
 20
-299.0275697494162
 30
0.0
 10
418.6782915509611
 20
-299.1218403880426
 30
0.0
 10
424.1817315909667
 20
-299.078822810584
 30
0.0
 10
429.6841498737039
 20
-299.0576760212301
 30
0.0
 10
433.3387485344501
 20
-299.043618383799
 30
0.0
 10
432.9591657124504
 20
-299.4841111394991
 30
0.0
 10
432.9594211519379
 20
-295.6775985114664
 30
0.0
 10
432.9654949348949
 20
-213.4697254361519
 30
0.0
 10
432.9643028884496
 20
-131.2618523608379
 30
0.0
 10
432.9609254167569
 20
-49.05396797304599
 30
0.0
 10
432.9608686525078
 20
-48.06679978536781
 30
0.0
 10
432.9133853221215
 20
-47.07963536851597
 30
0.0
 10
432.8880400656988
 20
-46.09247095166157
 30
0.0
 10
432.8880400656988
 20
-46.09247095166157
 30
0.0
 10
433.0379829435618
 20
-45.92868514454999
 30
0.0
 10
433.0379829435618
 20
-45.92868514454999
 30
0.0
 10
440.1544371108604
 20
-45.9547792575722
 30
0.0
 10
447.2708628960095
 20
-45.98086959976871
 30
0.0
 10
454.3873170633068
 20
-46.0069637127922
 30
0.0
 10
454.3873170633068
 20
-46.0069637127922
 30
0.0
 10
454.3609216674315
 20
-45.97607311000652
 30
0.0
 10
454.3609216674315
 20
-45.97607311000652
 30
0.0
  0
SPLINE
  5
55
330
48
100
AcDbEntity
  8
Layer 1
 62
   165
420
  4285358
370
    35
100
AcDbSpline
210
0.0
220
0.0
230
1.0
 70
    11
 71
     3
 72
   152
 73
   148
 74
     0
 42
0.0000000001
 43
0.0000000001
 12
1.0
 22
0.0
 32
0.0
 13
1.0
 23
0.0
 33
0.0
 40
0.0
 40
0.0
 40
0.0
 40
0.0
 40
1.0
 40
1.0
 40
1.0
 40
2.0
 40
2.0
 40
2.0
 40
3.0
 40
3.0
 40
3.0
 40
4.0
 40
4.0
 40
4.0
 40
5.0
 40
5.0
 40
5.0
 40
6.0
 40
6.0
 40
6.0
 40
7.0
 40
7.0
 40
7.0
 40
8.0
 40
8.0
 40
8.0
 40
9.0
 40
9.0
 40
9.0
 40
10.0
 40
10.0
 40
10.0
 40
11.0
 40
11.0
 40
11.0
 40
12.0
 40
12.0
 40
12.0
 40
13.0
 40
13.0
 40
13.0
 40
14.0
 40
14.0
 40
14.0
 40
15.0
 40
15.0
 40
15.0
 40
16.0
 40
16.0
 40
16.0
 40
17.0
 40
17.0
 40
17.0
 40
18.0
 40
18.0
 40
18.0
 40
19.0
 40
19.0
 40
19.0
 40
20.0
 40
20.0
 40
20.0
 40
21.0
 40
21.0
 40
21.0
 40
22.0
 40
22.0
 40
22.0
 40
23.0
 40
23.0
 40
23.0
 40
24.0
 40
24.0
 40
24.0
 40
25.0
 40
25.0
 40
25.0
 40
26.0
 40
26.0
 40
26.0
 40
27.0
 40
27.0
 40
27.0
 40
28.0
 40
28.0
 40
28.0
 40
29.0
 40
29.0
 40
29.0
 40
30.0
 40
30.0
 40
30.0
 40
31.0
 40
31.0
 40
31.0
 40
32.0
 40
32.0
 40
32.0
 40
33.0
 40
33.0
 40
33.0
 40
34.0
 40
34.0
 40
34.0
 40
35.0
 40
35.0
 40
35.0
 40
36.0
 40
36.0
 40
36.0
 40
37.0
 40
37.0
 40
37.0
 40
38.0
 40
38.0
 40
38.0
 40
39.0
 40
39.0
 40
39.0
 40
40.0
 40
40.0
 40
40.0
 40
41.0
 40
41.0
 40
41.0
 40
42.0
 40
42.0
 40
42.0
 40
43.0
 40
43.0
 40
43.0
 40
44.0
 40
44.0
 40
44.0
 40
45.0
 40
45.0
 40
45.0
 40
46.0
 40
46.0
 40
46.0
 40
47.0
 40
47.0
 40
47.0
 40
48.0
 40
48.0
 40
48.0
 40
49.0
 40
49.0
 40
49.0
 40
49.0
 10
432.8880400656988
 20
-46.09247095166157
 30
0.0
 10
432.9133853221215
 20
-47.07963536851597
 30
0.0
 10
432.9608686525078
 20
-48.06679978536781
 30
0.0
 10
432.9609254167569
 20
-49.05396797304599
 30
0.0
 10
432.9643028884496
 20
-131.2618523608379
 30
0.0
 10
432.9654949348949
 20
-213.4697254361519
 30
0.0
 10
432.9594211519379
 20
-295.6775985114664
 30
0.0
 10
432.9591657124504
 20
-299.4841111394991
 30
0.0
 10
433.3387485344501
 20
-299.043618383799
 30
0.0
 10
429.6841498737039
 20
-299.0576760212301
 30
0.0
 10
424.1817315909667
 20
-299.078822810584
 30
0.0
 10
418.6782915509611
 20
-299.1218403880426
 30
0.0
 10
413.1772072290928
 20
-299.0275697494162
 30
0.0
 10
411.5467096997961
 20
-298.9996053071747
 30
0.0
 10
411.0518102181791
 20
-299.5385015260337
 30
0.0
 10
411.0752254886391
 20
-301.2658111205802
 30
0.0
 10
411.1601164873529
 20
-307.5248385100862
 30
0.0
 10
411.0628792545288
 20
-313.7865808939703
 30
0.0
 10
411.1386879664848
 20
-320.0458496163089
 30
0.0
 10
411.1588676722847
 20
-321.7116193381219
 30
0.0
 10
410.7668250881333
 20
-322.5546250947463
 30
0.0
 10
409.080613406052
 20
-322.3027641155252
 30
0.0
 10
408.6246542289197
 20
-322.2346479230384
 30
0.0
 10
408.1519779677251
 20
-322.2928393026752
 30
0.0
 10
407.6869932681279
 20
-322.2928393026547
 30
0.0
 10
287.2519825720822
 20
-322.2928392972478
 30
0.0
 10
166.8169860671041
 20
-322.2930806246748
 30
0.0
 10
46.38198956212449
 20
-322.2895511265662
 30
0.0
 10
45.37573250197818
 20
-322.289520959917
 30
0.0
 10
44.36947544182899
 20
-322.23905223091
 30
0.0
 10
43.36314387855109
 20
-322.2122039530538
 30
0.0
 10
43.3362943686494
 20
-315.2258295677223
 30
0.0
 10
43.26039696251838
 20
-308.2389423501174
 30
0.0
 10
43.31748410194831
 20
-301.2532919632915
 30
0.0
 10
43.33165388847083
 20
-299.5189233833469
 30
0.0
 10
42.8253270453251
 20
-299.0100731023055
 30
0.0
 10
41.21019490037784
 20
-299.0278110655506
 30
0.0
 10
34.79159739367488
 20
-299.098370752677
 30
0.0
 10
28.37165705669613
 20
-299.0312500578619
 30
0.0
 10
21.9522151811498
 20
-299.0151410908879
 30
0.0
 10
21.93230510570558
 20
-298.0279389657798
 30
0.0
 10
21.89504289568596
 20
-297.0407670072759
 30
0.0
 10
21.89497726201646
 20
-296.0535648821691
 30
0.0
 10
21.89209470227815
 20
-252.0767645773342
 30
0.0
 10
21.89198649732188
 20
-208.0999642725024
 30
0.0
 10
21.89565489168068
 20
-164.1231639676681
 30
0.0
 10
21.89573649039395
 20
-163.1365953412523
 30
0.0
 10
21.94309742286157
 20
-162.1500116315341
 30
0.0
 10
21.96835398516777
 20
-161.163322338701
 30
0.0
 10
29.05777770607347
 20
-161.1556449382301
 30
0.0
 10
36.14724932184448
 20
-161.1481183707797
 30
0.0
 10
43.23697105528266
 20
-161.1403504704963
 30
0.0
 10
43.25251028022662
 20
-162.2100431750097
 30
0.0
 10
43.28109464907169
 20
-163.2799922956631
 30
0.0
 10
43.28116205662001
 20
-164.3499263330114
 30
0.0
 10
43.28348229543263
 20
-200.6598841597408
 30
0.0
 10
43.31086396925525
 20
-236.9699174029833
 30
0.0
 10
43.22408555591621
 20
-273.2796489801772
 30
0.0
 10
43.21793372563685
 20
-275.8533429910439
 30
0.0
 10
43.90818397104992
 20
-276.4561622444288
 30
0.0
 10
46.21416238651821
 20
-276.3848182254065
 30
0.0
 10
51.86431683526618
 20
-276.2100027538506
 30
0.0
 10
57.52303914435149
 20
-276.3739280817688
 30
0.0
 10
63.17708194711161
 20
-276.2981194054643
 30
0.0
 10
64.70547470580365
 20
-276.2776362812253
 30
0.0
 10
65.18438084804326
 20
-276.8238328183647
 30
0.0
 10
65.16586859317457
 20
-278.4289676655701
 30
0.0
 10
65.09660196534013
 20
-284.4385474042664
 30
0.0
 10
65.21311067482247
 20
-290.4512041366072
 30
0.0
 10
65.09732570952734
 20
-296.4591548786706
 30
0.0
 10
65.05810158352293
 20
-298.4943146699049
 30
0.0
 10
65.6047275263572
 20
-299.1085067330991
 30
0.0
 10
67.55717083442971
 20
-299.1056409057794
 30
0.0
 10
110.0079068366437
 20
-299.0438597021177
 30
0.0
 10
152.4587279852894
 20
-299.0513108552819
 30
0.0
 10
194.9095917071589
 20
-299.0455188691641
 30
0.0
 10
216.5887831289062
 20
-299.0455792033467
 30
0.0
 10
238.267889404218
 20
-299.045488704508
 30
0.0
 10
259.9470240616754
 20
-299.0454283722724
 30
0.0
 10
302.4103759278273
 20
-299.0512806954092
 30
0.0
 10
344.8737845582713
 20
-299.0427435483051
 30
0.0
 10
387.3370512779862
 20
-299.1080240818746
 30
0.0
 10
389.3452300254655
 20
-299.1111010756024
 30
0.0
 10
389.7930151445589
 20
-298.3965447200094
 30
0.0
 10
389.7564305583178
 20
-296.4177361455698
 30
0.0
 10
389.6483797283683
 20
-290.5724437337808
 30
0.0
 10
389.8024380176763
 20
-284.7213291673779
 30
0.0
 10
389.6732141067363
 20
-278.8770020869259
 30
0.0
 10
389.6264403300552
 20
-276.7620214607595
 30
0.0
 10
390.3048303862183
 20
-276.2452373628453
 30
0.0
 10
392.1899725303423
 20
-276.285298613416
 30
0.0
 10
397.7668655644503
 20
-276.4038232018875
 30
0.0
 10
403.3486687098491
 20
-276.258842501963
 30
0.0
 10
408.925930711853
 20
-276.3677439436686
 30
0.0
 10
410.6915272565972
 20
-276.4021942058372
 30
0.0
 10
411.1919044924108
 20
-275.7871574777716
 30
0.0
 10
411.1435696976794
 20
-273.9647627465286
 30
0.0
 10
411.0323116851513
 20
-269.7677132594646
 30
0.0
 10
411.1084326011828
 20
-265.5651131172204
 30
0.0
 10
411.1084326013715
 20
-261.3647453036909
 30
0.0
 10
411.108460986351
 20
-198.2769939374684
 30
0.0
 10
411.0982434165859
 20
-135.1892124046391
 30
0.0
 10
411.1507220075621
 20
-72.10151382997654
 30
0.0
 10
411.1525668471583
 20
-69.88282795994309
 30
0.0
 10
410.6653305450519
 20
-69.11102293103397
 30
0.0
 10
408.468069940234
 20
-69.18138653542147
 30
0.0
 10
403.1262378401356
 20
-69.35244626475874
 30
0.0
 10
397.7742449317441
 20
-69.14563156721609
 30
0.0
 10
392.43068152073
 20
-69.28322144910422
 30
0.0
 10
390.3694281600362
 20
-69.33629204759346
 30
0.0
 10
389.5973202574873
 20
-68.81830128544314
 30
0.0
 10
389.6633655115743
 20
-66.44854860282331
 30
0.0
 10
389.8284928378659
 20
-60.52382375114964
 30
0.0
 10
389.6505083999226
 20
-54.58906850353617
 30
0.0
 10
389.7557777800865
 20
-48.66125911657124
 30
0.0
 10
389.7906878198767
 20
-46.69460014200896
 30
0.0
 10
389.3655232712975
 20
-45.9560424818467
 30
0.0
 10
387.3451402009896
 20
-45.96136688741224
 30
0.0
 10
359.2946678578659
 20
-46.03533539984985
 30
0.0
 10
331.243940075426
 20
-46.01921889025358
 30
0.0
 10
303.1932974394262
 20
-46.02511268930488
 30
0.0
 10
252.6832949496084
 20
-46.02510514538573
 30
0.0
 10
202.1732782687215
 20
-46.02509760146722
 30
0.0
 10
151.6632757789098
 20
-46.02509005754808
 30
0.0
 10
137.2287264873306
 20
-46.00273660312735
 30
0.0
 10
122.7941913868284
 20
-45.98037937788158
 30
0.0
 10
108.3596420952492
 20
-45.95802215263517
 30
0.0
 10
108.3668156830157
 20
-38.42286444387222
 30
0.0
 10
108.3739821752455
 20
-30.88770296428229
 30
0.0
 10
108.3811557630082
 20
-23.35254337010232
 30
0.0
 10
109.0770150300784
 20
-23.32564230076665
 30
0.0
 10
109.7728884882246
 20
-23.27519996761517
 30
0.0
 10
110.4687548508239
 20
-23.27517545727801
 30
0.0
 10
209.970421447017
 20
-23.271676135652
 30
0.0
 10
309.4720809476743
 20
-23.271708192135
 30
0.0
 10
408.9737546394026
 20
-23.27445712841884
 30
0.0
 10
409.6702241226094
 20
-23.27447598257745
 30
0.0
 10
410.3666652236755
 20
-23.31412432769742
 30
0.0
 10
411.063134706881
 20
-23.33525603402833
 30
0.0
 10
411.0782623904522
 20
-30.0760686042677
 30
0.0
 10
411.1583000421564
 20
-36.81787667245609
 30
0.0
 10
411.0676190850552
 20
-43.55708852725227
 30
0.0
 10
411.0415642748491
 20
-45.49481395748604
 30
0.0
 10
411.5552811192771
 20
-46.0780890221141
 30
0.0
 10
413.4011991374871
 20
-46.05280940780882
 30
0.0
 10
419.8955734265152
 20
-45.96387448785385
 30
0.0
 10
426.392246669371
 20
-46.06405023931324
 30
0.0
 10
432.8880400656988
 20
-46.09247095166157
 30
0.0
  0
SPLINE
  5
56
330
48
100
AcDbEntity
  8
Layer 1
 62
   165
420
  4285358
370
    35
100
AcDbSpline
210
0.0
220
0.0
230
1.0
 70
    11
 71
     3
 72
    53
 73
    49
 74
     0
 42
0.0000000001
 43
0.0000000001
 12
1.0
 22
0.0
 32
0.0
 13
1.0
 23
0.0
 33
0.0
 40
0.0
 40
0.0
 40
0.0
 40
0.0
 40
1.0
 40
1.0
 40
1.0
 40
2.0
 40
2.0
 40
2.0
 40
3.0
 40
3.0
 40
3.0
 40
4.0
 40
4.0
 40
4.0
 40
5.0
 40
5.0
 40
5.0
 40
6.0
 40
6.0
 40
6.0
 40
7.0
 40
7.0
 40
7.0
 40
8.0
 40
8.0
 40
8.0
 40
9.0
 40
9.0
 40
9.0
 40
10.0
 40
10.0
 40
10.0
 40
11.0
 40
11.0
 40
11.0
 40
12.0
 40
12.0
 40
12.0
 40
13.0
 40
13.0
 40
13.0
 40
14.0
 40
14.0
 40
14.0
 40
15.0
 40
15.0
 40
15.0
 40
16.0
 40
16.0
 40
16.0
 40
16.0
 10
108.3811557630082
 20
-23.35254337010232
 30
0.0
 10
108.3739821752455
 20
-30.88770296428229
 30
0.0
 10
108.3668156830157
 20
-38.42286444387222
 30
0.0
 10
108.3594221336175
 20
-45.95828988124896
 30
0.0
 10
94.73007432696522
 20
-45.97481740895701
 30
0.0
 10
81.10069104262789
 20
-46.03934377490427
 30
0.0
 10
67.47213084053199
 20
-45.95415328380088
 30
0.0
 10
65.47891657958363
 20
-45.94169070531742
 30
0.0
 10
65.05345401840782
 20
-46.56769299404406
 30
0.0
 10
65.0931464496446
 20
-48.56875320996711
 30
0.0
 10
65.21719061890093
 20
-54.82155873734053
 30
0.0
 10
65.09340898393246
 20
-61.07953783733849
 30
0.0
 10
65.17087805143885
 20
-67.33404400702791
 30
0.0
 10
65.18974508299387
 20
-68.85719356544777
 30
0.0
 10
64.78013395042096
 20
-69.29162283368596
 30
0.0
 10
63.34780766075041
 20
-69.2712226674762
 30
0.0
 10
57.5407425172876
 20
-69.18846058836989
 30
0.0
 10
51.73003736357565
 20
-69.32910483892066
 30
0.0
 10
45.92499444802161
 20
-69.18735950679267
 30
0.0
 10
43.8770629571595
 20
-69.1373659017553
 30
0.0
 10
43.20988739647462
 20
-69.6266531398666
 30
0.0
 10
43.22588783123482
 20
-71.96473088799428
 30
0.0
 10
43.32444838069755
 20
-86.3675498525961
 30
0.0
 10
43.25218388830096
 20
-100.7716810644748
 30
0.0
 10
43.23672980910311
 20
-115.1753899438967
 30
0.0
 10
36.14738768687122
 20
-115.183188010784
 30
0.0
 10
29.05804556463805
 20
-115.1909860776732
 30
0.0
 10
21.96870344240584
 20
-115.1987841445615
 30
0.0
 10
21.94329610061247
 20
-101.409320119863
 30
0.0
 10
21.91359241289941
 20
-55.27822833265935
 30
0.0
 10
21.9240973551466
 20
-46.00215966164381
 30
0.0
 10
21.9240973551466
 20
-46.00215966164381
 30
0.0
 10
21.88821700081594
 20
-46.04642538259988
 30
0.0
 10
21.88821700081594
 20
-46.04642538259988
 30
0.0
 10
28.39770478263689
 20
-46.03338586819255
 30
0.0
 10
34.90777972011269
 20
-45.96673652714968
 30
0.0
 10
41.41624574467011
 20
-46.04715315280526
 30
0.0
 10
42.93478280313023
 20
-46.06591678073706
 30
0.0
 10
43.33822081892004
 20
-45.63711735502302
 30
0.0
 10
43.3205671241171
 20
-44.02310598450584
 30
0.0
 10
43.24490387068872
 20
-37.10543604042471
 30
0.0
 10
43.30761067504224
 20
-30.18605602696625
 30
0.0
 10
43.3198788580051
 20
-23.26730008513492
 30
0.0
 10
43.3198788580051
 20
-23.26730008513492
 30
0.0
 10
43.27808260010103
 20
-23.30667504537272
 30
0.0
 10
43.27808260010103
 20
-23.30667504537272
 30
0.0
 10
64.97910698773461
 20
-23.32190918150771
 30
0.0
 10
86.68013137537396
 20
-23.33722627580726
 30
0.0
 10
108.3811557630082
 20
-23.35254337010232
 30
0.0
  0
SPLINE
  5
57
330
48
100
AcDbEntity
  8
Layer 1
 62
   165
420
  4285358
370
    35
100
AcDbSpline
210
0.0
220
0.0
230
1.0
 70
    11
 71
     3
 72
    26
 73
    22
 74
     0
 42
0.0000000001
 43
0.0000000001
 12
1.0
 22
0.0
 32
0.0
 13
1.0
 23
0.0
 33
0.0
 40
0.0
 40
0.0
 40
0.0
 40
0.0
 40
1.0
 40
1.0
 40
1.0
 40
2.0
 40
2.0
 40
2.0
 40
3.0
 40
3.0
 40
3.0
 40
4.0
 40
4.0
 40
4.0
 40
5.0
 40
5.0
 40
5.0
 40
6.0
 40
6.0
 40
6.0
 40
7.0
 40
7.0
 40
7.0
 40
7.0
 10
432.8880400656988
 20
-46.09247095166157
 30
0.0
 10
426.392246669371
 20
-46.06405023931324
 30
0.0
 10
419.8955734265152
 20
-45.96387448785385
 30
0.0
 10
413.4011991374871
 20
-46.05280940780882
 30
0.0
 10
411.5552811192771
 20
-46.0780890221141
 30
0.0
 10
411.0415642748491
 20
-45.49481395748604
 30
0.0
 10
411.0676190850552
 20
-43.55708852725227
 30
0.0
 10
411.1583000421564
 20
-36.81787667245609
 30
0.0
 10
411.0782623904522
 20
-30.0760686042677
 30
0.0
 10
411.063134706881
 20
-23.33525603402833
 30
0.0
 10
418.3744323071707
 20
-23.31348140230183
 30
0.0
 10
425.6857015253171
 20
-23.29169545810275
 30
0.0
 10
432.9970275077538
 20
-23.26997738876161
 30
0.0
 10
432.9970275077538
 20
-23.26997738876161
 30
0.0
 10
432.9643880397406
 20
-23.23712218586928
 30
0.0
 10
432.9643880397406
 20
-23.23712218586928
 30
0.0
 10
432.9889102136341
 20
-30.80098153319775
 30
0.0
 10
433.0134607696708
 20
-38.36483145346102
 30
0.0
 10
433.0379829435618
 20
-45.92868514454999
 30
0.0
 10
433.0379829435618
 20
-45.92868514454999
 30
0.0
 10
432.8880400656988
 20
-46.09247095166157
 30
0.0
 10
432.8880400656988
 20
-46.09247095166157
 30
0.0
  0
SPLINE
  5
58
330
48
100
AcDbEntity
  8
Layer 1
 62
   165
420
  4285358
370
    35
100
AcDbSpline
210
0.0
220
0.0
230
1.0
 70
    11
 71
     3
 72
    17
 73
    13
 74
     0
 42
0.0000000001
 43
0.0000000001
 12
1.0
 22
0.0
 32
0.0
 13
1.0
 23
0.0
 33
0.0
 40
0.0
 40
0.0
 40
0.0
 40
0.0
 40
1.0
 40
1.0
 40
1.0
 40
2.0
 40
2.0
 40
2.0
 40
3.0
 40
3.0
 40
3.0
 40
4.0
 40
4.0
 40
4.0
 40
4.0
 10
43.23672271150393
 20
-161.140591803329
 30
0.0
 10
36.14724932184448
 20
-161.1481183707797
 30
0.0
 10
29.05777770607347
 20
-161.1556449382301
 30
0.0
 10
21.96835398516777
 20
-161.163322338701
 30
0.0
 10
21.96849944401344
 20
-153.4227225131295
 30
0.0
 10
21.96859700798898
 20
-145.6819869378395
 30
0.0
 10
21.96865022486292
 20
-137.9414021955684
 30
0.0
 10
29.05797283436657
 20
-137.949215346396
 30
0.0
 10
36.14733801709428
 20
-137.9569229141084
 30
0.0
 10
43.23670142593258
 20
-137.9646304818212
 30
0.0
 10
43.23670852112699
 20
-145.6899358390224
 30
0.0
 10
43.23671561631498
 20
-153.4152713628266
 30
0.0
 10
43.23672271150393
 20
-161.140591803329
 30
0.0
  0
SPLINE
  5
59
330
48
100
AcDbEntity
  8
Layer 1
 62
   165
420
  4285358
370
    35
100
AcDbSpline
210
0.0
220
0.0
230
1.0
 70
    11
 71
     3
 72
    26
 73
    22
 74
     0
 42
0.0000000001
 43
0.0000000001
 12
1.0
 22
0.0
 32
0.0
 13
1.0
 23
0.0
 33
0.0
 40
0.0
 40
0.0
 40
0.0
 40
0.0
 40
1.0
 40
1.0
 40
1.0
 40
2.0
 40
2.0
 40
2.0
 40
3.0
 40
3.0
 40
3.0
 40
4.0
 40
4.0
 40
4.0
 40
5.0
 40
5.0
 40
5.0
 40
6.0
 40
6.0
 40
6.0
 40
7.0
 40
7.0
 40
7.0
 40
7.0
 10
21.9522151811498
 20
-299.0151410908879
 30
0.0
 10
28.37165705669613
 20
-299.0312500578619
 30
0.0
 10
34.79159739367488
 20
-299.098370752677
 30
0.0
 10
41.21019490037784
 20
-299.0278110655506
 30
0.0
 10
42.8253270453251
 20
-299.0100731023055
 30
0.0
 10
43.33165388847083
 20
-299.5189233833469
 30
0.0
 10
43.31748410194831
 20
-301.2532919632915
 30
0.0
 10
43.26039696251838
 20
-308.2389423501174
 30
0.0
 10
43.3362943686494
 20
-315.2258295677223
 30
0.0
 10
43.36314387855109
 20
-322.2122039530538
 30
0.0
 10
43.36314387855109
 20
-322.2122039530538
 30
0.0
 10
43.2092629779113
 20
-322.3715439568613
 30
0.0
 10
43.2092629779113
 20
-322.3715439568613
 30
0.0
 10
36.09281235838473
 20
-322.3453895106293
 30
0.0
 10
28.97631561787198
 20
-322.3192953976071
 30
0.0
 10
21.85982065123708
 20
-322.2932314511879
 30
0.0
 10
21.85982065123708
 20
-322.2932314511879
 30
0.0
 10
21.89065253132679
 20
-322.3288582108456
 30
0.0
 10
21.89065253132679
 20
-322.3288582108456
 30
0.0
 10
21.91122249206173
 20
-314.55763928193
 30
0.0
 10
21.93171794966411
 20
-306.7863901864089
 30
0.0
 10
21.9522151811498
 20
-299.0151410908879
 30
0.0
  0
SPLINE
  5
5A
330
48
100
AcDbEntity
  8
Layer 1
 62
   165
420
  4285358
370
    35
100
AcDbSpline
210
0.0
220
0.0
230
1.0
 70
    11
 71
     3
 72
    17
 73
    13
 74
     0
 42
0.0000000001
 43
0.0000000001
 12
1.0
 22
0.0
 32
0.0
 13
1.0
 23
0.0
 33
0.0
 40
0.0
 40
0.0
 40
0.0
 40
0.0
 40
1.0
 40
1.0
 40
1.0
 40
2.0
 40
2.0
 40
2.0
 40
3.0
 40
3.0
 40
3.0
 40
4.0
 40
4.0
 40
4.0
 40
4.0
 10
43.23670142593258
 20
-137.9646304818212
 30
0.0
 10
36.14733801709428
 20
-137.9569229141084
 30
0.0
 10
29.05797283436657
 20
-137.949215346396
 30
0.0
 10
21.96865022486292
 20
-137.9414021955684
 30
0.0
 10
21.96866796404186
 20
-130.3603535400414
 30
0.0
 10
21.96864135611921
 20
-122.7794481758837
 30
0.0
 10
21.96866086918659
 20
-115.1986634781435
 30
0.0
 10
29.05804556463805
 20
-115.1909860776732
 30
0.0
 10
36.14738768687122
 20
-115.183188010784
 30
0.0
 10
43.23698170064941
 20
-115.1751486110621
 30
0.0
 10
43.23705620344123
 20
-122.7714766516582
 30
0.0
 10
43.23687881468707
 20
-130.3680460250883
 30
0.0
 10
43.23670142593258
 20
-137.9646304818212
 30
0.0
  0
SPLINE
  5
5B
330
48
100
AcDbEntity
  8
Layer 1
 62
   165
420
  4285358
370
    35
100
AcDbSpline
210
0.0
220
0.0
230
1.0
 70
    11
 71
     3
 72
    23
 73
    19
 74
     0
 42
0.0000000001
 43
0.0000000001
 12
1.0
 22
0.0
 32
0.0
 13
1.0
 23
0.0
 33
0.0
 40
0.0
 40
0.0
 40
0.0
 40
0.0
 40
1.0
 40
1.0
 40
1.0
 40
2.0
 40
2.0
 40
2.0
 40
3.0
 40
3.0
 40
3.0
 40
4.0
 40
4.0
 40
4.0
 40
5.0
 40
5.0
 40
5.0
 40
6.0
 40
6.0
 40
6.0
 40
6.0
 10
43.3198788580051
 20
-23.26730008513492
 30
0.0
 10
43.30761067504224
 20
-30.18605602696625
 30
0.0
 10
43.24490387068872
 20
-37.10543604042471
 30
0.0
 10
43.3205671241171
 20
-44.02310598450584
 30
0.0
 10
43.33822081892004
 20
-45.63711735502302
 30
0.0
 10
42.93478280313023
 20
-46.06591678073706
 30
0.0
 10
41.41624574467011
 20
-46.04715315280526
 30
0.0
 10
34.90777972011269
 20
-45.96673652714968
 30
0.0
 10
28.39770478263689
 20
-46.03338586819255
 30
0.0
 10
21.88821700081594
 20
-46.04642538259988
 30
0.0
 10
21.88967868165218
 20
-39.12732629564416
 30
0.0
 10
21.93797090355737
 20
-32.20761633495282
 30
0.0
 10
21.85784810541914
 20
-25.28958062079251
 30
0.0
 10
21.8391141151798
 20
-23.67200016390557
 30
0.0
 10
22.26896703957192
 20
-23.21510997337061
 30
0.0
 10
23.79086738234388
 20
-23.23502370309064
 30
0.0
 10
30.2996793143068
 20
-23.32018402726894
 30
0.0
 10
36.81006468150048
 20
-23.26885366496212
 30
0.0
 10
43.3198788580051
 20
-23.26730008513492
 30
0.0
  0
SPLINE
  5
5C
330
48
100
AcDbEntity
  8
Layer 1
 62
   165
420
  4285358
370
    35
100
AcDbSpline
210
0.0
220
0.0
230
1.0
 70
    11
 71
     3
 72
    20
 73
    16
 74
     0
 42
0.0000000001
 43
0.0000000001
 12
1.0
 22
0.0
 32
0.0
 13
1.0
 23
0.0
 33
0.0
 40
0.0
 40
0.0
 40
0.0
 40
0.0
 40
1.0
 40
1.0
 40
1.0
 40
2.0
 40
2.0
 40
2.0
 40
3.0
 40
3.0
 40
3.0
 40
4.0
 40
4.0
 40
4.0
 40
5.0
 40
5.0
 40
5.0
 40
5.0
 10
433.0379829435618
 20
-45.92868514454999
 30
0.0
 10
433.0134607696708
 20
-38.36483145346102
 30
0.0
 10
432.9889102136341
 20
-30.80098153319775
 30
0.0
 10
432.9643880397406
 20
-23.23712030045932
 30
0.0
 10
439.4628209756527
 20
-23.24872878715835
 30
0.0
 10
445.96173640805
 20
-23.3104176077958
 30
0.0
 10
452.4592894974417
 20
-23.23479747280273
 30
0.0
 10
453.9782451925502
 20
-23.21711795734976
 30
0.0
 10
454.4061060450256
 20
-23.67190214186633
 30
0.0
 10
454.3894741073364
 20
-25.28637355309469
 30
0.0
 10
454.3183200667472
 20
-32.19241238580757
 30
0.0
 10
454.3763615552205
 20
-39.09995389250083
 30
0.0
 10
454.3873170633068
 20
-46.00695617114082
 30
0.0
 10
447.2708628960095
 20
-45.98086959976871
 30
0.0
 10
440.1544371108604
 20
-45.9547792575722
 30
0.0
 10
433.0379829435618
 20
-45.92868514454999
 30
0.0
  0
SPLINE
  5
5D
330
48
100
AcDbEntity
  8
Layer 1
 62
   165
420
  4285358
370
    35
100
AcDbSpline
210
0.0
220
0.0
230
1.0
 70
    11
 71
     3
 72
    20
 73
    16
 74
     0
 42
0.0000000001
 43
0.0000000001
 12
1.0
 22
0.0
 32
0.0
 13
1.0
 23
0.0
 33
0.0
 40
0.0
 40
0.0
 40
0.0
 40
0.0
 40
1.0
 40
1.0
 40
1.0
 40
2.0
 40
2.0
 40
2.0
 40
3.0
 40
3.0
 40
3.0
 40
4.0
 40
4.0
 40
4.0
 40
5.0
 40
5.0
 40
5.0
 40
5.0
 10
21.85982065123708
 20
-322.2932314511879
 30
0.0
 10
28.97631561787198
 20
-322.3192953976071
 30
0.0
 10
36.09281235838473
 20
-322.3453895106293
 30
0.0
 10
43.20925943014404
 20
-322.3715439568613
 30
0.0
 10
43.23372129197337
 20
-329.9353976479483
 30
0.0
 10
43.25822927479498
 20
-337.4992513390379
 30
0.0
 10
43.28274435315173
 20
-345.0630748635207
 30
0.0
 10
36.78432915607946
 20
-345.0514607205816
 30
0.0
 10
30.28538888930271
 20
-344.9897398479299
 30
0.0
 10
23.7878641820587
 20
-345.0653675245718
 30
0.0
 10
22.26889961752922
 20
-345.083014988008
 30
0.0
 10
21.84100506125391
 20
-344.6282835950511
 30
0.0
 10
21.85763877282711
 20
-343.0138272671242
 30
0.0
 10
21.92878749176087
 20
-336.1077563823952
 30
0.0
 10
21.8707495510603
 20
-329.2002375006535
 30
0.0
 10
21.85982065123708
 20
-322.2932314511879
 30
0.0
  0
SPLINE
  5
5E
330
48
100
AcDbEntity
  8
Layer 1
 62
   165
420
  4285358
370
    35
100
AcDbSpline
210
0.0
220
0.0
230
1.0
 70
    11
 71
     3
 72
    23
 73
    19
 74
     0
 42
0.0000000001
 43
0.0000000001
 12
1.0
 22
0.0
 32
0.0
 13
1.0
 23
0.0
 33
0.0
 40
0.0
 40
0.0
 40
0.0
 40
0.0
 40
1.0
 40
1.0
 40
1.0
 40
2.0
 40
2.0
 40
2.0
 40
3.0
 40
3.0
 40
3.0
 40
4.0
 40
4.0
 40
4.0
 40
5.0
 40
5.0
 40
5.0
 40
6.0
 40
6.0
 40
6.0
 40
6.0
 10
432.9643880252909
 20
-345.0631050476215
 30
0.0
 10
432.9644164077446
 20
-338.1618004863669
 30
0.0
 10
433.0053150805894
 20
-331.2600434260472
 30
0.0
 10
432.9342745692044
 20
-324.3596136963117
 30
0.0
 10
432.917642631664
 20
-322.7447350359216
 30
0.0
 10
433.3891836070278
 20
-322.2435169058076
 30
0.0
 10
434.9085366521855
 20
-322.2611945359854
 30
0.0
 10
441.40078228025
 20
-322.3367317133959
 30
0.0
 10
447.8942767227435
 20
-322.2932918035241
 30
0.0
 10
454.3873170509028
 20
-322.2932314706069
 30
0.0
 10
454.3763899243398
 20
-329.2002073534671
 30
0.0
 10
454.3183200531021
 20
-336.1077262352024
 30
0.0
 10
454.3894457109282
 20
-343.0137971199378
 30
0.0
 10
454.4060776484724
 20
-344.6282534478685
 30
0.0
 10
453.9783019423931
 20
-345.0830753405984
 30
0.0
 10
452.4592894829919
 20
-345.0653977104219
 30
0.0
 10
445.9617363936067
 20
-344.9897700331961
 30
0.0
 10
439.4628209612042
 20
-345.0514607386596
 30
0.0
 10
432.9643880252909
 20
-345.0631050476215
 30
0.0
  0
SPLINE
  5
5F
330
48
100
AcDbEntity
  8
Layer 1
 62
   165
420
  4285358
370
    35
100
AcDbSpline
210
0.0
220
0.0
230
1.0
 70
    11
 71
     3
 72
   128
 73
   124
 74
     0
 42
0.0000000001
 43
0.0000000001
 12
1.0
 22
0.0
 32
0.0
 13
1.0
 23
0.0
 33
0.0
 40
0.0
 40
0.0
 40
0.0
 40
0.0
 40
1.0
 40
1.0
 40
1.0
 40
2.0
 40
2.0
 40
2.0
 40
3.0
 40
3.0
 40
3.0
 40
4.0
 40
4.0
 40
4.0
 40
5.0
 40
5.0
 40
5.0
 40
6.0
 40
6.0
 40
6.0
 40
7.0
 40
7.0
 40
7.0
 40
8.0
 40
8.0
 40
8.0
 40
9.0
 40
9.0
 40
9.0
 40
10.0
 40
10.0
 40
10.0
 40
11.0
 40
11.0
 40
11.0
 40
12.0
 40
12.0
 40
12.0
 40
13.0
 40
13.0
 40
13.0
 40
14.0
 40
14.0
 40
14.0
 40
15.0
 40
15.0
 40
15.0
 40
16.0
 40
16.0
 40
16.0
 40
17.0
 40
17.0
 40
17.0
 40
18.0
 40
18.0
 40
18.0
 40
19.0
 40
19.0
 40
19.0
 40
20.0
 40
20.0
 40
20.0
 40
21.0
 40
21.0
 40
21.0
 40
22.0
 40
22.0
 40
22.0
 40
23.0
 40
23.0
 40
23.0
 40
24.0
 40
24.0
 40
24.0
 40
25.0
 40
25.0
 40
25.0
 40
26.0
 40
26.0
 40
26.0
 40
27.0
 40
27.0
 40
27.0
 40
28.0
 40
28.0
 40
28.0
 40
29.0
 40
29.0
 40
29.0
 40
30.0
 40
30.0
 40
30.0
 40
31.0
 40
31.0
 40
31.0
 40
32.0
 40
32.0
 40
32.0
 40
33.0
 40
33.0
 40
33.0
 40
34.0
 40
34.0
 40
34.0
 40
35.0
 40
35.0
 40
35.0
 40
36.0
 40
36.0
 40
36.0
 40
37.0
 40
37.0
 40
37.0
 40
38.0
 40
38.0
 40
38.0
 40
39.0
 40
39.0
 40
39.0
 40
40.0
 40
40.0
 40
40.0
 40
41.0
 40
41.0
 40
41.0
 40
41.0
 10
43.23670142593258
 20
-137.9646153985187
 30
0.0
 10
43.23687881468707
 20
-130.3680460250883
 30
0.0
 10
43.23705620344123
 20
-122.7714766516582
 30
0.0
 10
43.23698524842244
 20
-115.1751486110621
 30
0.0
 10
43.25218388830096
 20
-100.7716810644748
 30
0.0
 10
43.32444838069755
 20
-86.3675498525961
 30
0.0
 10
43.22588783123482
 20
-71.96473088799428
 30
0.0
 10
43.20988739647462
 20
-69.6266531398666
 30
0.0
 10
43.8770629571595
 20
-69.1373659017553
 30
0.0
 10
45.92499444802161
 20
-69.18735950679267
 30
0.0
 10
51.73003736357565
 20
-69.32910483892066
 30
0.0
 10
57.5407425172876
 20
-69.18846058836989
 30
0.0
 10
63.34780766075041
 20
-69.2712226674762
 30
0.0
 10
64.78013395042096
 20
-69.29162283368596
 30
0.0
 10
65.18974508299387
 20
-68.85719356544777
 30
0.0
 10
65.17087805143885
 20
-67.33404400702791
 30
0.0
 10
65.09340898393246
 20
-61.07953783733849
 30
0.0
 10
65.21719061890093
 20
-54.82155873734053
 30
0.0
 10
65.0931464496446
 20
-48.56875320996711
 30
0.0
 10
65.05345401840782
 20
-46.56769299404406
 30
0.0
 10
65.47891657958363
 20
-45.94169070531742
 30
0.0
 10
67.47213084053199
 20
-45.95415328380088
 30
0.0
 10
81.10069104262789
 20
-46.03934377490427
 30
0.0
 10
94.73007432696522
 20
-45.97481740895701
 30
0.0
 10
108.3594150380817
 20
-45.95828988124896
 30
0.0
 10
122.7941913868284
 20
-45.98037937788158
 30
0.0
 10
137.2287264873306
 20
-46.00273660312735
 30
0.0
 10
151.6633467342754
 20
-46.02498070360753
 30
0.0
 10
151.6594016156173
 20
-53.76906100114834
 30
0.0
 10
151.6553855415993
 20
-61.51324688180399
 30
0.0
 10
151.6513694675764
 20
-69.25743653328469
 30
0.0
 10
144.9865178179923
 20
-69.25065658867328
 30
0.0
 10
138.3209991879683
 20
-69.29414929009641
 30
0.0
 10
131.6572544420826
 20
-69.1990339864979
 30
0.0
 10
130.1363261878169
 20
-69.1773291146498
 30
0.0
 10
129.7185977614573
 20
-69.62049161482608
 30
0.0
 10
129.7397282691618
 20
-71.23713502156639
 30
0.0
 10
129.8302247416991
 20
-78.15505384013477
 30
0.0
 10
129.7883468848129
 20
-85.0749334879761
 30
0.0
 10
129.7947328673742
 20
-91.99408913731462
 30
0.0
 10
123.2880691090881
 20
-91.98691702685511
 30
0.0
 10
116.7808022301977
 20
-92.02896173127937
 30
0.0
 10
110.275252471151
 20
-91.93570921550283
 30
0.0
 10
108.7719637206895
 20
-91.91415517667626
 30
0.0
 10
108.3418748697079
 20
-92.32973031723697
 30
0.0
 10
108.3491477945709
 20
-93.96128356814319
 30
0.0
 10
108.4115317510794
 20
-107.957351123913
 30
0.0
 10
108.4116381834981
 20
-121.9540069284649
 30
0.0
 10
108.3490413596378
 20
-135.9500744842312
 30
0.0
 10
108.3417258614063
 20
-137.5835357728567
 30
0.0
 10
108.7747522644771
 20
-137.9958378368929
 30
0.0
 10
110.2762529397364
 20
-137.9744798811275
 30
0.0
 10
116.7818310809378
 20
-137.8818985728805
 30
0.0
 10
123.2891050553614
 20
-137.9241318191679
 30
0.0
 10
129.7957546225708
 20
-137.9173292501933
 30
0.0
 10
129.7890138625586
 20
-144.9143071969276
 30
0.0
 10
129.8457639633758
 20
-151.9124314746276
 30
0.0
 10
129.7323630983129
 20
-158.9074636753805
 30
0.0
 10
129.7027747109183
 20
-160.7322717349627
 30
0.0
 10
130.111335704039
 20
-161.2276526271867
 30
0.0
 10
131.8751441735787
 20
-161.2156161521565
 30
0.0
 10
144.8860875898818
 20
-161.126624670111
 30
0.0
 10
157.8980243812892
 20
-161.2064153390205
 30
0.0
 10
170.9090103708106
 20
-161.1210589327902
 30
0.0
 10
172.64775740534
 20
-161.1096710397518
 30
0.0
 10
173.0761575185909
 20
-161.5650359313985
 30
0.0
 10
173.0654148762113
 20
-163.4130722762767
 30
0.0
 10
172.985107593188
 20
-177.2420922608336
 30
0.0
 10
173.0602209422295
 20
-191.0721228266401
 30
0.0
 10
172.9764794195335
 20
-204.9010975612912
 30
0.0
 10
172.9651123699323
 20
-206.7758615175634
 30
0.0
 10
173.4312891196479
 20
-207.2100192864019
 30
0.0
 10
175.1480967552427
 20
-207.1785856848172
 30
0.0
 10
181.7293346024171
 20
-207.0580701010082
 30
0.0
 10
188.3134958106338
 20
-207.1183580599621
 30
0.0
 10
194.8965643062253
 20
-207.1111934917395
 30
0.0
 10
194.8969048916311
 20
-214.868415116271
 30
0.0
 10
194.8972454770373
 20
-222.6256367408009
 30
0.0
 10
194.8975860624396
 20
-230.3828583653308
 30
0.0
 10
188.2358848310727
 20
-230.3760708790693
 30
0.0
 10
181.5736159567782
 20
-230.4173689600308
 30
0.0
 10
174.9129506737451
 20
-230.3257529825291
 30
0.0
 10
173.4113080877571
 20
-230.3050888585306
 30
0.0
 10
172.9785513150381
 20
-230.7170440065766
 30
0.0
 10
172.9858597175884
 20
-232.350279045672
 30
0.0
 10
173.0484423491165
 20
-246.346587934276
 30
0.0
 10
173.048442348488
 20
-260.343454905058
 30
0.0
 10
172.9858739067741
 20
-274.3397939602611
 30
0.0
 10
172.9785513130062
 20
-275.9730440826586
 30
0.0
 10
173.4113222767596
 20
-276.3849992307431
 30
0.0
 10
174.9129506716782
 20
-276.3643351068787
 30
0.0
 10
181.5736159547193
 20
-276.272719129975
 30
0.0
 10
188.2358990200812
 20
-276.3140172115359
 30
0.0
 10
194.8975860603778
 20
-276.3071995592657
 30
0.0
 10
194.9015879426412
 20
-283.8866192181651
 30
0.0
 10
194.905561442753
 20
-291.4660087104555
 30
0.0
 10
194.9095349428696
 20
-299.0454283693526
 30
0.0
 10
152.4587279852894
 20
-299.0513108552819
 30
0.0
 10
110.0079068366437
 20
-299.0438597021177
 30
0.0
 10
67.55717083442971
 20
-299.1056409057794
 30
0.0
 10
65.6047275263572
 20
-299.1085067330991
 30
0.0
 10
65.05810158352293
 20
-298.4943146699049
 30
0.0
 10
65.09732570952734
 20
-296.4591548786706
 30
0.0
 10
65.21311067482247
 20
-290.4512041366072
 30
0.0
 10
65.09660196534013
 20
-284.4385474042664
 30
0.0
 10
65.16586859317457
 20
-278.4289676655701
 30
0.0
 10
65.18438084804326
 20
-276.8238328183647
 30
0.0
 10
64.70547470580365
 20
-276.2776362812253
 30
0.0
 10
63.17708194711161
 20
-276.2981194054643
 30
0.0
 10
57.52303914435149
 20
-276.3739280817688
 30
0.0
 10
51.86431683526618
 20
-276.2100027538506
 30
0.0
 10
46.21416238651821
 20
-276.3848182254065
 30
0.0
 10
43.90818397104992
 20
-276.4561622444288
 30
0.0
 10
43.21793372563685
 20
-275.8533429910439
 30
0.0
 10
43.22408555591621
 20
-273.2796489801772
 30
0.0
 10
43.31086396925525
 20
-236.9699174029833
 30
0.0
 10
43.28348229543263
 20
-200.6598841597408
 30
0.0
 10
43.28116205662001
 20
-164.3499263330114
 30
0.0
 10
43.28109464907169
 20
-163.2799922956631
 30
0.0
 10
43.25251028022662
 20
-162.2100431750097
 30
0.0
 10
43.23697105528266
 20
-161.1403504704963
 30
0.0
 10
43.23671561631498
 20
-153.4152713628266
 30
0.0
 10
43.23670852112699
 20
-145.6899358390224
 30
0.0
 10
43.23670142593258
 20
-137.9646153985187
 30
0.0
  0
SPLINE
  5
60
330
48
100
AcDbEntity
  8
Layer 1
 62
   165
420
  4285358
370
    35
100
AcDbSpline
210
0.0
220
0.0
230
1.0
 70
    11
 71
     3
 72
   110
 73
   106
 74
     0
 42
0.0000000001
 43
0.0000000001
 12
1.0
 22
0.0
 32
0.0
 13
1.0
 23
0.0
 33
0.0
 40
0.0
 40
0.0
 40
0.0
 40
0.0
 40
1.0
 40
1.0
 40
1.0
 40
2.0
 40
2.0
 40
2.0
 40
3.0
 40
3.0
 40
3.0
 40
4.0
 40
4.0
 40
4.0
 40
5.0
 40
5.0
 40
5.0
 40
6.0
 40
6.0
 40
6.0
 40
7.0
 40
7.0
 40
7.0
 40
8.0
 40
8.0
 40
8.0
 40
9.0
 40
9.0
 40
9.0
 40
10.0
 40
10.0
 40
10.0
 40
11.0
 40
11.0
 40
11.0
 40
12.0
 40
12.0
 40
12.0
 40
13.0
 40
13.0
 40
13.0
 40
14.0
 40
14.0
 40
14.0
 40
15.0
 40
15.0
 40
15.0
 40
16.0
 40
16.0
 40
16.0
 40
17.0
 40
17.0
 40
17.0
 40
18.0
 40
18.0
 40
18.0
 40
19.0
 40
19.0
 40
19.0
 40
20.0
 40
20.0
 40
20.0
 40
21.0
 40
21.0
 40
21.0
 40
22.0
 40
22.0
 40
22.0
 40
23.0
 40
23.0
 40
23.0
 40
24.0
 40
24.0
 40
24.0
 40
25.0
 40
25.0
 40
25.0
 40
26.0
 40
26.0
 40
26.0
 40
27.0
 40
27.0
 40
27.0
 40
28.0
 40
28.0
 40
28.0
 40
29.0
 40
29.0
 40
29.0
 40
30.0
 40
30.0
 40
30.0
 40
31.0
 40
31.0
 40
31.0
 40
32.0
 40
32.0
 40
32.0
 40
33.0
 40
33.0
 40
33.0
 40
34.0
 40
34.0
 40
34.0
 40
35.0
 40
35.0
 40
35.0
 40
35.0
 10
303.1932974394262
 20
-46.02511268930488
 30
0.0
 10
331.243940075426
 20
-46.01921889025358
 30
0.0
 10
359.2946678578659
 20
-46.03533539984985
 30
0.0
 10
387.3451402009896
 20
-45.96136688741224
 30
0.0
 10
389.3655232712975
 20
-45.9560424818467
 30
0.0
 10
389.7906878198767
 20
-46.69460014200896
 30
0.0
 10
389.7557777800865
 20
-48.66125911657124
 30
0.0
 10
389.6505083999226
 20
-54.58906850353617
 30
0.0
 10
389.8284928378659
 20
-60.52382375114964
 30
0.0
 10
389.6633655115743
 20
-66.44854860282331
 30
0.0
 10
389.5973202574873
 20
-68.81830128544314
 30
0.0
 10
390.3694281600362
 20
-69.33629204759346
 30
0.0
 10
392.43068152073
 20
-69.28322144910422
 30
0.0
 10
397.7742449317441
 20
-69.14563156721609
 30
0.0
 10
403.1262378401356
 20
-69.35244626475874
 30
0.0
 10
408.468069940234
 20
-69.18138653542147
 30
0.0
 10
410.6653305450519
 20
-69.11102293103397
 30
0.0
 10
411.1525668471583
 20
-69.88282795994309
 30
0.0
 10
411.1507220075621
 20
-72.10151382997654
 30
0.0
 10
411.0982434165859
 20
-135.1892124046391
 30
0.0
 10
411.0323116851513
 20
-269.7677132594646
 30
0.0
 10
411.1435696976794
 20
-273.9647627465286
 30
0.0
 10
411.1919044924108
 20
-275.7871574777716
 30
0.0
 10
410.6915272565972
 20
-276.4021942058372
 30
0.0
 10
408.925930711853
 20
-276.3677439436686
 30
0.0
 10
403.3486687098491
 20
-276.258842501963
 30
0.0
 10
397.7668655644503
 20
-276.4038232018875
 30
0.0
 10
392.1899725303423
 20
-276.285298613416
 30
0.0
 10
390.3048303862183
 20
-276.2452373628453
 30
0.0
 10
389.6264403300552
 20
-276.7620214607595
 30
0.0
 10
389.6732141067363
 20
-278.8770020869259
 30
0.0
 10
389.8024380176763
 20
-284.7213291673779
 30
0.0
 10
389.6483797283683
 20
-290.5724437337808
 30
0.0
 10
389.7564305583178
 20
-296.4177361455698
 30
0.0
 10
389.7930151445589
 20
-298.3965447200094
 30
0.0
 10
389.3452300254655
 20
-299.1111010756024
 30
0.0
 10
387.3370512779862
 20
-299.1080240818746
 30
0.0
 10
344.8737845582713
 20
-299.0427435483051
 30
0.0
 10
302.4103759278273
 20
-299.0512806954092
 30
0.0
 10
259.9469389152347
 20
-299.0455188720851
 30
0.0
 10
259.9509124160315
 20
-291.4661595463977
 30
0.0
 10
259.9549426811183
 20
-283.886679554292
 30
0.0
 10
259.9589729462043
 20
-276.3071995621867
 30
0.0
 10
266.4656934687794
 20
-276.314017215048
 30
0.0
 10
272.9730383985763
 20
-276.271753802741
 30
0.0
 10
279.4786803995935
 20
-276.3644256113861
 30
0.0
 10
280.9805784249004
 20
-276.3857835672842
 30
0.0
 10
281.4129236564985
 20
-275.9726519216713
 30
0.0
 10
281.4056294450198
 20
-274.3396732987121
 30
0.0
 10
281.3431035777871
 20
-260.3434549099194
 30
0.0
 10
281.3431319605617
 20
-246.3466633556488
 30
0.0
 10
281.4056578290521
 20
-232.3504449668613
 30
0.0
 10
281.4129520406734
 20
-230.7174814272073
 30
0.0
 10
280.9806919555515
 20
-230.3043045316484
 30
0.0
 10
279.4787087838074
 20
-230.325707737318
 30
0.0
 10
272.9730667827819
 20
-230.4183946286807
 30
0.0
 10
266.4657218529882
 20
-230.3761010491849
 30
0.0
 10
259.9590013304096
 20
-230.382918701461
 30
0.0
 10
259.9590013307577
 20
-222.6260138262756
 30
0.0
 10
259.9590013311062
 20
-214.8691240343911
 30
0.0
 10
259.9590013314543
 20
-207.1122342425079
 30
0.0
 10
273.7537744766673
 20
-207.1190368123936
 30
0.0
 10
287.5486327683174
 20
-207.1000167690124
 30
0.0
 10
301.3431220920609
 20
-207.169354709574
 30
0.0
 10
302.8604883869914
 20
-207.1769717772225
 30
0.0
 10
303.2818497280463
 20
-206.7516829900838
 30
0.0
 10
303.2612726721972
 20
-205.1335463364296
 30
0.0
 10
303.1712445050767
 20
-198.0508801502318
 30
0.0
 10
303.2119445029053
 20
-190.9663587178734
 30
0.0
 10
303.2052179345966
 20
-183.8825009508087
 30
0.0
 10
309.7150604932473
 20
-183.8893035203669
 30
0.0
 10
316.2256126055507
 20
-183.8448228626464
 30
0.0
 10
322.7342631140551
 20
-183.9410241639916
 30
0.0
 10
324.2553474701285
 20
-183.9634832009477
 30
0.0
 10
324.6729339857536
 20
-183.5194157026419
 30
0.0
 10
324.6518176691252
 20
-181.9028627957137
 30
0.0
 10
324.5613353876576
 20
-174.9849666021004
 30
0.0
 10
324.6031990534728
 20
-168.0651095792132
 30
0.0
 10
324.5967563066191
 20
-161.1459765548253
 30
0.0
 10
331.2590109898352
 20
-161.1531260403406
 30
0.0
 10
337.9218333159777
 20
-161.1116318764502
 30
0.0
 10
344.5830378597907
 20
-161.2045450179361
 30
0.0
 10
346.0898459963672
 20
-161.2255560578847
 30
0.0
 10
346.510355873043
 20
-160.8040230129775
 30
0.0
 10
346.5064675190989
 20
-159.176595045208
 30
0.0
 10
346.4543011355362
 20
-137.4389623325302
 30
0.0
 10
346.4543011365129
 20
-115.7011033703203
 30
0.0
 10
346.5064391398793
 20
-93.96347819929805
 30
0.0
 10
346.5103558761167
 20
-92.33608793978159
 30
0.0
 10
346.0899027637722
 20
-91.91447193667655
 30
0.0
 10
344.5830662450435
 20
-91.93549051814144
 30
0.0
 10
337.9218900833699
 20
-92.02840365902955
 30
0.0
 10
331.2590393750868
 20
-91.98691703619214
 30
0.0
 10
324.5968130740125
 20
-91.99408914606065
 30
0.0
 10
324.6031990571986
 20
-85.07493349672278
 30
0.0
 10
324.5613353920057
 20
-78.15507647383014
 30
0.0
 10
324.6517892919462
 20
-71.23715765526946
 30
0.0
 10
324.6729339908679
 20
-69.62060474834509
 30
0.0
 10
324.2553474752813
 20
-69.17653725000172
 30
0.0
 10
322.7342631192067
 20
-69.19900382847318
 30
0.0
 10
316.2255842285463
 20
-69.295197587584
 30
0.0
 10
309.715060498395
 20
-69.25070184597459
 30
0.0
 10
303.2051895575967
 20
-69.25750441494978
 30
0.0
 10
303.2012160574919
 20
-61.51337509667628
 30
0.0
 10
303.197270939531
 20
-53.76924200757901
 30
0.0
 10
303.1932974394262
 20
-46.02511268930488
 30
0.0
  0
SPLINE
  5
61
330
48
100
AcDbEntity
  8
Layer 1
 62
   165
420
  4285358
370
    35
100
AcDbSpline
210
0.0
220
0.0
230
1.0
 70
    11
 71
     3
 72
    23
 73
    19
 74
     0
 42
0.0000000001
 43
0.0000000001
 12
1.0
 22
0.0
 32
0.0
 13
1.0
 23
0.0
 33
0.0
 40
0.0
 40
0.0
 40
0.0
 40
0.0
 40
1.0
 40
1.0
 40
1.0
 40
2.0
 40
2.0
 40
2.0
 40
3.0
 40
3.0
 40
3.0
 40
4.0
 40
4.0
 40
4.0
 40
5.0
 40
5.0
 40
5.0
 40
6.0
 40
6.0
 40
6.0
 40
6.0
 10
303.1932974394262
 20
-46.02511268930488
 30
0.0
 10
303.197270939531
 20
-53.76924200757901
 30
0.0
 10
303.2012160574919
 20
-61.51337509667628
 30
0.0
 10
303.2051895575967
 20
-69.25750441494978
 30
0.0
 10
303.2051895575967
 20
-69.25750441494978
 30
0.0
 10
303.2426539904557
 20
-69.21876295340172
 30
0.0
 10
303.2426539904557
 20
-69.21876295340172
 30
0.0
 10
252.69972821116
 20
-69.21875540948129
 30
0.0
 10
202.1568166229461
 20
-69.21875540721224
 30
0.0
 10
151.6139050347219
 20
-69.21874786329309
 30
0.0
 10
151.6139050347219
 20
-69.21874786329309
 30
0.0
 10
151.6513694675764
 20
-69.25743653328469
 30
0.0
 10
151.6513694675764
 20
-69.25743653328469
 30
0.0
 10
151.6553855415993
 20
-61.51324688180399
 30
0.0
 10
151.6594016156173
 20
-53.76906100114834
 30
0.0
 10
151.6633467342754
 20
-46.02498070360753
 30
0.0
 10
202.1732782687215
 20
-46.02509760146722
 30
0.0
 10
252.6832949496084
 20
-46.02510514538573
 30
0.0
 10
303.1932974394262
 20
-46.02511268930488
 30
0.0
  0
SPLINE
  5
62
330
48
100
AcDbEntity
  8
Layer 1
 62
   165
420
  4285358
370
    35
100
AcDbSpline
210
0.0
220
0.0
230
1.0
 70
    11
 71
     3
 72
    23
 73
    19
 74
     0
 42
0.0000000001
 43
0.0000000001
 12
1.0
 22
0.0
 32
0.0
 13
1.0
 23
0.0
 33
0.0
 40
0.0
 40
0.0
 40
0.0
 40
0.0
 40
1.0
 40
1.0
 40
1.0
 40
2.0
 40
2.0
 40
2.0
 40
3.0
 40
3.0
 40
3.0
 40
4.0
 40
4.0
 40
4.0
 40
5.0
 40
5.0
 40
5.0
 40
6.0
 40
6.0
 40
6.0
 40
6.0
 10
259.9589729462043
 20
-276.3071995621867
 30
0.0
 10
259.9549426811183
 20
-283.886679554292
 30
0.0
 10
259.9509124160315
 20
-291.4661595463977
 30
0.0
 10
259.9469389152347
 20
-299.0455188720851
 30
0.0
 10
238.267889404218
 20
-299.045488704508
 30
0.0
 10
216.5887831289062
 20
-299.0455792033467
 30
0.0
 10
194.9096058982343
 20
-299.0455188691641
 30
0.0
 10
194.905561442753
 20
-291.4660087104555
 30
0.0
 10
194.9015879426412
 20
-283.8866192181651
 30
0.0
 10
194.8975860603778
 20
-276.3071995592657
 30
0.0
 10
194.8975860603778
 20
-276.3071995592657
 30
0.0
 10
194.8601216275233
 20
-276.3459636457673
 30
0.0
 10
194.8601216275233
 20
-276.3459636457673
 30
0.0
 10
216.5722221476738
 20
-276.3459636467413
 30
0.0
 10
238.2843226678278
 20
-276.3459636477167
 30
0.0
 10
259.9964089969128
 20
-276.3459636486908
 30
0.0
 10
259.9964089969128
 20
-276.3459636486908
 30
0.0
 10
259.9589729462043
 20
-276.3071995621867
 30
0.0
 10
259.9589729462043
 20
-276.3071995621867
 30
0.0
  0
SPLINE
  5
63
330
48
100
AcDbEntity
  8
Layer 1
 62
   165
420
  4285358
370
    35
100
AcDbSpline
210
0.0
220
0.0
230
1.0
 70
    11
 71
     3
 72
    65
 73
    61
 74
     0
 42
0.0000000001
 43
0.0000000001
 12
1.0
 22
0.0
 32
0.0
 13
1.0
 23
0.0
 33
0.0
 40
0.0
 40
0.0
 40
0.0
 40
0.0
 40
1.0
 40
1.0
 40
1.0
 40
2.0
 40
2.0
 40
2.0
 40
3.0
 40
3.0
 40
3.0
 40
4.0
 40
4.0
 40
4.0
 40
5.0
 40
5.0
 40
5.0
 40
6.0
 40
6.0
 40
6.0
 40
7.0
 40
7.0
 40
7.0
 40
8.0
 40
8.0
 40
8.0
 40
9.0
 40
9.0
 40
9.0
 40
10.0
 40
10.0
 40
10.0
 40
11.0
 40
11.0
 40
11.0
 40
12.0
 40
12.0
 40
12.0
 40
13.0
 40
13.0
 40
13.0
 40
14.0
 40
14.0
 40
14.0
 40
15.0
 40
15.0
 40
15.0
 40
16.0
 40
16.0
 40
16.0
 40
17.0
 40
17.0
 40
17.0
 40
18.0
 40
18.0
 40
18.0
 40
19.0
 40
19.0
 40
19.0
 40
20.0
 40
20.0
 40
20.0
 40
20.0
 10
194.8965643062253
 20
-207.1111934917395
 30
0.0
 10
188.3134958106338
 20
-207.1183580599621
 30
0.0
 10
181.7293346024171
 20
-207.0580701010082
 30
0.0
 10
175.1480967552427
 20
-207.1785856848172
 30
0.0
 10
173.4312891196479
 20
-207.2100192864019
 30
0.0
 10
172.9651123699323
 20
-206.7758615175634
 30
0.0
 10
172.9764794195335
 20
-204.9010975612912
 30
0.0
 10
173.0602209422295
 20
-191.0721228266401
 30
0.0
 10
172.985107593188
 20
-177.2420922608336
 30
0.0
 10
173.0654148762113
 20
-163.4130722762767
 30
0.0
 10
173.0761575185909
 20
-161.5650359313985
 30
0.0
 10
172.64775740534
 20
-161.1096710397518
 30
0.0
 10
170.9090103708106
 20
-161.1210589327902
 30
0.0
 10
157.8980243812892
 20
-161.2064153390205
 30
0.0
 10
144.8860875898818
 20
-161.126624670111
 30
0.0
 10
131.8751441735787
 20
-161.2156161521565
 30
0.0
 10
130.111335704039
 20
-161.2276526271867
 30
0.0
 10
129.7027747109183
 20
-160.7322717349627
 30
0.0
 10
129.7323630983129
 20
-158.9074636753805
 30
0.0
 10
129.8457639633758
 20
-151.9124314746276
 30
0.0
 10
129.7890138625586
 20
-144.9143071969276
 30
0.0
 10
129.7957546225708
 20
-137.9173292501933
 30
0.0
 10
129.7957546225708
 20
-137.9173292501933
 30
0.0
 10
129.7582901897176
 20
-137.9560631700887
 30
0.0
 10
129.7582901897176
 20
-137.9560631700887
 30
0.0
 10
150.7592476571296
 20
-137.9499695169678
 30
0.0
 10
171.7602618888322
 20
-137.9204213290177
 30
0.0
 10
192.7610490633598
 20
-137.9817500364633
 30
0.0
 10
194.4627715882991
 20
-137.9867275262453
 30
0.0
 10
194.966767547732
 20
-137.6143962129269
 30
0.0
 10
194.9261526967427
 20
-135.7243076216769
 30
0.0
 10
194.7952116659716
 20
-129.6323278033767
 30
0.0
 10
194.9522216984833
 20
-123.5335152492212
 30
0.0
 10
194.8319239725056
 20
-117.4410301402992
 30
0.0
 10
194.7956515898677
 20
-115.6034993153594
 30
0.0
 10
195.2192693115433
 20
-115.1483305066785
 30
0.0
 10
196.9696955991904
 20
-115.1547409101666
 30
0.0
 10
217.2730624886204
 20
-115.229086507331
 30
0.0
 10
237.5768551102401
 20
-115.2283700513898
 30
0.0
 10
257.8802361907482
 20
-115.1556911609368
 30
0.0
 10
259.6172519143671
 20
-115.1494768405319
 30
0.0
 10
260.0350654871179
 20
-115.5859046463417
 30
0.0
 10
260.0239680679093
 20
-117.4332848675763
 30
0.0
 10
259.9414327864276
 20
-131.1880195890907
 30
0.0
 10
259.9313287417996
 20
-144.9439609747794
 30
0.0
 10
260.0305527239565
 20
-158.6984392801645
 30
0.0
 10
260.0454817327113
 20
-160.7706134948549
 30
0.0
 10
259.5561167695915
 20
-161.2267627181708
 30
0.0
 10
257.6390730932468
 20
-161.2188892343683
 30
0.0
 10
237.4132604180452
 20
-161.1358405718736
 30
0.0
 10
217.1869226731341
 20
-161.1953441979102
 30
0.0
 10
196.9610674247142
 20
-161.1187361054288
 30
0.0
 10
195.1930583975509
 20
-161.1120391191995
 30
0.0
 10
194.825992101989
 20
-161.6005721922172
 30
0.0
 10
194.8347479939764
 20
-163.4146711072802
 30
0.0
 10
194.9051073335099
 20
-177.9931200420053
 30
0.0
 10
194.8658548247992
 20
-192.5721572255104
 30
0.0
 10
194.8601216306301
 20
-207.1510134093877
 30
0.0
 10
194.8601216306301
 20
-207.1510134093877
 30
0.0
 10
194.8965643062253
 20
-207.1111934917395
 30
0.0
 10
194.8965643062253
 20
-207.1111934917395
 30
0.0
  0
SPLINE
  5
64
330
48
100
AcDbEntity
  8
Layer 1
 62
   165
420
  4285358
370
    35
100
AcDbSpline
210
0.0
220
0.0
230
1.0
 70
    11
 71
     3
 72
    29
 73
    25
 74
     0
 42
0.0000000001
 43
0.0000000001
 12
1.0
 22
0.0
 32
0.0
 13
1.0
 23
0.0
 33
0.0
 40
0.0
 40
0.0
 40
0.0
 40
0.0
 40
1.0
 40
1.0
 40
1.0
 40
2.0
 40
2.0
 40
2.0
 40
3.0
 40
3.0
 40
3.0
 40
4.0
 40
4.0
 40
4.0
 40
5.0
 40
5.0
 40
5.0
 40
6.0
 40
6.0
 40
6.0
 40
7.0
 40
7.0
 40
7.0
 40
8.0
 40
8.0
 40
8.0
 40
8.0
 10
259.9590013314543
 20
-207.1122342425079
 30
0.0
 10
259.9590013311062
 20
-214.8691240343911
 30
0.0
 10
259.9590013307577
 20
-222.6260138262756
 30
0.0
 10
259.9590013304096
 20
-230.3829036181588
 30
0.0
 10
259.9590013304096
 20
-230.3829036181588
 30
0.0
 10
259.9964089989781
 20
-230.3441244483558
 30
0.0
 10
259.9964089989781
 20
-230.3441244483558
 30
0.0
 10
238.2843226698931
 20
-230.3441244473817
 30
0.0
 10
216.5722221497391
 20
-230.3441244464063
 30
0.0
 10
194.8601216295886
 20
-230.3441244454322
 30
0.0
 10
194.8601216295886
 20
-230.3441244454322
 30
0.0
 10
194.8975860624396
 20
-230.3828583653308
 30
0.0
 10
194.8975860624396
 20
-230.3828583653308
 30
0.0
 10
194.8972454770373
 20
-222.6256367408009
 30
0.0
 10
194.8969048916311
 20
-214.868415116271
 30
0.0
 10
194.8965643062253
 20
-207.1111934917395
 30
0.0
 10
194.8965643062253
 20
-207.1111934917395
 30
0.0
 10
194.8601216306301
 20
-207.1510134093877
 30
0.0
 10
194.8601216306301
 20
-207.1510134093877
 30
0.0
 10
216.5722221507806
 20
-207.1510134103624
 30
0.0
 10
238.2843226709346
 20
-207.1510134113371
 30
0.0
 10
259.9964090000196
 20
-207.1510134123119
 30
0.0
 10
259.9964090000196
 20
-207.1510134123119
 30
0.0
 10
259.9590013314543
 20
-207.1122342425079
 30
0.0
 10
259.9590013314543
 20
-207.1122342425079
 30
0.0
  0
SPLINE
  5
65
330
48
100
AcDbEntity
  8
Layer 1
 62
   165
420
  4285358
370
    35
100
AcDbSpline
210
0.0
220
0.0
230
1.0
 70
    11
 71
     3
 72
    29
 73
    25
 74
     0
 42
0.0000000001
 43
0.0000000001
 12
1.0
 22
0.0
 32
0.0
 13
1.0
 23
0.0
 33
0.0
 40
0.0
 40
0.0
 40
0.0
 40
0.0
 40
1.0
 40
1.0
 40
1.0
 40
2.0
 40
2.0
 40
2.0
 40
3.0
 40
3.0
 40
3.0
 40
4.0
 40
4.0
 40
4.0
 40
5.0
 40
5.0
 40
5.0
 40
6.0
 40
6.0
 40
6.0
 40
7.0
 40
7.0
 40
7.0
 40
8.0
 40
8.0
 40
8.0
 40
8.0
 10
194.8975860603778
 20
-276.3071995592657
 30
0.0
 10
188.2358990200812
 20
-276.3140172115359
 30
0.0
 10
181.5736159547193
 20
-276.272719129975
 30
0.0
 10
174.9129506716782
 20
-276.3643351068787
 30
0.0
 10
173.4113222767596
 20
-276.3849992307431
 30
0.0
 10
172.9785513130062
 20
-275.9730440826586
 30
0.0
 10
172.9858739067741
 20
-274.3397939602611
 30
0.0
 10
173.048442348488
 20
-260.343454905058
 30
0.0
 10
173.0484423491165
 20
-246.346587934276
 30
0.0
 10
172.9858597175884
 20
-232.350279045672
 30
0.0
 10
172.9785513150381
 20
-230.7170440065766
 30
0.0
 10
173.4113080877571
 20
-230.3050888585306
 30
0.0
 10
174.9129506737451
 20
-230.3257529825291
 30
0.0
 10
181.5736159567782
 20
-230.4173689600308
 30
0.0
 10
188.2358848310727
 20
-230.3760708790693
 30
0.0
 10
194.8975860624396
 20
-230.3828583653308
 30
0.0
 10
194.8975860624396
 20
-230.3828583653308
 30
0.0
 10
194.8601216295886
 20
-230.3441244454322
 30
0.0
 10
194.8601216295886
 20
-230.3441244454322
 30
0.0
 10
194.8601216289004
 20
-245.6780658177763
 30
0.0
 10
194.8601216282119
 20
-261.0120071901197
 30
0.0
 10
194.8601216275233
 20
-276.3459636457673
 30
0.0
 10
194.8601216275233
 20
-276.3459636457673
 30
0.0
 10
194.8975860603778
 20
-276.3071995592657
 30
0.0
 10
194.8975860603778
 20
-276.3071995592657
 30
0.0
  0
SPLINE
  5
66
330
48
100
AcDbEntity
  8
Layer 1
 62
   165
420
  4285358
370
    35
100
AcDbSpline
210
0.0
220
0.0
230
1.0
 70
    11
 71
     3
 72
    29
 73
    25
 74
     0
 42
0.0000000001
 43
0.0000000001
 12
1.0
 22
0.0
 32
0.0
 13
1.0
 23
0.0
 33
0.0
 40
0.0
 40
0.0
 40
0.0
 40
0.0
 40
1.0
 40
1.0
 40
1.0
 40
2.0
 40
2.0
 40
2.0
 40
3.0
 40
3.0
 40
3.0
 40
4.0
 40
4.0
 40
4.0
 40
5.0
 40
5.0
 40
5.0
 40
6.0
 40
6.0
 40
6.0
 40
7.0
 40
7.0
 40
7.0
 40
8.0
 40
8.0
 40
8.0
 40
8.0
 10
129.7957546225708
 20
-137.9173292501933
 30
0.0
 10
123.2891050553614
 20
-137.9241318191679
 30
0.0
 10
116.7818310809378
 20
-137.8818985728805
 30
0.0
 10
110.2762529397364
 20
-137.9744798811275
 30
0.0
 10
108.7747522644771
 20
-137.9958378368929
 30
0.0
 10
108.3417258614063
 20
-137.5835357728567
 30
0.0
 10
108.3490413596378
 20
-135.9500744842312
 30
0.0
 10
108.4116381834981
 20
-121.9540069284649
 30
0.0
 10
108.4115317510794
 20
-107.957351123913
 30
0.0
 10
108.3491477945709
 20
-93.96128356814319
 30
0.0
 10
108.3418748697079
 20
-92.32973031723697
 30
0.0
 10
108.7719637206895
 20
-91.91415517667626
 30
0.0
 10
110.275252471151
 20
-91.93570921550283
 30
0.0
 10
116.7808022301977
 20
-92.02896173127937
 30
0.0
 10
123.2880691090881
 20
-91.98691702685511
 30
0.0
 10
129.7947186763029
 20
-91.99408913731462
 30
0.0
 10
129.7947186763029
 20
-91.99408913731462
 30
0.0
 10
129.7582901917829
 20
-91.95423151140666
 30
0.0
 10
129.7582901917829
 20
-91.95423151140666
 30
0.0
 10
129.7582901910947
 20
-107.2881728837498
 30
0.0
 10
129.7582901904061
 20
-122.6221217977459
 30
0.0
 10
129.7582901897176
 20
-137.9560631700887
 30
0.0
 10
129.7582901897176
 20
-137.9560631700887
 30
0.0
 10
129.7957546225708
 20
-137.9173292501933
 30
0.0
 10
129.7957546225708
 20
-137.9173292501933
 30
0.0
  0
SPLINE
  5
67
330
48
100
AcDbEntity
  8
Layer 1
 62
   165
420
  4285358
370
    35
100
AcDbSpline
210
0.0
220
0.0
230
1.0
 70
    11
 71
     3
 72
    29
 73
    25
 74
     0
 42
0.0000000001
 43
0.0000000001
 12
1.0
 22
0.0
 32
0.0
 13
1.0
 23
0.0
 33
0.0
 40
0.0
 40
0.0
 40
0.0
 40
0.0
 40
1.0
 40
1.0
 40
1.0
 40
2.0
 40
2.0
 40
2.0
 40
3.0
 40
3.0
 40
3.0
 40
4.0
 40
4.0
 40
4.0
 40
5.0
 40
5.0
 40
5.0
 40
6.0
 40
6.0
 40
6.0
 40
7.0
 40
7.0
 40
7.0
 40
8.0
 40
8.0
 40
8.0
 40
8.0
 10
129.7947328673742
 20
-91.99409667896568
 30
0.0
 10
129.7883468848129
 20
-85.0749334879761
 30
0.0
 10
129.8302247416991
 20
-78.15505384013477
 30
0.0
 10
129.7397282691618
 20
-71.23713502156639
 30
0.0
 10
129.7185977614573
 20
-69.62049161482608
 30
0.0
 10
130.1363261878169
 20
-69.1773291146498
 30
0.0
 10
131.6572544420826
 20
-69.1990339864979
 30
0.0
 10
138.3209991879683
 20
-69.29414929009641
 30
0.0
 10
144.9865178179923
 20
-69.25065658867328
 30
0.0
 10
151.6513836586474
 20
-69.25743653328469
 30
0.0
 10
151.6513836586474
 20
-69.25743653328469
 30
0.0
 10
151.6139050347219
 20
-69.21874786329309
 30
0.0
 10
151.6139050347219
 20
-69.21874786329309
 30
0.0
 10
151.6196524189994
 20
-76.18646420387502
 30
0.0
 10
151.5787963193706
 20
-83.15485175139911
 30
0.0
 10
151.6676040542131
 20
-90.12136896946429
 30
0.0
 10
151.687031633148
 20
-91.64631344084016
 30
0.0
 10
151.3172832247829
 20
-92.03062843771673
 30
0.0
 10
149.8872346023372
 20
-92.0109221034052
 30
0.0
 10
143.1784757727348
 20
-91.91845391933033
 30
0.0
 10
136.4680991607946
 20
-91.96032516577282
 30
0.0
 10
129.7582901917829
 20
-91.95423151140666
 30
0.0
 10
129.7582901917829
 20
-91.95423151140666
 30
0.0
 10
129.7947328673742
 20
-91.99409667896568
 30
0.0
 10
129.7947328673742
 20
-91.99409667896568
 30
0.0
  0
SPLINE
  5
68
330
48
100
AcDbEntity
  8
Layer 1
 62
   165
420
  4285358
370
    35
100
AcDbSpline
210
0.0
220
0.0
230
1.0
 70
    11
 71
     3
 72
    29
 73
    25
 74
     0
 42
0.0000000001
 43
0.0000000001
 12
1.0
 22
0.0
 32
0.0
 13
1.0
 23
0.0
 33
0.0
 40
0.0
 40
0.0
 40
0.0
 40
0.0
 40
1.0
 40
1.0
 40
1.0
 40
2.0
 40
2.0
 40
2.0
 40
3.0
 40
3.0
 40
3.0
 40
4.0
 40
4.0
 40
4.0
 40
5.0
 40
5.0
 40
5.0
 40
6.0
 40
6.0
 40
6.0
 40
7.0
 40
7.0
 40
7.0
 40
8.0
 40
8.0
 40
8.0
 40
8.0
 10
324.5968130740125
 20
-91.99408914606065
 30
0.0
 10
331.2590393750868
 20
-91.98691703619214
 30
0.0
 10
337.9218900833699
 20
-92.02840365902955
 30
0.0
 10
344.5830662450435
 20
-91.93549051814144
 30
0.0
 10
346.0899027637722
 20
-91.91447193667655
 30
0.0
 10
346.5103558761167
 20
-92.33608793978159
 30
0.0
 10
346.5064391398793
 20
-93.96347819929805
 30
0.0
 10
346.4543011365129
 20
-115.7011033703203
 30
0.0
 10
346.4543011355362
 20
-137.4389623325302
 30
0.0
 10
346.5064675190989
 20
-159.176595045208
 30
0.0
 10
346.510355873043
 20
-160.8040230129775
 30
0.0
 10
346.0898459963672
 20
-161.2255560578847
 30
0.0
 10
344.5830378597907
 20
-161.2045450179361
 30
0.0
 10
337.9218333159777
 20
-161.1116318764502
 30
0.0
 10
331.2590109898352
 20
-161.1531260403406
 30
0.0
 10
324.5967563066191
 20
-161.1459765548253
 30
0.0
 10
324.5967563066191
 20
-161.1459765548253
 30
0.0
 10
324.6332273643567
 20
-161.1857964724792
 30
0.0
 10
324.6332273643567
 20
-161.1857964724792
 30
0.0
 10
324.6332273653924
 20
-138.1086156966888
 30
0.0
 10
324.6332273664294
 20
-115.0314273792469
 30
0.0
 10
324.6332557496121
 20
-91.95424660345867
 30
0.0
 10
324.6332557496121
 20
-91.95424660345867
 30
0.0
 10
324.5968130740125
 20
-91.99408914606065
 30
0.0
 10
324.5968130740125
 20
-91.99408914606065
 30
0.0
  0
SPLINE
  5
69
330
48
100
AcDbEntity
  8
Layer 1
 62
   165
420
  4285358
370
    35
100
AcDbSpline
210
0.0
220
0.0
230
1.0
 70
    11
 71
     3
 72
    29
 73
    25
 74
     0
 42
0.0000000001
 43
0.0000000001
 12
1.0
 22
0.0
 32
0.0
 13
1.0
 23
0.0
 33
0.0
 40
0.0
 40
0.0
 40
0.0
 40
0.0
 40
1.0
 40
1.0
 40
1.0
 40
2.0
 40
2.0
 40
2.0
 40
3.0
 40
3.0
 40
3.0
 40
4.0
 40
4.0
 40
4.0
 40
5.0
 40
5.0
 40
5.0
 40
6.0
 40
6.0
 40
6.0
 40
7.0
 40
7.0
 40
7.0
 40
8.0
 40
8.0
 40
8.0
 40
8.0
 10
303.2052179345966
 20
-183.8825009508087
 30
0.0
 10
303.2119445029053
 20
-190.9663587178734
 30
0.0
 10
303.1712445050767
 20
-198.0508801502318
 30
0.0
 10
303.2612726721972
 20
-205.1335463364296
 30
0.0
 10
303.2818497280463
 20
-206.7516829900838
 30
0.0
 10
302.8604883869914
 20
-207.1769717772225
 30
0.0
 10
301.3431220920609
 20
-207.169354709574
 30
0.0
 10
287.5486327683174
 20
-207.1000167690124
 30
0.0
 10
273.7537744766673
 20
-207.1190368123936
 30
0.0
 10
259.9590013314543
 20
-207.1122342425079
 30
0.0
 10
259.9590013314543
 20
-207.1122342425079
 30
0.0
 10
259.9964373821666
 20
-207.1510134123122
 30
0.0
 10
259.9964373821666
 20
-207.1510134123122
 30
0.0
 10
259.9906758068262
 20
-200.0076369350017
 30
0.0
 10
260.0370522338771
 20
-192.8634610426795
 30
0.0
 10
259.9389635372664
 20
-185.7215174790661
 30
0.0
 10
259.9170809026964
 20
-184.1282833572482
 30
0.0
 10
260.3927656713856
 20
-183.8647629855699
 30
0.0
 10
261.7587983632966
 20
-183.8706002235593
 30
0.0
 10
275.5865799444215
 20
-183.9297720184774
 30
0.0
 10
289.4146453470111
 20
-183.9151713826258
 30
0.0
 10
303.2426256031584
 20
-183.9212801206137
 30
0.0
 10
303.2426256031584
 20
-183.9212801206137
 30
0.0
 10
303.2052179345966
 20
-183.8825009508087
 30
0.0
 10
303.2052179345966
 20
-183.8825009508087
 30
0.0
  0
SPLINE
  5
6A
330
48
100
AcDbEntity
  8
Layer 1
 62
   165
420
  4285358
370
    35
100
AcDbSpline
210
0.0
220
0.0
230
1.0
 70
    11
 71
     3
 72
    29
 73
    25
 74
     0
 42
0.0000000001
 43
0.0000000001
 12
1.0
 22
0.0
 32
0.0
 13
1.0
 23
0.0
 33
0.0
 40
0.0
 40
0.0
 40
0.0
 40
0.0
 40
1.0
 40
1.0
 40
1.0
 40
2.0
 40
2.0
 40
2.0
 40
3.0
 40
3.0
 40
3.0
 40
4.0
 40
4.0
 40
4.0
 40
5.0
 40
5.0
 40
5.0
 40
6.0
 40
6.0
 40
6.0
 40
7.0
 40
7.0
 40
7.0
 40
8.0
 40
8.0
 40
8.0
 40
8.0
 10
259.9590013304096
 20
-230.382918701461
 30
0.0
 10
266.4657218529882
 20
-230.3761010491849
 30
0.0
 10
272.9730667827819
 20
-230.4183946286807
 30
0.0
 10
279.4787087838074
 20
-230.325707737318
 30
0.0
 10
280.9806919555515
 20
-230.3043045316484
 30
0.0
 10
281.4129520406734
 20
-230.7174814272073
 30
0.0
 10
281.4056578290521
 20
-232.3504449668613
 30
0.0
 10
281.3431319605617
 20
-246.3466633556488
 30
0.0
 10
281.3431035777871
 20
-260.3434549099194
 30
0.0
 10
281.4056294450198
 20
-274.3396732987121
 30
0.0
 10
281.4129236564985
 20
-275.9726519216713
 30
0.0
 10
280.9805784249004
 20
-276.3857835672842
 30
0.0
 10
279.4786803995935
 20
-276.3644256113861
 30
0.0
 10
272.9730383985763
 20
-276.271753802741
 30
0.0
 10
266.4656934687794
 20
-276.314017215048
 30
0.0
 10
259.9589729462043
 20
-276.3071995621867
 30
0.0
 10
259.9589729462043
 20
-276.3071995621867
 30
0.0
 10
259.9964089969128
 20
-276.3459636486908
 30
0.0
 10
259.9964089969128
 20
-276.3459636486908
 30
0.0
 10
259.9964089976013
 20
-261.012007193044
 30
0.0
 10
259.9964089982898
 20
-245.6780658206999
 30
0.0
 10
259.9964089989781
 20
-230.3441244483558
 30
0.0
 10
259.9964089989781
 20
-230.3441244483558
 30
0.0
 10
259.9590013304096
 20
-230.382918701461
 30
0.0
 10
259.9590013304096
 20
-230.382918701461
 30
0.0
  0
SPLINE
  5
6B
330
48
100
AcDbEntity
  8
Layer 1
 62
   165
420
  4285358
370
    35
100
AcDbSpline
210
0.0
220
0.0
230
1.0
 70
    11
 71
     3
 72
    29
 73
    25
 74
     0
 42
0.0000000001
 43
0.0000000001
 12
1.0
 22
0.0
 32
0.0
 13
1.0
 23
0.0
 33
0.0
 40
0.0
 40
0.0
 40
0.0
 40
0.0
 40
1.0
 40
1.0
 40
1.0
 40
2.0
 40
2.0
 40
2.0
 40
3.0
 40
3.0
 40
3.0
 40
4.0
 40
4.0
 40
4.0
 40
5.0
 40
5.0
 40
5.0
 40
6.0
 40
6.0
 40
6.0
 40
7.0
 40
7.0
 40
7.0
 40
8.0
 40
8.0
 40
8.0
 40
8.0
 10
303.2051895575967
 20
-69.25750441494978
 30
0.0
 10
309.715060498395
 20
-69.25070184597459
 30
0.0
 10
316.2255842285463
 20
-69.295197587584
 30
0.0
 10
322.7342631192067
 20
-69.19900382847318
 30
0.0
 10
324.2553474752813
 20
-69.17653725000172
 30
0.0
 10
324.6729339908679
 20
-69.62060474834509
 30
0.0
 10
324.6517892919462
 20
-71.23715765526946
 30
0.0
 10
324.5613353920057
 20
-78.15507647383014
 30
0.0
 10
324.6031990571986
 20
-85.07493349672278
 30
0.0
 10
324.5968130740125
 20
-91.99408914606065
 30
0.0
 10
324.5968130740125
 20
-91.99408914606065
 30
0.0
 10
324.6332557496121
 20
-91.95425414510812
 30
0.0
 10
324.6332557496121
 20
-91.95425414510812
 30
0.0
 10
318.0780585214911
 20
-91.9603402572274
 30
0.0
 10
311.5222085040116
 20
-91.9172020128128
 30
0.0
 10
304.9681181795854
 20
-92.01111065164447
 30
0.0
 10
303.5357847943746
 20
-92.03163902579523
 30
0.0
 10
303.1697402561109
 20
-91.64279903824333
 30
0.0
 10
303.1890401155277
 20
-90.12029806181404
 30
0.0
 10
303.2774505009481
 20
-83.15412775970793
 30
0.0
 10
303.2369207966274
 20
-76.18611729473143
 30
0.0
 10
303.2426539904557
 20
-69.21876295340172
 30
0.0
 10
303.2426539904557
 20
-69.21876295340172
 30
0.0
 10
303.2051895575967
 20
-69.25750441494978
 30
0.0
 10
303.2051895575967
 20
-69.25750441494978
 30
0.0
  0
SPLINE
  5
6C
330
48
100
AcDbEntity
  8
Layer 1
 62
   165
420
  4285358
370
    35
100
AcDbSpline
210
0.0
220
0.0
230
1.0
 70
    11
 71
     3
 72
    29
 73
    25
 74
     0
 42
0.0000000001
 43
0.0000000001
 12
1.0
 22
0.0
 32
0.0
 13
1.0
 23
0.0
 33
0.0
 40
0.0
 40
0.0
 40
0.0
 40
0.0
 40
1.0
 40
1.0
 40
1.0
 40
2.0
 40
2.0
 40
2.0
 40
3.0
 40
3.0
 40
3.0
 40
4.0
 40
4.0
 40
4.0
 40
5.0
 40
5.0
 40
5.0
 40
6.0
 40
6.0
 40
6.0
 40
7.0
 40
7.0
 40
7.0
 40
8.0
 40
8.0
 40
8.0
 40
8.0
 10
324.5967563066191
 20
-161.1459765548253
 30
0.0
 10
324.6031990534728
 20
-168.0651095792132
 30
0.0
 10
324.5613353876576
 20
-174.9849666021004
 30
0.0
 10
324.6518176691252
 20
-181.9028627957137
 30
0.0
 10
324.6729339857536
 20
-183.5194157026419
 30
0.0
 10
324.2553474701285
 20
-183.9634832009477
 30
0.0
 10
322.7342631140551
 20
-183.9410241639916
 30
0.0
 10
316.2256126055507
 20
-183.8448228626464
 30
0.0
 10
309.7150604932473
 20
-183.8893035203669
 30
0.0
 10
303.2052179345966
 20
-183.8825009508087
 30
0.0
 10
303.2052179345966
 20
-183.8825009508087
 30
0.0
 10
303.2426256031584
 20
-183.9212801206137
 30
0.0
 10
303.2426256031584
 20
-183.9212801206137
 30
0.0
 10
303.2368924099583
 20
-176.9539257792839
 30
0.0
 10
303.2774788791968
 20
-169.9859228559643
 30
0.0
 10
303.1890684944026
 20
-163.019760095498
 30
0.0
 10
303.1697970172683
 20
-161.4973119106271
 30
0.0
 10
303.5357280269831
 20
-161.1083587983427
 30
0.0
 10
304.9680897943358
 20
-161.1288720893174
 30
0.0
 10
311.5221801187549
 20
-161.2227958120422
 30
0.0
 10
318.0780301362408
 20
-161.179687734818
 30
0.0
 10
324.6332273643567
 20
-161.1857964724792
 30
0.0
 10
324.6332273643567
 20
-161.1857964724792
 30
0.0
 10
324.5967563066191
 20
-161.1459765548253
 30
0.0
 10
324.5967563066191
 20
-161.1459765548253
 30
0.0
  0
SPLINE
  5
6D
330
48
100
AcDbEntity
  8
Layer 1
 62
   165
420
  4285358
370
    35
100
AcDbSpline
210
0.0
220
0.0
230
1.0
 70
    11
 71
     3
 72
    86
 73
    82
 74
     0
 42
0.0000000001
 43
0.0000000001
 12
1.0
 22
0.0
 32
0.0
 13
1.0
 23
0.0
 33
0.0
 40
0.0
 40
0.0
 40
0.0
 40
0.0
 40
1.0
 40
1.0
 40
1.0
 40
2.0
 40
2.0
 40
2.0
 40
3.0
 40
3.0
 40
3.0
 40
4.0
 40
4.0
 40
4.0
 40
5.0
 40
5.0
 40
5.0
 40
6.0
 40
6.0
 40
6.0
 40
7.0
 40
7.0
 40
7.0
 40
8.0
 40
8.0
 40
8.0
 40
9.0
 40
9.0
 40
9.0
 40
10.0
 40
10.0
 40
10.0
 40
11.0
 40
11.0
 40
11.0
 40
12.0
 40
12.0
 40
12.0
 40
13.0
 40
13.0
 40
13.0
 40
14.0
 40
14.0
 40
14.0
 40
15.0
 40
15.0
 40
15.0
 40
16.0
 40
16.0
 40
16.0
 40
17.0
 40
17.0
 40
17.0
 40
18.0
 40
18.0
 40
18.0
 40
19.0
 40
19.0
 40
19.0
 40
20.0
 40
20.0
 40
20.0
 40
21.0
 40
21.0
 40
21.0
 40
22.0
 40
22.0
 40
22.0
 40
23.0
 40
23.0
 40
23.0
 40
24.0
 40
24.0
 40
24.0
 40
25.0
 40
25.0
 40
25.0
 40
26.0
 40
26.0
 40
26.0
 40
27.0
 40
27.0
 40
27.0
 40
27.0
 10
324.6332273643567
 20
-161.1857964724792
 30
0.0
 10
318.0780301362408
 20
-161.179687734818
 30
0.0
 10
311.5221801187549
 20
-161.2227958120422
 30
0.0
 10
304.9680897943358
 20
-161.1288720893174
 30
0.0
 10
303.5357280269831
 20
-161.1083587983427
 30
0.0
 10
303.1697970172683
 20
-161.4973119106271
 30
0.0
 10
303.1890684944026
 20
-163.019760095498
 30
0.0
 10
303.2774788791968
 20
-169.9859228559643
 30
0.0
 10
303.2368924099583
 20
-176.9539257792839
 30
0.0
 10
303.2426256031584
 20
-183.9212801206137
 30
0.0
 10
289.4146453470111
 20
-183.9151713826258
 30
0.0
 10
275.5865799444215
 20
-183.9297720184774
 30
0.0
 10
261.7587983632966
 20
-183.8706002235593
 30
0.0
 10
260.3927656713856
 20
-183.8647629855699
 30
0.0
 10
259.9170809026964
 20
-184.1282833572482
 30
0.0
 10
259.9389635372664
 20
-185.7215174790661
 30
0.0
 10
260.0370522338771
 20
-192.8634610426795
 30
0.0
 10
259.9906758068262
 20
-200.0076369350017
 30
0.0
 10
259.9964373821666
 20
-207.1510134123122
 30
0.0
 10
238.2843226709346
 20
-207.1510134113371
 30
0.0
 10
216.5722221507806
 20
-207.1510134103624
 30
0.0
 10
194.8601216306301
 20
-207.1510134093877
 30
0.0
 10
194.8658548247992
 20
-192.5721572255104
 30
0.0
 10
194.9051073335099
 20
-177.9931200420053
 30
0.0
 10
194.8347479939764
 20
-163.4146711072802
 30
0.0
 10
194.825992101989
 20
-161.6005721922172
 30
0.0
 10
195.1930583975509
 20
-161.1120391191995
 30
0.0
 10
196.9610674247142
 20
-161.1187361054288
 30
0.0
 10
217.1869226731341
 20
-161.1953441979102
 30
0.0
 10
237.4132604180452
 20
-161.1358405718736
 30
0.0
 10
257.6390730932468
 20
-161.2188892343683
 30
0.0
 10
259.5561167695915
 20
-161.2267627181708
 30
0.0
 10
260.0454817327113
 20
-160.7706134948549
 30
0.0
 10
260.0305527239565
 20
-158.6984392801645
 30
0.0
 10
259.9313287417996
 20
-144.9439609747794
 30
0.0
 10
259.9414327864276
 20
-131.1880195890907
 30
0.0
 10
260.0239680679093
 20
-117.4332848675763
 30
0.0
 10
260.0350654871179
 20
-115.5859046463417
 30
0.0
 10
259.6172519143671
 20
-115.1494768405319
 30
0.0
 10
257.8802361907482
 20
-115.1556911609368
 30
0.0
 10
237.5768551102401
 20
-115.2283700513898
 30
0.0
 10
217.2730624886204
 20
-115.229086507331
 30
0.0
 10
196.9696955991904
 20
-115.1547409101666
 30
0.0
 10
195.2192693115433
 20
-115.1483305066785
 30
0.0
 10
194.7956515898677
 20
-115.6034993153594
 30
0.0
 10
194.8319239725056
 20
-117.4410301402992
 30
0.0
 10
194.9522216984833
 20
-123.5335152492212
 30
0.0
 10
194.7952116659716
 20
-129.6323278033767
 30
0.0
 10
194.9261526967427
 20
-135.7243076216769
 30
0.0
 10
194.966767547732
 20
-137.6143962129269
 30
0.0
 10
194.4627715882991
 20
-137.9867275262453
 30
0.0
 10
192.7610490633598
 20
-137.9817500364633
 30
0.0
 10
171.7602618888322
 20
-137.9204213290177
 30
0.0
 10
150.7592476571296
 20
-137.9499695169678
 30
0.0
 10
129.7582901897176
 20
-137.9560631700887
 30
0.0
 10
129.7582901904061
 20
-122.6221217977459
 30
0.0
 10
129.7582901910947
 20
-107.2881728837498
 30
0.0
 10
129.7582901917829
 20
-91.95423151140666
 30
0.0
 10
136.4680991607946
 20
-91.96032516577282
 30
0.0
 10
143.1784757727348
 20
-91.91845391933033
 30
0.0
 10
149.8872346023372
 20
-92.0109221034052
 30
0.0
 10
151.3172832247829
 20
-92.03062843771673
 30
0.0
 10
151.687031633148
 20
-91.64631344084016
 30
0.0
 10
151.6676040542131
 20
-90.12136896946429
 30
0.0
 10
151.5787963193706
 20
-83.15485175139911
 30
0.0
 10
151.6196524189994
 20
-76.18646420387502
 30
0.0
 10
151.6139050347219
 20
-69.21874786329309
 30
0.0
 10
202.1568166229461
 20
-69.21875540721224
 30
0.0
 10
252.69972821116
 20
-69.21875540948129
 30
0.0
 10
303.2426539904557
 20
-69.21876295340172
 30
0.0
 10
303.2369207966274
 20
-76.18611729473143
 30
0.0
 10
303.2774505009481
 20
-83.15412775970793
 30
0.0
 10
303.1890401155277
 20
-90.12029806181404
 30
0.0
 10
303.1697402561109
 20
-91.64279903824333
 30
0.0
 10
303.5357847943746
 20
-92.03163902579523
 30
0.0
 10
304.9681181795854
 20
-92.01111065164447
 30
0.0
 10
311.5222085040116
 20
-91.9172020128128
 30
0.0
 10
318.0780585214911
 20
-91.9603402572274
 30
0.0
 10
324.6332557496121
 20
-91.95425414510812
 30
0.0
 10
324.6332273664294
 20
-115.0314273792469
 30
0.0
 10
324.6332273653924
 20
-138.1086156966888
 30
0.0
 10
324.6332273643567
 20
-161.1857964724792
 30
0.0
  0
SPLINE
  5
6E
330
48
100
AcDbEntity
  8
Layer 1
 62
   165
420
  4285358
370
    35
100
AcDbSpline
210
0.0
220
0.0
230
1.0
 70
    11
 71
     3
 72
    17
 73
    13
 74
     0
 42
0.0000000001
 43
0.0000000001
 12
1.0
 22
0.0
 32
0.0
 13
1.0
 23
0.0
 33
0.0
 40
0.0
 40
0.0
 40
0.0
 40
0.0
 40
1.0
 40
1.0
 40
1.0
 40
2.0
 40
2.0
 40
2.0
 40
3.0
 40
3.0
 40
3.0
 40
4.0
 40
4.0
 40
4.0
 40
4.0
 10
259.9964089989781
 20
-230.3441244483558
 30
0.0
 10
259.9964089982898
 20
-245.6780658206999
 30
0.0
 10
259.9964089976013
 20
-261.012007193044
 30
0.0
 10
259.9964089969128
 20
-276.3459636486908
 30
0.0
 10
238.2843226678278
 20
-276.3459636477167
 30
0.0
 10
216.5722221476738
 20
-276.3459636467413
 30
0.0
 10
194.8601216275233
 20
-276.3459636457673
 30
0.0
 10
194.8601216282119
 20
-261.0120071901197
 30
0.0
 10
194.8601216289004
 20
-245.6780658177763
 30
0.0
 10
194.8601216295886
 20
-230.3441244454322
 30
0.0
 10
216.5722221497391
 20
-230.3441244464063
 30
0.0
 10
238.2843226698931
 20
-230.3441244473817
 30
0.0
 10
259.9964089989781
 20
-230.3441244483558
 30
0.0
  0
ENDBLK
  5
4B
330
48
100
AcDbEntity
  8
0
100
AcDbBlockEnd
  0
ENDSEC
  0
SECTION
  2
ENTITIES
  0
POLYLINE
  5
41
330
1F
100
AcDbEntity
  8
Layer 1
 62
   240
420
 15539499
370
    35
100
AcDb2dPolyline
 66
     1
 10
0.0
 20
0.0
 30
0.0
  0
VERTEX
  5
42
330
41
100
AcDbEntity
  8
Layer 1
 62
   240
420
 15539499
370
    35
100
AcDbVertex
100
AcDb2dVertex
 10
476.2499998809356
 20
-368.3001616779646
 30
0.0
  0
VERTEX
  5
43
330
41
100
AcDbEntity
  8
Layer 1
 62
   240
420
 15539499
370
    35
100
AcDbVertex
100
AcDb2dVertex
 10
0.0
 20
-368.3001616565818
 30
0.0
  0
VERTEX
  5
44
330
41
100
AcDbEntity
  8
Layer 1
 62
   240
420
 15539499
370
    35
100
AcDbVertex
100
AcDb2dVertex
 10
0.0000000165353008
 20
-0.0001617486552403
 30
0.0
  0
VERTEX
  5
45
330
41
100
AcDbEntity
  8
Layer 1
 62
   240
420
 15539499
370
    35
100
AcDbVertex
100
AcDb2dVertex
 10
476.2499998974709
 20
-0.000161770037294
 30
0.0
  0
VERTEX
  5
46
330
41
100
AcDbEntity
  8
Layer 1
 62
   240
420
 15539499
370
    35
100
AcDbVertex
100
AcDb2dVertex
 10
476.2499998809356
 20
-368.3001616779646
 30
0.0
  0
SEQEND
  5
47
330
41
100
AcDbEntity
  8
Layer 1
 62
   240
420
 15539499
370
    35
  0
INSERT
  5
49
330
1F
100
AcDbEntity
  8
Layer 1
100
AcDbBlockReference
  2
block 2
 10
0.0
 20
0.0
 30
0.0
  0
POLYLINE
  5
70
330
1F
100
AcDbEntity
  8
Layer 2
 62
   250
420
  2301728
370
    35
100
AcDb2dPolyline
 66
     1
 10
0.0
 20
0.0
 30
0.0
  0
VERTEX
  5
71
330
70
100
AcDbEntity
  8
Layer 2
 62
   250
420
  2301728
370
    35
100
AcDbVertex
100
AcDb2dVertex
 10
428.6249998928438
 20
-336.5499999158625
 30
0.0
  0
VERTEX
  5
72
330
70
100
AcDbEntity
  8
Layer 2
 62
   250
420
  2301728
370
    35
100
AcDbVertex
100
AcDb2dVertex
 10
38.099999990475
 20
-336.5499999158625
 30
0.0
  0
VERTEX
  5
73
330
70
100
AcDbEntity
  8
Layer 2
 62
   250
420
  2301728
370
    35
100
AcDbVertex
100
AcDb2dVertex
 10
38.099999990475
 20
-31.7499999920625
 30
0.0
  0
VERTEX
  5
74
330
70
100
AcDbEntity
  8
Layer 2
 62
   250
420
  2301728
370
    35
100
AcDbVertex
100
AcDb2dVertex
 10
428.6249998928438
 20
-31.7499999920625
 30
0.0
  0
VERTEX
  5
75
330
70
100
AcDbEntity
  8
Layer 2
 62
   250
420
  2301728
370
    35
100
AcDbVertex
100
AcDb2dVertex
 10
428.6249998928438
 20
-336.5499999158625
 30
0.0
  0
SEQEND
  5
76
330
70
100
AcDbEntity
  8
Layer 2
 62
   250
420
  2301728
370
    35
  0
ENDSEC
  0
SECTION
  2
OBJECTS
  0
DICTIONARY
  5
C
330
0
100
AcDbDictionary
281
     1
  3
ACAD_GROUP
350
D
  3
ACAD_LAYOUT
350
1A
  3
ACAD_MATERIAL
350
3B
  3
ACAD_MLEADERSTYLE
350
78
  3
ACAD_MLINESTYLE
350
17
  3
ACAD_PLOTSETTINGS
350
19
  3
ACAD_PLOTSTYLENAME
350
E
  3
ACAD_TABLESTYLE
350
77
  3
ACAD_VISUALSTYLE
350
2A
  0
SUN
  5
3F
330
29
100
AcDbSun
 90
        1
290
     0
 63
     7
421
 16777215
 40
1.0
291
     1
 91
  2455826
 92
 54000000
292
     0
 70
     2
 71
   256
280
     1
  0
DICTIONARY
  5
D
102
{ACAD_REACTORS
330
C
102
}
330
C
100
AcDbDictionary
281
     1
  0
DICTIONARY
  5
1A
102
{ACAD_REACTORS
330
C
102
}
330
C
100
AcDbDictionary
281
     1
  3
Layout1
350
1E
  3
Layout2
350
26
  3
Model
350
22
  0
DICTIONARY
  5
3B
102
{ACAD_REACTORS
330
C
102
}
330
C
100
AcDbDictionary
281
     1
  3
ByBlock
350
3D
  3
ByLayer
350
3C
  3
Global
350
3E
  0
DICTIONARY
  5
78
102
{ACAD_REACTORS
330
C
102
}
330
C
100
AcDbDictionary
281
     1
  0
DICTIONARY
  5
17
102
{ACAD_REACTORS
330
C
102
}
330
C
100
AcDbDictionary
281
     1
  3
Standard
350
18
  0
DICTIONARY
  5
19
102
{ACAD_REACTORS
330
C
102
}
330
C
100
AcDbDictionary
281
     1
  0
ACDBDICTIONARYWDFLT
  5
E
102
{ACAD_REACTORS
330
C
102
}
330
C
100
AcDbDictionary
281
     1
  3
Normal
350
F
100
AcDbDictionaryWithDefault
340
F
  0
DICTIONARY
  5
77
102
{ACAD_REACTORS
330
C
102
}
330
C
100
AcDbDictionary
281
     1
  0
DICTIONARY
  5
2A
102
{ACAD_REACTORS
330
C
102
}
330
C
100
AcDbDictionary
281
     1
  3
2dWireframe
350
2F
  3
3D Hidden
350
31
  3
3dWireframe
350
30
  3
Basic
350
32
  3
Brighten
350
36
  3
ColorChange
350
3A
  3
Conceptual
350
34
  3
Dim
350
35
  3
Facepattern
350
39
  3
Flat
350
2B
  3
FlatWithEdges
350
2C
  3
Gouraud
350
2D
  3
GouraudWithEdges
350
2E
  3
Linepattern
350
38
  3
Realistic
350
33
  3
Thicken
350
37
  0
LAYOUT
  5
1E
102
{ACAD_REACTORS
330
1A
102
}
330
1A
100
AcDbPlotSettings
  1

  2
none_device
  4

  6

 40
0.0
 41
0.0
 42
0.0
 43
0.0
 44
0.0
 45
0.0
 46
0.0
 47
0.0
 48
0.0
 49
0.0
140
0.0
141
0.0
142
1.0
143
1.0
 70
   688
 72
     0
 73
     0
 74
     5
  7

 75
    16
 76
     0
 77
     2
 78
   300
147
1.0
148
0.0
149
0.0
100
AcDbLayout
  1
Layout1
 70
     1
 71
     1
 10
0.0
 20
0.0
 11
12.0
 21
9.0
 12
0.0
 22
0.0
 32
0.0
 14
1.000000000000000E+20
 24
1.000000000000000E+20
 34
1.000000000000000E+20
 15
-1.000000000000000E+20
 25
-1.000000000000000E+20
 35
-1.000000000000000E+20
146
0.0
 13
0.0
 23
0.0
 33
0.0
 16
1.0
 26
0.0
 36
0.0
 17
0.0
 27
1.0
 37
0.0
 76
     0
330
1B
  0
LAYOUT
  5
26
102
{ACAD_REACTORS
330
1A
102
}
330
1A
100
AcDbPlotSettings
  1

  2
none_device
  4

  6

 40
0.0
 41
0.0
 42
0.0
 43
0.0
 44
0.0
 45
0.0
 46
0.0
 47
0.0
 48
0.0
 49
0.0
140
0.0
141
0.0
142
1.0
143
1.0
 70
   688
 72
     0
 73
     0
 74
     5
  7

 75
    16
 76
     0
 77
     2
 78
   300
147
1.0
148
0.0
149
0.0
100
AcDbLayout
  1
Layout2
 70
     1
 71
     2
 10
0.0
 20
0.0
 11
0.0
 21
0.0
 12
0.0
 22
0.0
 32
0.0
 14
0.0
 24
0.0
 34
0.0
 15
0.0
 25
0.0
 35
0.0
146
0.0
 13
0.0
 23
0.0
 33
0.0
 16
1.0
 26
0.0
 36
0.0
 17
0.0
 27
1.0
 37
0.0
 76
     0
330
23
  0
LAYOUT
  5
22
102
{ACAD_REACTORS
330
1A
102
}
330
1A
100
AcDbPlotSettings
  1

  2
none_device
  4

  6

 40
0.0
 41
0.0
 42
0.0
 43
0.0
 44
0.0
 45
0.0
 46
0.0
 47
0.0
 48
0.0
 49
0.0
140
0.0
141
0.0
142
1.0
143
1.0
 70
  1712
 72
     0
 73
     0
 74
     0
  7

 75
     0
 76
     0
 77
     2
 78
   300
147
1.0
148
0.0
149
0.0
100
AcDbLayout
  1
Model
 70
     1
 71
     0
 10
0.0
 20
0.0
 11
12.0
 21
9.0
 12
0.0
 22
0.0
 32
0.0
 14
1.000000000000000E+20
 24
1.000000000000000E+20
 34
1.000000000000000E+20
 15
-1.000000000000000E+20
 25
-1.000000000000000E+20
 35
-1.000000000000000E+20
146
0.0
 13
0.0
 23
0.0
 33
0.0
 16
1.0
 26
0.0
 36
0.0
 17
0.0
 27
1.0
 37
0.0
 76
     0
330
1F
331
29
  0
MATERIAL
  5
3D
102
{ACAD_REACTORS
330
3B
102
}
330
3B
100
AcDbMaterial
  1
ByBlock
 72
     1
 94
      127
  0
MATERIAL
  5
3C
102
{ACAD_REACTORS
330
3B
102
}
330
3B
100
AcDbMaterial
  1
ByLayer
 72
     1
 94
      127
  0
MATERIAL
  5
3E
102
{ACAD_REACTORS
330
3B
102
}
330
3B
100
AcDbMaterial
  1
Global
 72
     1
 94
      127
  0
MLINESTYLE
  5
18
102
{ACAD_REACTORS
330
17
102
}
330
17
100
AcDbMlineStyle
  2
Standard
 70
     0
  3

 62
   256
 51
90.0
 52
90.0
 71
     2
 49
0.5
 62
   256
  6
BYLAYER
 49
-0.5
 62
   256
  6
BYLAYER
  0
ACDBPLACEHOLDER
  5
F
102
{ACAD_REACTORS
330
E
102
}
330
E
  0
VISUALSTYLE
  5
2F
102
{ACAD_REACTORS
330
2A
102
}
330
2A
100
AcDbVisualStyle
  2
2dWireframe
 70
     4
177
     2
291
     0
 71
     0
176
     1
 72
     2
176
     1
 73
     0
176
     1
 90
        0
176
     1
 40
-0.6
176
     1
 41
-30.0
176
     1
 62
     5
 63
     7
421
 16777215
176
     1
 74
     1
176
     1
 91
        4
176
     1
 64
     7
176
     1
 65
   257
176
     1
 75
     1
176
     1
175
     1
176
     1
 42
1.0
176
     1
 92
        0
176
     1
 66
   257
176
     1
 43
1.0
176
     1
 76
     1
176
     1
 77
     6
176
     1
 78
     2
176
     1
 67
     7
176
     1
 79
     5
176
     1
170
     0
176
     1
171
     0
176
     1
290
     0
176
     1
 93
        1
176
     1
 44
0.0
176
     1
173
     0
176
     1
  0
VISUALSTYLE
  5
31
102
{ACAD_REACTORS
330
2A
102
}
330
2A
100
AcDbVisualStyle
  2
3D Hidden
 70
     6
177
     2
291
     0
 71
     1
176
     1
 72
     2
176
     1
 73
     2
176
     1
 90
        0
176
     1
 40
-0.6
176
     1
 41
-30.0
176
     1
 62
     5
 63
     7
421
 16777215
176
     1
 74
     2
176
     1
 91
        2
176
     1
 64
     7
176
     1
 65
   257
176
     1
 75
     2
176
     1
175
     1
176
     1
 42
40.0
176
     1
 92
        0
176
     1
 66
   257
176
     1
 43
1.0
176
     1
 76
     1
176
     1
 77
     6
176
     1
 78
     2
176
     1
 67
     7
176
     1
 79
     3
176
     1
170
     0
176
     1
171
     0
176
     1
290
     0
176
     1
 93
        1
176
     1
 44
0.0
176
     1
173
     0
176
     1
  0
VISUALSTYLE
  5
30
102
{ACAD_REACTORS
330
2A
102
}
330
2A
100
AcDbVisualStyle
  2
3dWireframe
 70
     5
177
     2
291
     0
 71
     0
176
     1
 72
     2
176
     1
 73
     0
176
     1
 90
        0
176
     1
 40
-0.6
176
     1
 41
-30.0
176
     1
 62
     5
 63
     7
421
 16777215
176
     1
 74
     1
176
     1
 91
        4
176
     1
 64
     7
176
     1
 65
   257
176
     1
 75
     1
176
     1
175
     1
176
     1
 42
1.0
176
     1
 92
        0
176
     1
 66
   257
176
     1
 43
1.0
176
     1
 76
     1
176
     1
 77
     6
176
     1
 78
     2
176
     1
 67
     7
176
     1
 79
     5
176
     1
170
     0
176
     1
171
     0
176
     1
290
     0
176
     1
 93
        1
176
     1
 44
0.0
176
     1
173
     0
176
     1
  0
VISUALSTYLE
  5
32
102
{ACAD_REACTORS
330
2A
102
}
330
2A
100
AcDbVisualStyle
  2
Basic
 70
     7
177
     2
291
     1
 71
     1
176
     1
 72
     0
176
     1
 73
     1
176
     1
 90
        0
176
     1
 40
-0.6
176
     1
 41
-30.0
176
     1
 62
     5
 63
     7
421
 16777215
176
     1
 74
     0
176
     1
 91
        4
176
     1
 64
     7
176
     1
 65
   257
176
     1
 75
     1
176
     1
175
     1
176
     1
 42
1.0
176
     1
 92
        8
176
     1
 66
     7
176
     1
 43
1.0
176
     1
 76
     1
176
     1
 77
     6
176
     1
 78
     2
176
     1
 67
     7
176
     1
 79
     5
176
     1
170
     0
176
     1
171
     0
176
     1
290
     0
176
     1
 93
        1
176
     1
 44
0.0
176
     1
173
     0
176
     1
  0
VISUALSTYLE
  5
36
102
{ACAD_REACTORS
330
2A
102
}
330
2A
100
AcDbVisualStyle
  2
Brighten
 70
    12
177
     2
291
     1
 71
     2
176
     1
 72
     2
176
     1
 73
     0
176
     1
 90
        0
176
     1
 40
-0.6
176
     1
 41
-30.0
176
     1
 62
     5
 63
     7
421
 16777215
176
     1
 74
     1
176
     1
 91
        4
176
     1
 64
     7
176
     1
 65
   257
176
     1
 75
     1
176
     1
175
     1
176
     1
 42
1.0
176
     1
 92
        8
176
     1
 66
     7
176
     1
 43
1.0
176
     1
 76
     1
176
     1
 77
     6
176
     1
 78
     2
176
     1
 67
     7
176
     1
 79
     5
176
     1
170
     0
176
     1
171
     0
176
     1
290
     0
176
     1
 93
        1
176
     1
 44
50.0
176
     1
173
     0
176
     1
  0
VISUALSTYLE
  5
3A
102
{ACAD_REACTORS
330
2A
102
}
330
2A
100
AcDbVisualStyle
  2
ColorChange
 70
    16
177
     2
291
     1
 71
     2
176
     1
 72
     2
176
     1
 73
     3
176
     1
 90
        0
176
     1
 40
-0.6
176
     1
 41
-30.0
176
     1
 62
     5
 63
     8
421
  8421504
176
     1
 74
     1
176
     1
 91
        4
176
     1
 64
     7
176
     1
 65
   257
176
     1
 75
     1
176
     1
175
     1
176
     1
 42
1.0
176
     1
 92
        8
176
     1
 66
     8
424
  8421504
176
     1
 43
1.0
176
     1
 76
     1
176
     1
 77
     6
176
     1
 78
     2
176
     1
 67
     7
176
     1
 79
     5
176
     1
170
     0
176
     1
171
     0
176
     1
290
     0
176
     1
 93
        1
176
     1
 44
0.0
176
     1
173
     0
176
     1
  0
VISUALSTYLE
  5
34
102
{ACAD_REACTORS
330
2A
102
}
330
2A
100
AcDbVisualStyle
  2
Conceptual
 70
     9
177
     2
291
     0
 71
     3
176
     1
 72
     2
176
     1
 73
     0
176
     1
 90
        0
176
     1
 40
-0.6
176
     1
 41
-30.0
176
     1
 62
     5
 63
     7
421
 16777215
176
     1
 74
     2
176
     1
 91
        2
176
     1
 64
     7
176
     1
 65
   257
176
     1
 75
     1
176
     1
175
     1
176
     1
 42
40.0
176
     1
 92
        8
176
     1
 66
     7
176
     1
 43
1.0
176
     1
 76
     1
176
     1
 77
     6
176
     1
 78
     2
176
     1
 67
     7
176
     1
 79
     3
176
     1
170
     0
176
     1
171
     0
176
     1
290
     0
176
     1
 93
        1
176
     1
 44
0.0
176
     1
173
     0
176
     1
  0
VISUALSTYLE
  5
35
102
{ACAD_REACTORS
330
2A
102
}
330
2A
100
AcDbVisualStyle
  2
Dim
 70
    11
177
     2
291
     1
 71
     2
176
     1
 72
     2
176
     1
 73
     0
176
     1
 90
        0
176
     1
 40
-0.6
176
     1
 41
-30.0
176
     1
 62
     5
 63
     7
421
 16777215
176
     1
 74
     1
176
     1
 91
        4
176
     1
 64
     7
176
     1
 65
   257
176
     1
 75
     1
176
     1
175
     1
176
     1
 42
1.0
176
     1
 92
        8
176
     1
 66
     7
176
     1
 43
1.0
176
     1
 76
     1
176
     1
 77
     6
176
     1
 78
     2
176
     1
 67
     7
176
     1
 79
     5
176
     1
170
     0
176
     1
171
     0
176
     1
290
     0
176
     1
 93
        1
176
     1
 44
-50.0
176
     1
173
     0
176
     1
  0
VISUALSTYLE
  5
39
102
{ACAD_REACTORS
330
2A
102
}
330
2A
100
AcDbVisualStyle
  2
Facepattern
 70
    15
177
     2
291
     1
 71
     2
176
     1
 72
     2
176
     1
 73
     0
176
     1
 90
        0
176
     1
 40
-0.6
176
     1
 41
-30.0
176
     1
 62
     5
 63
     7
421
 16777215
176
     1
 74
     1
176
     1
 91
        4
176
     1
 64
     7
176
     1
 65
   257
176
     1
 75
     1
176
     1
175
     1
176
     1
 42
1.0
176
     1
 92
        8
176
     1
 66
     7
176
     1
 43
1.0
176
     1
 76
     1
176
     1
 77
     6
176
     1
 78
     2
176
     1
 67
     7
176
     1
 79
     5
176
     1
170
     0
176
     1
171
     0
176
     1
290
     0
176
     1
 93
        1
176
     1
 44
0.0
176
     1
173
     0
176
     1
  0
VISUALSTYLE
  5
2B
102
{ACAD_REACTORS
330
2A
102
}
330
2A
100
AcDbVisualStyle
  2
Flat
 70
     0
177
     2
291
     1
 71
     2
176
     1
 72
     1
176
     1
 73
     1
176
     1
 90
        2
176
     1
 40
-0.6
176
     1
 41
30.0
176
     1
 62
     5
 63
     7
421
 16777215
176
     1
 74
     0
176
     1
 91
        4
176
     1
 64
     7
176
     1
 65
   257
176
     1
 75
     1
176
     1
175
     1
176
     1
 42
1.0
176
     1
 92
        8
176
     1
 66
     7
176
     1
 43
1.0
176
     1
 76
     1
176
     1
 77
     6
176
     1
 78
     2
176
     1
 67
     7
176
     1
 79
     5
176
     1
170
     0
176
     1
171
     0
176
     1
290
     0
176
     1
 93
       13
176
     1
 44
0.0
176
     1
173
     0
176
     1
  0
VISUALSTYLE
  5
2C
102
{ACAD_REACTORS
330
2A
102
}
330
2A
100
AcDbVisualStyle
  2
FlatWithEdges
 70
     1
177
     2
291
     1
 71
     2
176
     1
 72
     1
176
     1
 73
     1
176
     1
 90
        2
176
     1
 40
-0.6
176
     1
 41
30.0
176
     1
 62
     5
 63
     7
421
 16777215
176
     1
 74
     1
176
     1
 91
        4
176
     1
 64
     7
176
     1
 65
   257
176
     1
 75
     1
176
     1
175
     1
176
     1
 42
1.0
176
     1
 92
        0
176
     1
 66
   257
176
     1
 43
1.0
176
     1
 76
     1
176
     1
 77
     6
176
     1
 78
     2
176
     1
 67
     7
176
     1
 79
     5
176
     1
170
     0
176
     1
171
     0
176
     1
290
     0
176
     1
 93
       13
176
     1
 44
0.0
176
     1
173
     0
176
     1
  0
VISUALSTYLE
  5
2D
102
{ACAD_REACTORS
330
2A
102
}
330
2A
100
AcDbVisualStyle
  2
Gouraud
 70
     2
177
     2
291
     1
 71
     2
176
     1
 72
     2
176
     1
 73
     1
176
     1
 90
        2
176
     1
 40
-0.6
176
     1
 41
30.0
176
     1
 62
     5
 63
     7
421
 16777215
176
     1
 74
     0
176
     1
 91
        4
176
     1
 64
     7
176
     1
 65
   257
176
     1
 75
     1
176
     1
175
     1
176
     1
 42
1.0
176
     1
 92
        0
176
     1
 66
     7
176
     1
 43
1.0
176
     1
 76
     1
176
     1
 77
     6
176
     1
 78
     2
176
     1
 67
     7
176
     1
 79
     5
176
     1
170
     0
176
     1
171
     0
176
     1
290
     0
176
     1
 93
       13
176
     1
 44
0.0
176
     1
173
     0
176
     1
  0
VISUALSTYLE
  5
2E
102
{ACAD_REACTORS
330
2A
102
}
330
2A
100
AcDbVisualStyle
  2
GouraudWithEdges
 70
     3
177
     2
291
     1
 71
     2
176
     1
 72
     2
176
     1
 73
     1
176
     1
 90
        2
176
     1
 40
-0.6
176
     1
 41
30.0
176
     1
 62
     5
 63
     7
421
 16777215
176
     1
 74
     1
176
     1
 91
        4
176
     1
 64
     7
176
     1
 65
   257
176
     1
 75
     1
176
     1
175
     1
176
     1
 42
1.0
176
     1
 92
        0
176
     1
 66
   257
176
     1
 43
1.0
176
     1
 76
     1
176
     1
 77
     6
176
     1
 78
     2
176
     1
 67
     7
176
     1
 79
     5
176
     1
170
     0
176
     1
171
     0
176
     1
290
     0
176
     1
 93
       13
176
     1
 44
0.0
176
     1
173
     0
176
     1
  0
VISUALSTYLE
  5
38
102
{ACAD_REACTORS
330
2A
102
}
330
2A
100
AcDbVisualStyle
  2
Linepattern
 70
    14
177
     2
291
     1
 71
     2
176
     1
 72
     2
176
     1
 73
     0
176
     1
 90
        0
176
     1
 40
-0.6
176
     1
 41
-30.0
176
     1
 62
     5
 63
     7
421
 16777215
176
     1
 74
     1
176
     1
 91
        4
176
     1
 64
     7
176
     1
 65
   257
176
     1
 75
     7
176
     1
175
     7
176
     1
 42
1.0
176
     1
 92
        8
176
     1
 66
     7
176
     1
 43
1.0
176
     1
 76
     1
176
     1
 77
     6
176
     1
 78
     2
176
     1
 67
     7
176
     1
 79
     5
176
     1
170
     0
176
     1
171
     0
176
     1
290
     0
176
     1
 93
        1
176
     1
 44
0.0
176
     1
173
     0
176
     1
  0
VISUALSTYLE
  5
33
102
{ACAD_REACTORS
330
2A
102
}
330
2A
100
AcDbVisualStyle
  2
Realistic
 70
     8
177
     2
291
     0
 71
     2
176
     1
 72
     2
176
     1
 73
     0
176
     1
 90
        0
176
     1
 40
-0.6
176
     1
 41
-30.0
176
     1
 62
     5
 63
     7
421
 16777215
176
     1
 74
     1
176
     1
 91
        0
176
     1
 64
     7
176
     1
 65
   257
176
     1
 75
     1
176
     1
175
     1
176
     1
 42
1.0
176
     1
 92
        8
176
     1
 66
     8
424
  7895160
176
     1
 43
1.0
176
     1
 76
     1
176
     1
 77
     6
176
     1
 78
     2
176
     1
 67
     7
176
     1
 79
     5
176
     1
170
     0
176
     1
171
     0
176
     1
290
     0
176
     1
 93
       13
176
     1
 44
0.0
176
     1
173
     0
176
     1
  0
VISUALSTYLE
  5
37
102
{ACAD_REACTORS
330
2A
102
}
330
2A
100
AcDbVisualStyle
  2
Thicken
 70
    13
177
     2
291
     1
 71
     2
176
     1
 72
     2
176
     1
 73
     0
176
     1
 90
        0
176
     1
 40
-0.6
176
     1
 41
-30.0
176
     1
 62
     5
 63
     7
421
 16777215
176
     1
 74
     1
176
     1
 91
        4
176
     1
 64
     7
176
     1
 65
   257
176
     1
 75
     1
176
     1
175
     1
176
     1
 42
1.0
176
     1
 92
       12
176
     1
 66
     7
176
     1
 43
1.0
176
     1
 76
     1
176
     1
 77
     6
176
     1
 78
     2
176
     1
 67
     7
176
     1
 79
     5
176
     1
170
     0
176
     1
171
     0
176
     1
290
     0
176
     1
 93
        1
176
     1
 44
0.0
176
     1
173
     0
176
     1
  0
ENDSEC
  0
EOF
