  0
SECTION
  2
HEADER
  9
$ACADVER
  1
AC1024
  9
$ACADMAINTVER
 70
     6
  9
$DWGCODEPAGE
  3
ANSI_1252
  9
$INSBASE
 10
0.0
 20
0.0
 30
0.0
  9
$EXTMIN
 10
1.000000000000000E+20
 20
1.000000000000000E+20
 30
1.000000000000000E+20
  9
$EXTMAX
 10
-1.000000000000000E+20
 20
-1.000000000000000E+20
 30
-1.000000000000000E+20
  9
$LIMMIN
 10
0.0
 20
0.0
  9
$LIMMAX
 10
12.0
 20
9.0
  9
$ORTHOMODE
 70
     0
  9
$REGENMODE
 70
     1
  9
$FILLMODE
 70
     1
  9
$QTEXTMODE
 70
     0
  9
$MIRRTEXT
 70
     1
  9
$LTSCALE
 40
1.0
  9
$ATTMODE
 70
     1
  9
$TEXTSIZE
 40
0.2
  9
$TRACEWID
 40
0.05
  9
$TEXTSTYLE
  7
Standard
  9
$CLAYER
  8
0
  9
$CELTYPE
  6
ByLayer
  9
$CECOLOR
 62
   256
  9
$CELTSCALE
 40
1.0
  9
$DISPSILH
 70
     0
  9
$DIMSCALE
 40
1.0
  9
$DIMASZ
 40
0.18
  9
$DIMEXO
 40
0.0625
  9
$DIMDLI
 40
0.38
  9
$DIMRND
 40
0.0
  9
$DIMDLE
 40
0.0
  9
$DIMEXE
 40
0.18
  9
$DIMTP
 40
0.0
  9
$DIMTM
 40
0.0
  9
$DIMTXT
 40
0.18
  9
$DIMCEN
 40
0.09
  9
$DIMTSZ
 40
0.0
  9
$DIMTOL
 70
     0
  9
$DIMLIM
 70
     0
  9
$DIMTIH
 70
     1
  9
$DIMTOH
 70
     1
  9
$DIMSE1
 70
     0
  9
$DIMSE2
 70
     0
  9
$DIMTAD
 70
     0
  9
$DIMZIN
 70
     0
  9
$DIMBLK
  1

  9
$DIMASO
 70
     1
  9
$DIMSHO
 70
     1
  9
$DIMPOST
  1

  9
$DIMAPOST
  1

  9
$DIMALT
 70
     0
  9
$DIMALTD
 70
     2
  9
$DIMALTF
 40
25.4
  9
$DIMLFAC
 40
1.0
  9
$DIMTOFL
 70
     0
  9
$DIMTVP
 40
0.0
  9
$DIMTIX
 70
     0
  9
$DIMSOXD
 70
     0
  9
$DIMSAH
 70
     0
  9
$DIMBLK1
  1

  9
$DIMBLK2
  1

  9
$DIMSTYLE
  2
Standard
  9
$DIMCLRD
 70
     0
  9
$DIMCLRE
 70
     0
  9
$DIMCLRT
 70
     0
  9
$DIMTFAC
 40
1.0
  9
$DIMGAP
 40
0.09
  9
$DIMJUST
 70
     0
  9
$DIMSD1
 70
     0
  9
$DIMSD2
 70
     0
  9
$DIMTOLJ
 70
     1
  9
$DIMTZIN
 70
     0
  9
$DIMALTZ
 70
     0
  9
$DIMALTTZ
 70
     0
  9
$DIMUPT
 70
     0
  9
$DIMDEC
 70
     4
  9
$DIMTDEC
 70
     4
  9
$DIMALTU
 70
     2
  9
$DIMALTTD
 70
     2
  9
$DIMTXSTY
  7
Standard
  9
$DIMAUNIT
 70
     0
  9
$DIMADEC
 70
     0
  9
$DIMALTRND
 40
0.0
  9
$DIMAZIN
 70
     0
  9
$DIMDSEP
 70
    46
  9
$DIMATFIT
 70
     3
  9
$DIMFRAC
 70
     0
  9
$DIMLDRBLK
  1

  9
$DIMLUNIT
 70
     2
  9
$DIMLWD
 70
    -2
  9
$DIMLWE
 70
    -2
  9
$DIMTMOVE
 70
     0
  9
$DIMFXL
 40
1.0
  9
$DIMFXLON
 70
     0
  9
$DIMJOGANG
 40
0.7853981633974483
  9
$DIMTFILL
 70
     0
  9
$DIMTFILLCLR
 70
     0
  9
$DIMARCSYM
 70
     0
  9
$DIMLTYPE
  6

  9
$DIMLTEX1
  6

  9
$DIMLTEX2
  6

  9
$DIMTXTDIRECTION
 70
     0
  9
$LUNITS
 70
     2
  9
$LUPREC
 70
     4
  9
$SKETCHINC
 40
0.1
  9
$FILLETRAD
 40
0.5
  9
$AUNITS
 70
     0
  9
$AUPREC
 70
     0
  9
$MENU
  1
.
  9
$ELEVATION
 40
0.0
  9
$PELEVATION
 40
0.0
  9
$THICKNESS
 40
0.0
  9
$LIMCHECK
 70
     0
  9
$CHAMFERA
 40
0.5
  9
$CHAMFERB
 40
0.5
  9
$CHAMFERC
 40
1.0
  9
$CHAMFERD
 40
0.0
  9
$SKPOLY
 70
     0
  9
$TDCREATE
 40
2457886.996315521
  9
$TDUCREATE
 40
2457887.287982188
  9
$TDUPDATE
 40
2457886.996315683
  9
$TDUUPDATE
 40
2457887.28798235
  9
$TDINDWG
 40
0.0000000116
  9
$TDUSRTIMER
 40
0.0000000116
  9
$USRTIMER
 70
     1
  9
$ANGBASE
 50
0.0
  9
$ANGDIR
 70
     0
  9
$PDMODE
 70
     0
  9
$PDSIZE
 40
0.0
  9
$PLINEWID
 40
0.0
  9
$SPLFRAME
 70
     0
  9
$SPLINETYPE
 70
     6
  9
$SPLINESEGS
 70
     8
  9
$HANDSEED
  5
71
  9
$SURFTAB1
 70
     6
  9
$SURFTAB2
 70
     6
  9
$SURFTYPE
 70
     6
  9
$SURFU
 70
     6
  9
$SURFV
 70
     6
  9
$UCSBASE
  2

  9
$UCSNAME
  2

  9
$UCSORG
 10
0.0
 20
0.0
 30
0.0
  9
$UCSXDIR
 10
1.0
 20
0.0
 30
0.0
  9
$UCSYDIR
 10
0.0
 20
1.0
 30
0.0
  9
$UCSORTHOREF
  2

  9
$UCSORTHOVIEW
 70
     0
  9
$UCSORGTOP
 10
0.0
 20
0.0
 30
0.0
  9
$UCSORGBOTTOM
 10
0.0
 20
0.0
 30
0.0
  9
$UCSORGLEFT
 10
0.0
 20
0.0
 30
0.0
  9
$UCSORGRIGHT
 10
0.0
 20
0.0
 30
0.0
  9
$UCSORGFRONT
 10
0.0
 20
0.0
 30
0.0
  9
$UCSORGBACK
 10
0.0
 20
0.0
 30
0.0
  9
$PUCSBASE
  2

  9
$PUCSNAME
  2

  9
$PUCSORG
 10
0.0
 20
0.0
 30
0.0
  9
$PUCSXDIR
 10
1.0
 20
0.0
 30
0.0
  9
$PUCSYDIR
 10
0.0
 20
1.0
 30
0.0
  9
$PUCSORTHOREF
  2

  9
$PUCSORTHOVIEW
 70
     0
  9
$PUCSORGTOP
 10
0.0
 20
0.0
 30
0.0
  9
$PUCSORGBOTTOM
 10
0.0
 20
0.0
 30
0.0
  9
$PUCSORGLEFT
 10
0.0
 20
0.0
 30
0.0
  9
$PUCSORGRIGHT
 10
0.0
 20
0.0
 30
0.0
  9
$PUCSORGFRONT
 10
0.0
 20
0.0
 30
0.0
  9
$PUCSORGBACK
 10
0.0
 20
0.0
 30
0.0
  9
$USERI1
 70
     0
  9
$USERI2
 70
     0
  9
$USERI3
 70
     0
  9
$USERI4
 70
     0
  9
$USERI5
 70
     0
  9
$USERR1
 40
0.0
  9
$USERR2
 40
0.0
  9
$USERR3
 40
0.0
  9
$USERR4
 40
0.0
  9
$USERR5
 40
0.0
  9
$WORLDVIEW
 70
     1
  9
$SHADEDGE
 70
     3
  9
$SHADEDIF
 70
    70
  9
$TILEMODE
 70
     1
  9
$MAXACTVP
 70
    64
  9
$PINSBASE
 10
0.0
 20
0.0
 30
0.0
  9
$PLIMCHECK
 70
     0
  9
$PEXTMIN
 10
1.000000000000000E+20
 20
1.000000000000000E+20
 30
1.000000000000000E+20
  9
$PEXTMAX
 10
-1.000000000000000E+20
 20
-1.000000000000000E+20
 30
-1.000000000000000E+20
  9
$PLIMMIN
 10
0.0
 20
0.0
  9
$PLIMMAX
 10
12.0
 20
9.0
  9
$UNITMODE
 70
     0
  9
$VISRETAIN
 70
     1
  9
$PLINEGEN
 70
     0
  9
$PSLTSCALE
 70
     1
  9
$TREEDEPTH
 70
  3020
  9
$CMLSTYLE
  2
Standard
  9
$CMLJUST
 70
     0
  9
$CMLSCALE
 40
1.0
  9
$PROXYGRAPHICS
 70
     1
  9
$MEASUREMENT
 70
     0
  9
$CELWEIGHT
370
    -1
  9
$ENDCAPS
280
     0
  9
$JOINSTYLE
280
     0
  9
$LWDISPLAY
290
     1
  9
$INSUNITS
 70
     1
  9
$HYPERLINKBASE
  1

  9
$STYLESHEET
  1

  9
$XEDIT
290
     1
  9
$CEPSNTYPE
380
     0
  9
$PSTYLEMODE
290
     1
  9
$FINGERPRINTGUID
  2
{1E129BFA-4E98-4081-B4EF-BD6BD590CEB2}
  9
$VERSIONGUID
  2
{FAEB1C32-E019-11D5-929B-00C0DF256EC4}
  9
$EXTNAMES
290
     1
  9
$PSVPSCALE
 40
0.0
  9
$OLESTARTUP
290
     0
  9
$SORTENTS
280
   127
  9
$INDEXCTL
280
     0
  9
$HIDETEXT
280
     1
  9
$XCLIPFRAME
280
     2
  9
$HALOGAP
280
     0
  9
$OBSCOLOR
 70
   257
  9
$OBSLTYPE
280
     0
  9
$INTERSECTIONDISPLAY
280
     0
  9
$INTERSECTIONCOLOR
 70
   257
  9
$DIMASSOC
280
     2
  9
$PROJECTNAME
  1

  9
$CAMERADISPLAY
290
     0
  9
$LENSLENGTH
 40
50.0
  9
$CAMERAHEIGHT
 40
0.0
  9
$STEPSPERSEC
 40
2.0
  9
$STEPSIZE
 40
6.0
  9
$3DDWFPREC
 40
2.0
  9
$PSOLWIDTH
 40
0.25
  9
$PSOLHEIGHT
 40
4.0
  9
$LOFTANG1
 40
1.570796326794897
  9
$LOFTANG2
 40
1.570796326794897
  9
$LOFTMAG1
 40
0.0
  9
$LOFTMAG2
 40
0.0
  9
$LOFTPARAM
 70
     7
  9
$LOFTNORMALS
280
     1
  9
$LATITUDE
 40
37.795
  9
$LONGITUDE
 40
-122.394
  9
$NORTHDIRECTION
 40
0.0
  9
$TIMEZONE
 70
 -8000
  9
$LIGHTGLYPHDISPLAY
280
     1
  9
$TILEMODELIGHTSYNCH
280
     1
  9
$CMATERIAL
347
3C
  9
$SOLIDHIST
280
     1
  9
$SHOWHIST
280
     1
  9
$DWFFRAME
280
     2
  9
$DGNFRAME
280
     2
  9
$REALWORLDSCALE
290
     1
  9
$INTERFERECOLOR
 62
   256
  9
$CSHADOW
280
     0
  9
$SHADOWPLANELOCATION
 40
0.0
  0
ENDSEC
  0
SECTION
  2
CLASSES
  0
CLASS
  1
ACDBDICTIONARYWDFLT
  2
AcDbDictionaryWithDefault
  3
ObjectDBX Classes
 90
        0
 91
        4
280
     0
281
     0
  0
CLASS
  1
VISUALSTYLE
  2
AcDbVisualStyle
  3
ObjectDBX Classes
 90
     4095
 91
        4
280
     0
281
     0
  0
CLASS
  1
MATERIAL
  2
AcDbMaterial
  3
ObjectDBX Classes
 90
     1153
 91
        4
280
     0
281
     0
  0
CLASS
  1
SUN
  2
AcDbSun
  3
SCENEOE
 90
     1024
 91
        4
280
     0
281
     0
  0
ENDSEC
  0
SECTION
  2
TABLES
  0
TABLE
  2
VPORT
  5
8
330
0
100
AcDbSymbolTable
 70
     1
  0
VPORT
  5
29
330
8
100
AcDbSymbolTableRecord
100
AcDbViewportTableRecord
  2
*Active
 70
     0
 10
0.0
 20
0.0
 11
1.0
 21
1.0
 12
0.0
 22
0.0
 13
0.0
 23
0.0
 14
0.5
 24
0.5
 15
0.5
 25
0.5
 16
0.0
 26
0.0
 36
1.0
 17
304.7999999238
 27
-276.2249999309437
 37
0.0
 40
552.4499998618875
 41
1.103448275862069
 42
50.0
 43
0.0
 44
0.0
 50
0.0
 51
0.0
 71
     0
 72
   100
 73
     1
 74
     3
 75
     0
 76
     0
 77
     0
 78
     0
281
     0
 65
     1
110
0.0
120
0.0
130
0.0
111
1.0
121
0.0
131
0.0
112
0.0
122
1.0
132
0.0
 79
     0
146
0.0
 60
     3
 61
     5
292
     1
282
     1
141
0.0
142
0.0
 63
   250
361
3F
  0
ENDTAB
  0
TABLE
  2
LTYPE
  5
5
330
0
100
AcDbSymbolTable
 70
     1
  0
LTYPE
  5
14
330
5
100
AcDbSymbolTableRecord
100
AcDbLinetypeTableRecord
  2
ByBlock
 70
     0
  3

 72
    65
 73
     0
 40
0.0
  0
LTYPE
  5
15
330
5
100
AcDbSymbolTableRecord
100
AcDbLinetypeTableRecord
  2
ByLayer
 70
     0
  3

 72
    65
 73
     0
 40
0.0
  0
LTYPE
  5
16
330
5
100
AcDbSymbolTableRecord
100
AcDbLinetypeTableRecord
  2
Continuous
 70
     0
  3
Solid line
 72
    65
 73
     0
 40
0.0
  0
ENDTAB
  0
TABLE
  2
LAYER
  5
2
330
0
100
AcDbSymbolTable
 70
     2
  0
LAYER
  5
10
330
2
100
AcDbSymbolTableRecord
100
AcDbLayerTableRecord
  2
0
 70
     0
 62
     7
  6
Continuous
370
    -3
390
F
347
3E
  0
LAYER
  5
40
330
2
100
AcDbSymbolTableRecord
100
AcDbLayerTableRecord
  2
Layer 1
 70
     0
 62
     7
  6
Continuous
370
    -3
390
F
347
3E
  0
ENDTAB
  0
TABLE
  2
STYLE
  5
3
330
0
100
AcDbSymbolTable
 70
     1
  0
STYLE
  5
11
330
3
100
AcDbSymbolTableRecord
100
AcDbTextStyleTableRecord
  2
Standard
 70
     0
 40
0.0
 41
1.0
 50
0.0
 71
     0
 42
0.2
  3
txt
  4

  0
ENDTAB
  0
TABLE
  2
VIEW
  5
6
330
0
100
AcDbSymbolTable
 70
     0
  0
ENDTAB
  0
TABLE
  2
UCS
  5
7
330
0
100
AcDbSymbolTable
 70
     0
  0
ENDTAB
  0
TABLE
  2
APPID
  5
9
330
0
100
AcDbSymbolTable
 70
     1
  0
APPID
  5
12
330
9
100
AcDbSymbolTableRecord
100
AcDbRegAppTableRecord
  2
ACAD
 70
     0
  0
ENDTAB
  0
TABLE
  2
DIMSTYLE
  5
A
330
0
100
AcDbSymbolTable
 70
     1
100
AcDbDimStyleTable
  0
DIMSTYLE
105
27
330
A
100
AcDbSymbolTableRecord
100
AcDbDimStyleTableRecord
  2
Standard
 70
     0
178
     0
340
11
  0
ENDTAB
  0
TABLE
  2
BLOCK_RECORD
  5
1
330
0
100
AcDbSymbolTable
 70
     2
  0
BLOCK_RECORD
  5
1F
330
1
100
AcDbSymbolTableRecord
100
AcDbBlockTableRecord
  2
*Model_Space
340
22
 70
     0
280
     1
281
     0
  0
BLOCK_RECORD
  5
1B
330
1
100
AcDbSymbolTableRecord
100
AcDbBlockTableRecord
  2
*Paper_Space
340
1E
 70
     0
280
     1
281
     0
  0
BLOCK_RECORD
  5
23
330
1
100
AcDbSymbolTableRecord
100
AcDbBlockTableRecord
  2
*Paper_Space0
340
26
 70
     0
280
     1
281
     0
  0
BLOCK_RECORD
  5
48
330
1
100
AcDbSymbolTableRecord
100
AcDbBlockTableRecord
  2
block 2
340
0
102
{BLKREFS
331
49
102
}
 70
     0
280
     1
281
     0
  0
ENDTAB
  0
ENDSEC
  0
SECTION
  2
BLOCKS
  0
BLOCK
  5
20
330
1F
100
AcDbEntity
  8
0
100
AcDbBlockBegin
  2
*Model_Space
 70
     0
 10
0.0
 20
0.0
 30
0.0
  3
*Model_Space
  1

  0
ENDBLK
  5
21
330
1F
100
AcDbEntity
  8
0
100
AcDbBlockEnd
  0
BLOCK
  5
1C
330
1B
100
AcDbEntity
 67
     1
  8
0
100
AcDbBlockBegin
  2
*Paper_Space
 70
     0
 10
0.0
 20
0.0
 30
0.0
  3
*Paper_Space
  1

  0
ENDBLK
  5
1D
330
1B
100
AcDbEntity
 67
     1
  8
0
100
AcDbBlockEnd
  0
BLOCK
  5
24
330
23
100
AcDbEntity
  8
0
100
AcDbBlockBegin
  2
*Paper_Space0
 70
     0
 10
0.0
 20
0.0
 30
0.0
  3
*Paper_Space0
  1

  0
ENDBLK
  5
25
330
23
100
AcDbEntity
  8
0
100
AcDbBlockEnd
  0
BLOCK
  5
4A
330
48
100
AcDbEntity
  8
0
100
AcDbBlockBegin
  2
block 2
 70
     0
 10
0.0
 20
0.0
 30
0.0
  3
block 2
  1

  0
SPLINE
  5
4C
330
48
100
AcDbEntity
  8
Layer 1
 62
   165
420
  4285358
370
    35
100
AcDbSpline
210
0.0
220
0.0
230
1.0
 70
    11
 71
     3
 72
    17
 73
    13
 74
     0
 42
0.0000000001
 43
0.0000000001
 12
1.0
 22
0.0
 32
0.0
 13
1.0
 23
0.0
 33
0.0
 40
0.0
 40
0.0
 40
0.0
 40
0.0
 40
1.0
 40
1.0
 40
1.0
 40
2.0
 40
2.0
 40
2.0
 40
3.0
 40
3.0
 40
3.0
 40
4.0
 40
4.0
 40
4.0
 40
4.0
 10
15.33980253179245
 20
-441.5910676383571
 30
0.0
 10
15.33980253179245
 20
-311.6974229321957
 30
0.0
 10
15.33980253179245
 20
-181.8037640349595
 30
0.0
 10
15.33980253179245
 20
-51.91010513772657
 30
0.0
 10
23.08085485642959
 20
-51.90030620178323
 30
0.0
 10
30.82187701445928
 20
-51.89050371807296
 30
0.0
 10
38.56271817286543
 20
-51.88087862277452
 30
0.0
 10
38.56241650682396
 20
-181.7944546910411
 30
0.0
 10
38.56229584040699
 20
-311.7078391798146
 30
0.0
 10
38.56217517398905
 20
-441.6212378596623
 30
0.0
 10
30.82139434879235
 20
-441.6111905799424
 30
0.0
 10
23.0805833569898
 20
-441.6011149180795
 30
0.0
 10
15.33980253179245
 20
-441.5910676383571
 30
0.0
  0
SPLINE
  5
4D
330
48
100
AcDbEntity
  8
Layer 1
 62
   165
420
  4285358
370
    35
100
AcDbSpline
210
0.0
220
0.0
230
1.0
 70
    11
 71
     3
 72
    29
 73
    25
 74
     0
 42
0.0000000001
 43
0.0000000001
 12
1.0
 22
0.0
 32
0.0
 13
1.0
 23
0.0
 33
0.0
 40
0.0
 40
0.0
 40
0.0
 40
0.0
 40
1.0
 40
1.0
 40
1.0
 40
2.0
 40
2.0
 40
2.0
 40
3.0
 40
3.0
 40
3.0
 40
4.0
 40
4.0
 40
4.0
 40
5.0
 40
5.0
 40
5.0
 40
6.0
 40
6.0
 40
6.0
 40
7.0
 40
7.0
 40
7.0
 40
8.0
 40
8.0
 40
8.0
 40
8.0
 10
383.5557877182281
 20
-51.91010513772657
 30
0.0
 10
383.5557877182281
 20
-181.8037640349595
 30
0.0
 10
383.5557877182281
 20
-311.6974229321957
 30
0.0
 10
383.5557877182281
 20
-441.5910676383571
 30
0.0
 10
375.8131403343908
 20
-441.6020799110435
 30
0.0
 10
368.0704929505536
 20
-441.6130921837344
 30
0.0
 10
360.3279115561642
 20
-441.6240476921262
 30
0.0
 10
360.3061934864945
 20
-434.3127217096902
 30
0.0
 10
360.284407541965
 20
-427.0014524915456
 30
0.0
 10
360.2626215974341
 20
-419.6901548912579
 30
0.0
 10
360.2837646162094
 20
-418.9936854080485
 30
0.0
 10
360.3234129613011
 20
-418.2972443069837
 30
0.0
 10
360.3234318154276
 20
-417.6007748237769
 30
0.0
 10
360.3261807472427
 20
-318.0991011320473
 30
0.0
 10
360.3262127992595
 20
-218.5974416313897
 30
0.0
 10
360.322713473164
 20
-119.0957750351969
 30
0.0
 10
360.3226889627967
 20
-118.399908672598
 30
0.0
 10
360.2722466296144
 20
-117.704035214454
 30
0.0
 10
360.2453455602461
 20
-117.0081688518492
 30
0.0
 10
360.2606626535702
 20
-95.30715155974985
 30
0.0
 10
360.2759797468937
 20
-73.60612717211018
 30
0.0
 10
360.2912968402172
 20
-51.90510988001015
 30
0.0
 10
368.0461277613586
 20
-51.90677378332803
 30
0.0
 10
375.8009577397928
 20
-51.90844123440932
 30
0.0
 10
383.5557877182281
 20
-51.91010513772657
 30
0.0
  0
SPLINE
  5
4E
330
48
100
AcDbEntity
  8
Layer 1
 62
   165
420
  4285358
370
    35
100
AcDbSpline
210
0.0
220
0.0
230
1.0
 70
    11
 71
     3
 72
    38
 73
    34
 74
     0
 42
0.0000000001
 43
0.0000000001
 12
1.0
 22
0.0
 32
0.0
 13
1.0
 23
0.0
 33
0.0
 40
0.0
 40
0.0
 40
0.0
 40
0.0
 40
1.0
 40
1.0
 40
1.0
 40
2.0
 40
2.0
 40
2.0
 40
3.0
 40
3.0
 40
3.0
 40
4.0
 40
4.0
 40
4.0
 40
5.0
 40
5.0
 40
5.0
 40
6.0
 40
6.0
 40
6.0
 40
7.0
 40
7.0
 40
7.0
 40
8.0
 40
8.0
 40
8.0
 40
9.0
 40
9.0
 40
9.0
 40
10.0
 40
10.0
 40
10.0
 40
11.0
 40
11.0
 40
11.0
 40
11.0
 10
61.30501947452944
 20
-8.663888535626306
 30
0.0
 10
153.4002082692848
 20
-8.663888535626306
 30
0.0
 10
245.4953819807371
 20
-8.663888535626306
 30
0.0
 10
337.5905707754928
 20
-8.663888535626306
 30
0.0
 10
337.5922865011096
 20
-15.95961498101025
 30
0.0
 10
337.5940059975553
 20
-23.25534142639644
 30
0.0
 10
337.5957292648248
 20
-30.55111754054023
 30
0.0
 10
328.3196605938086
 20
-30.5406125987095
 30
0.0
 10
319.0435692978396
 20
-30.51508285829421
 30
0.0
 10
309.767504397651
 20
-30.52302631143112
 30
0.0
 10
295.9780328313015
 20
-30.53483505809816
 30
0.0
 10
282.1885688066066
 20
-30.57031628849365
 30
0.0
 10
268.3992254483271
 20
-30.59568105768669
 30
0.0
 10
260.8184407505869
 20
-30.59566154495973
 30
0.0
 10
253.2375353864291
 20
-30.5956881532228
 30
0.0
 10
245.6566224806206
 20
-30.59571476148587
 30
0.0
 10
237.9159019886314
 20
-30.59561719785782
 30
0.0
 10
230.1751664133411
 20
-30.59551963422976
 30
0.0
 10
222.4344459213535
 20
-30.59542384449014
 30
0.0
 10
221.4478772949355
 20
-30.57011761346964
 30
0.0
 10
220.4612935852147
 20
-30.5227566810463
 30
0.0
 10
219.4747249587992
 20
-30.52267508237731
 30
0.0
 10
175.4979246539646
 20
-30.51900668999302
 30
0.0
 10
131.5211243491325
 20
-30.5191148969238
 30
0.0
 10
87.54432404429855
 20
-30.52199745863629
 30
0.0
 10
86.5571219191914
 20
-30.5220630923504
 30
0.0
 10
85.56994996068883
 20
-30.55932530241429
 30
0.0
 10
84.58274783558136
 20
-30.57923537790278
 30
0.0
 10
76.81149874006032
 20
-30.55873814676586
 30
0.0
 10
69.04024964453797
 20
-30.53824268951256
 30
0.0
 10
61.26900054901724
 20
-30.51774545837146
 30
0.0
 10
61.2810068575212
 20
-23.23312707542062
 30
0.0
 10
61.29301316602483
 20
-15.94850780552555
 30
0.0
 10
61.30501947452944
 20
-8.663888535626306
 30
0.0
  0
SPLINE
  5
4F
330
48
100
AcDbEntity
  8
Layer 1
 62
   165
420
  4285358
370
    35
100
AcDbSpline
210
0.0
220
0.0
230
1.0
 70
    11
 71
     3
 72
    17
 73
    13
 74
     0
 42
0.0000000001
 43
0.0000000001
 12
1.0
 22
0.0
 32
0.0
 13
1.0
 23
0.0
 33
0.0
 40
0.0
 40
0.0
 40
0.0
 40
0.0
 40
1.0
 40
1.0
 40
1.0
 40
2.0
 40
2.0
 40
2.0
 40
3.0
 40
3.0
 40
3.0
 40
4.0
 40
4.0
 40
4.0
 40
4.0
 10
337.5905707754928
 20
-484.8372842404548
 30
0.0
 10
245.4953819807371
 20
-484.8372842404548
 30
0.0
 10
153.4002082692848
 20
-484.8372842404548
 30
0.0
 10
61.30501947452944
 20
-484.8372842404548
 30
0.0
 10
61.2946119960523
 20
-477.5541701112405
 30
0.0
 10
61.28420451757581
 20
-470.2710275998888
 30
0.0
 10
61.27394787211925
 20
-462.9880837635541
 30
0.0
 10
153.390042123641
 20
-462.98816890999
 30
0.0
 10
245.505925208933
 20
-462.9880553814083
 30
0.0
 10
337.6218158358767
 20
-462.9879418528241
 30
0.0
 10
337.6114008157492
 20
-470.2710559820352
 30
0.0
 10
337.6009857956203
 20
-477.5541701112405
 30
0.0
 10
337.5905707754928
 20
-484.8372842404548
 30
0.0
  0
SPLINE
  5
50
330
48
100
AcDbEntity
  8
Layer 1
 62
   165
420
  4285358
370
    35
100
AcDbSpline
210
0.0
220
0.0
230
1.0
 70
    11
 71
     3
 72
    35
 73
    31
 74
     0
 42
0.0000000001
 43
0.0000000001
 12
1.0
 22
0.0
 32
0.0
 13
1.0
 23
0.0
 33
0.0
 40
0.0
 40
0.0
 40
0.0
 40
0.0
 40
1.0
 40
1.0
 40
1.0
 40
2.0
 40
2.0
 40
2.0
 40
3.0
 40
3.0
 40
3.0
 40
4.0
 40
4.0
 40
4.0
 40
5.0
 40
5.0
 40
5.0
 40
6.0
 40
6.0
 40
6.0
 40
7.0
 40
7.0
 40
7.0
 40
8.0
 40
8.0
 40
8.0
 40
9.0
 40
9.0
 40
9.0
 40
10.0
 40
10.0
 40
10.0
 40
10.0
 10
337.5957217231734
 20
-30.55106787178198
 30
0.0
 10
337.5940059975553
 20
-23.25534142639644
 30
0.0
 10
337.5922865011096
 20
-15.95961498101025
 30
0.0
 10
337.5905707754928
 20
-8.663888535626306
 30
0.0
 10
352.3783118398914
 20
-8.663888535626306
 30
0.0
 10
367.1661509457566
 20
-8.685963026929986
 30
0.0
 10
381.9536266383101
 20
-8.627221519119857
 30
0.0
 10
383.3212961042054
 20
-8.62178861093054
 30
0.0
 10
383.6005315091602
 20
-8.884559666138664
 30
0.0
 10
383.5947576093169
 20
-10.17129247554121
 30
0.0
 10
383.5323278217568
 20
-24.08403268499457
 30
0.0
 10
383.5557877182281
 20
-37.99711680623037
 30
0.0
 10
383.5557877182281
 20
-51.91010513772657
 30
0.0
 10
375.8009577397928
 20
-51.90844123440932
 30
0.0
 10
368.0461277613586
 20
-51.90677378332803
 30
0.0
 10
360.2912138820553
 20
-51.90510278447564
 30
0.0
 10
360.2912138820553
 20
-51.90510278447564
 30
0.0
 10
360.3305888422943
 20
-51.94689904237779
 30
0.0
 10
360.3305888422943
 20
-51.94689904237779
 30
0.0
 10
360.3290352621732
 20
-45.43708486587348
 30
0.0
 10
360.2777048995757
 20
-38.92669949868205
 30
0.0
 10
360.3628652234627
 20
-32.41788756671529
 30
0.0
 10
360.3827789531134
 20
-30.89598722394236
 30
0.0
 10
359.9258887625579
 20
-30.46613429957078
 30
0.0
 10
358.3083083056729
 20
-30.48486828988262
 30
0.0
 10
351.3902725915165
 20
-30.56499108833144
 30
0.0
 10
344.4705626308232
 20
-30.51669886673715
 30
0.0
 10
337.5514635438668
 20
-30.51523718621149
 30
0.0
 10
337.5514635438668
 20
-30.51523718621149
 30
0.0
 10
337.5957217231734
 20
-30.55106787178198
 30
0.0
 10
337.5957217231734
 20
-30.55106787178198
 30
0.0
  0
SPLINE
  5
51
330
48
100
AcDbEntity
  8
Layer 1
 62
   165
420
  4285358
370
    35
100
AcDbSpline
210
0.0
220
0.0
230
1.0
 70
    11
 71
     3
 72
    35
 73
    31
 74
     0
 42
0.0000000001
 43
0.0000000001
 12
1.0
 22
0.0
 32
0.0
 13
1.0
 23
0.0
 33
0.0
 40
0.0
 40
0.0
 40
0.0
 40
0.0
 40
1.0
 40
1.0
 40
1.0
 40
2.0
 40
2.0
 40
2.0
 40
3.0
 40
3.0
 40
3.0
 40
4.0
 40
4.0
 40
4.0
 40
5.0
 40
5.0
 40
5.0
 40
6.0
 40
6.0
 40
6.0
 40
7.0
 40
7.0
 40
7.0
 40
8.0
 40
8.0
 40
8.0
 40
9.0
 40
9.0
 40
9.0
 40
10.0
 40
10.0
 40
10.0
 40
10.0
 10
337.5905707754928
 20
-484.8372842404548
 30
0.0
 10
337.6009857956203
 20
-477.5541701112405
 30
0.0
 10
337.6114008157492
 20
-470.2710559820352
 30
0.0
 10
337.6218158358767
 20
-462.9879418528241
 30
0.0
 10
337.6218158358767
 20
-462.9879418528241
 30
0.0
 10
337.5909327747437
 20
-463.0143372487001
 30
0.0
 10
337.5909327747437
 20
-463.0143372487001
 30
0.0
 10
344.4979350533837
 20
-463.0033817403039
 30
0.0
 10
351.4054765600744
 20
-462.9453402515206
 30
0.0
 10
358.3115153927892
 20
-463.0164942918011
 30
0.0
 10
359.9259868040201
 20
-463.0331262294179
 30
0.0
 10
360.3807709885161
 20
-462.6052653769219
 30
0.0
 10
360.3630914729945
 20
-461.0863096818134
 30
0.0
 10
360.2874713377108
 20
-454.5887565924243
 30
0.0
 10
360.3491601580549
 20
-448.0898411600231
 30
0.0
 10
360.3607761861153
 20
-441.591408224113
 30
0.0
 10
360.3607761861153
 20
-441.591408224113
 30
0.0
 10
360.3278455667162
 20
-441.6241044564202
 30
0.0
 10
360.3278455667162
 20
-441.6241044564202
 30
0.0
 10
368.0704929505536
 20
-441.6130921837344
 30
0.0
 10
375.8131403343908
 20
-441.6020799110435
 30
0.0
 10
383.5557877182281
 20
-441.5910676383571
 30
0.0
 10
383.5557877182281
 20
-455.4639484496388
 30
0.0
 10
383.5286347694999
 20
-469.3369711716557
 30
0.0
 10
383.5977746821804
 20
-483.2095397793286
 30
0.0
 10
383.6046912010794
 20
-484.597341577304
 30
0.0
 10
383.300761720238
 20
-484.8833200814341
 30
0.0
 10
381.8257169366855
 20
-484.8767921878286
 30
0.0
 10
367.0809265178361
 20
-484.8117403089644
 30
0.0
 10
352.3356864280441
 20
-484.8372842404548
 30
0.0
 10
337.5905707754928
 20
-484.8372842404548
 30
0.0
  0
SPLINE
  5
52
330
48
100
AcDbEntity
  8
Layer 1
 62
   165
420
  4285358
370
    35
100
AcDbSpline
210
0.0
220
0.0
230
1.0
 70
    11
 71
     3
 72
    35
 73
    31
 74
     0
 42
0.0000000001
 43
0.0000000001
 12
1.0
 22
0.0
 32
0.0
 13
1.0
 23
0.0
 33
0.0
 40
0.0
 40
0.0
 40
0.0
 40
0.0
 40
1.0
 40
1.0
 40
1.0
 40
2.0
 40
2.0
 40
2.0
 40
3.0
 40
3.0
 40
3.0
 40
4.0
 40
4.0
 40
4.0
 40
5.0
 40
5.0
 40
5.0
 40
6.0
 40
6.0
 40
6.0
 40
7.0
 40
7.0
 40
7.0
 40
8.0
 40
8.0
 40
8.0
 40
9.0
 40
9.0
 40
9.0
 40
10.0
 40
10.0
 40
10.0
 40
10.0
 10
61.30501947452944
 20
-8.663888535626306
 30
0.0
 10
61.29301316602483
 20
-15.94850780552555
 30
0.0
 10
61.2810068575212
 20
-23.23312707542062
 30
0.0
 10
61.26903071562148
 20
-30.51767272912639
 30
0.0
 10
61.26903071562148
 20
-30.51767272912639
 30
0.0
 10
61.30465747527755
 20
-30.48684084903508
 30
0.0
 10
61.30465747527755
 20
-30.48684084903508
 30
0.0
 10
54.39765142581219
 20
-30.49776974916855
 30
0.0
 10
47.49013254407404
 20
-30.55580769017907
 30
0.0
 10
40.58406165934183
 20
-30.48465897155557
 30
0.0
 10
38.96960533141366
 20
-30.46802526005488
 30
0.0
 10
38.51487393847633
 20
-30.8959198163504
 30
0.0
 10
38.53252140198055
 20
-32.41488438087924
 30
0.0
 10
38.60814907891441
 20
-38.91240908811972
 30
0.0
 10
38.54642820655442
 20
-45.41134935489936
 30
0.0
 10
38.53481406390626
 20
-51.90977164750742
 30
0.0
 10
38.53481406390626
 20
-51.90977164750742
 30
0.0
 10
38.56292933909642
 20
-51.88070123436206
 30
0.0
 10
38.56292933909642
 20
-51.88070123436206
 30
0.0
 10
30.82187701445928
 20
-51.89050371807296
 30
0.0
 10
23.08085485642959
 20
-51.90030620178323
 30
0.0
 10
15.33980253179245
 20
-51.91010513772657
 30
0.0
 10
15.33980253179245
 20
-37.99711325846216
 30
0.0
 10
15.36324198332007
 20
-24.08402736334272
 30
0.0
 10
15.30079711245663
 20
-10.17128161050291
 30
0.0
 10
15.29503529103875
 20
-8.884539432776625
 30
0.0
 10
15.5742875468717
 20
-8.621789664174596
 30
0.0
 10
16.94195088517519
 20
-8.627222572368405
 30
0.0
 10
31.72943930426466
 20
-8.685962306286243
 30
0.0
 10
46.51728972260506
 20
-8.663888535626306
 30
0.0
 10
61.30501947452944
 20
-8.663888535626306
 30
0.0
  0
SPLINE
  5
53
330
48
100
AcDbEntity
  8
Layer 1
 62
   165
420
  4285358
370
    35
100
AcDbSpline
210
0.0
220
0.0
230
1.0
 70
    11
 71
     3
 72
    35
 73
    31
 74
     0
 42
0.0000000001
 43
0.0000000001
 12
1.0
 22
0.0
 32
0.0
 13
1.0
 23
0.0
 33
0.0
 40
0.0
 40
0.0
 40
0.0
 40
0.0
 40
1.0
 40
1.0
 40
1.0
 40
2.0
 40
2.0
 40
2.0
 40
3.0
 40
3.0
 40
3.0
 40
4.0
 40
4.0
 40
4.0
 40
5.0
 40
5.0
 40
5.0
 40
6.0
 40
6.0
 40
6.0
 40
7.0
 40
7.0
 40
7.0
 40
8.0
 40
8.0
 40
8.0
 40
9.0
 40
9.0
 40
9.0
 40
10.0
 40
10.0
 40
10.0
 40
10.0
 10
61.27376687249347
 20
-462.9879134706758
 30
0.0
 10
61.28420451757581
 20
-470.2710275998888
 30
0.0
 10
61.2946119960523
 20
-477.5541701112405
 30
0.0
 10
61.30501947452944
 20
-484.8372842404548
 30
0.0
 10
46.55991513445522
 20
-484.8372842404548
 30
0.0
 10
31.81465996135915
 20
-484.8117403089644
 30
0.0
 10
17.06988745393226
 20
-484.8767921878286
 30
0.0
 10
15.59483100438682
 20
-484.8833200814341
 30
0.0
 10
15.29093263285716
 20
-484.597341577304
 30
0.0
 10
15.29784078523788
 20
-483.2095397793286
 30
0.0
 10
15.3669826422501
 20
-469.3369711716557
 30
0.0
 10
15.33980253179245
 20
-455.4639484496388
 30
0.0
 10
15.33980253179245
 20
-441.5910676383571
 30
0.0
 10
23.0805833569898
 20
-441.6011149180795
 30
0.0
 10
30.82139434879235
 20
-441.6111905799424
 30
0.0
 10
38.56196400775999
 20
-441.6210391846383
 30
0.0
 10
38.56175284152932
 20
-441.6208688917625
 30
0.0
 10
38.53481406390626
 20
-441.591408224113
 30
0.0
 10
38.5347838973017
 20
-441.591408224113
 30
0.0
 10
38.54642820655442
 20
-448.0898411600231
 30
0.0
 10
38.60811891231049
 20
-454.5887565924243
 30
0.0
 10
38.53249123537599
 20
-461.0863096818134
 30
0.0
 10
38.51481360526785
 20
-462.6053221412153
 30
0.0
 10
38.96963549801726
 20
-463.0330978472721
 30
0.0
 10
40.58409182594671
 20
-463.0164659096548
 30
0.0
 10
47.49016271067957
 20
-462.9453402515206
 30
0.0
 10
54.39768159241643
 20
-463.0034101224464
 30
0.0
 10
61.3046876418818
 20
-463.0143372487001
 30
0.0
 10
61.3046876418818
 20
-463.0143372487001
 30
0.0
 10
61.27376687249347
 20
-462.9879134706758
 30
0.0
 10
61.27376687249347
 20
-462.9879134706758
 30
0.0
  0
SPLINE
  5
54
330
48
100
AcDbEntity
  8
Layer 1
 62
   165
420
  4285358
370
    35
100
AcDbSpline
210
0.0
220
0.0
230
1.0
 70
    11
 71
     3
 72
    74
 73
    70
 74
     0
 42
0.0000000001
 43
0.0000000001
 12
1.0
 22
0.0
 32
0.0
 13
1.0
 23
0.0
 33
0.0
 40
0.0
 40
0.0
 40
0.0
 40
0.0
 40
1.0
 40
1.0
 40
1.0
 40
2.0
 40
2.0
 40
2.0
 40
3.0
 40
3.0
 40
3.0
 40
4.0
 40
4.0
 40
4.0
 40
5.0
 40
5.0
 40
5.0
 40
6.0
 40
6.0
 40
6.0
 40
7.0
 40
7.0
 40
7.0
 40
8.0
 40
8.0
 40
8.0
 40
9.0
 40
9.0
 40
9.0
 40
10.0
 40
10.0
 40
10.0
 40
11.0
 40
11.0
 40
11.0
 40
12.0
 40
12.0
 40
12.0
 40
13.0
 40
13.0
 40
13.0
 40
14.0
 40
14.0
 40
14.0
 40
15.0
 40
15.0
 40
15.0
 40
16.0
 40
16.0
 40
16.0
 40
17.0
 40
17.0
 40
17.0
 40
18.0
 40
18.0
 40
18.0
 40
19.0
 40
19.0
 40
19.0
 40
20.0
 40
20.0
 40
20.0
 40
21.0
 40
21.0
 40
21.0
 40
22.0
 40
22.0
 40
22.0
 40
23.0
 40
23.0
 40
23.0
 40
23.0
 10
337.6218158358767
 20
-462.9879418528241
 30
0.0
 10
245.505925208933
 20
-462.9880553814083
 30
0.0
 10
153.390042123641
 20
-462.98816890999
 30
0.0
 10
61.27394787211925
 20
-462.9880837635541
 30
0.0
 10
61.27376687249347
 20
-462.9879134706758
 30
0.0
 10
61.3046876418818
 20
-463.0143372487001
 30
0.0
 10
61.3046876418818
 20
-463.0143372487001
 30
0.0
 10
61.30459714206939
 20
-456.5212969205441
 30
0.0
 10
61.26115723190497
 20
-450.0278024780499
 30
0.0
 10
61.33669440902449
 20
-443.5355568499829
 30
0.0
 10
61.35437203913423
 20
-442.0162038048232
 30
0.0
 10
60.85315390899877
 20
-441.5446628294812
 30
0.0
 10
59.23827524861023
 20
-441.5612947670967
 30
0.0
 10
52.33784551887795
 20
-441.6323352787904
 30
0.0
 10
45.43608845855639
 20
-441.5914366062549
 30
0.0
 10
38.53481406390626
 20
-441.591408224113
 30
0.0
 10
38.53481406390626
 20
-441.591408224113
 30
0.0
 10
38.56175284152932
 20
-441.6208688917625
 30
0.0
 10
38.56196400775999
 20
-441.6210391846383
 30
0.0
 10
38.56229584040699
 20
-311.7078391798146
 30
0.0
 10
38.56241650682396
 20
-181.7944546910411
 30
0.0
 10
38.56271817286543
 20
-51.88087862277452
 30
0.0
 10
38.56292933909642
 20
-51.88070123436206
 30
0.0
 10
38.53481406390626
 20
-51.90977164750742
 30
0.0
 10
38.53481406390626
 20
-51.90977164750742
 30
0.0
 10
46.09863758838842
 20
-51.88524947327573
 30
0.0
 10
53.66249127947675
 20
-51.86074149011468
 30
0.0
 10
61.22631480395858
 20
-51.83623350695939
 30
0.0
 10
61.22631480395858
 20
-51.83623350695939
 30
0.0
 10
61.38577547418981
 20
-51.99023857947843
 30
0.0
 10
61.38577547418981
 20
-51.99023857947843
 30
0.0
 10
61.35883669656675
 20
-52.99649563962474
 30
0.0
 10
61.30836796760462
 20
-54.00275269977617
 30
0.0
 10
61.30833780099974
 20
-55.00900975992248
 30
0.0
 10
61.30480830829941
 20
-175.4440062649021
 30
0.0
 10
61.30504964113336
 20
-295.8790027698805
 30
0.0
 10
61.30504964113336
 20
-416.3140134659279
 30
0.0
 10
61.30504964113336
 20
-416.7789981655238
 30
0.0
 10
61.36324102079206
 20
-417.2516744267145
 30
0.0
 10
61.29512482832541
 20
-417.7076336038499
 30
0.0
 10
61.04326384918045
 20
-419.3938452859429
 30
0.0
 10
61.88626960582246
 20
-419.7858878700576
 30
0.0
 10
63.55203932763349
 20
-419.7657081641808
 30
0.0
 10
69.8113080499696
 20
-419.689899451943
 30
0.0
 10
76.0730504338572
 20
-419.7871366844867
 30
0.0
 10
82.33207782335936
 20
-419.7022456854951
 30
0.0
 10
84.05938741790493
 20
-419.6788304149574
 30
0.0
 10
84.59828363678598
 20
-420.1737298965488
 30
0.0
 10
84.57031919461768
 20
-421.8042274258468
 30
0.0
 10
84.47604855623894
 20
-427.3053117477183
 30
0.0
 10
84.51906613394459
 20
-432.8087517877232
 30
0.0
 10
84.54021292354521
 20
-438.3111700704604
 30
0.0
 10
84.55427056113996
 20
-441.9657687312034
 30
0.0
 10
84.11377780542286
 20
-441.5861859092255
 30
0.0
 10
87.92029043345653
 20
-441.5864413485423
 30
0.0
 10
170.1281635087711
 20
-441.5925151278076
 30
0.0
 10
252.336036584085
 20
-441.5913230776707
 30
0.0
 10
334.5439209718766
 20
-441.5879456022876
 30
0.0
 10
335.5310891595548
 20
-441.5878888379935
 30
0.0
 10
336.5182535764047
 20
-441.5404055075636
 30
0.0
 10
337.5054179932578
 20
-441.5150602510966
 30
0.0
 10
337.5054179932578
 20
-441.5150602510966
 30
0.0
 10
337.6692038003765
 20
-441.6650031289532
 30
0.0
 10
337.6692038003765
 20
-441.6650031289532
 30
0.0
 10
337.6431096876738
 20
-448.7814572962505
 30
0.0
 10
337.6170193457962
 20
-455.8978830813995
 30
0.0
 10
337.5909252330923
 20
-463.0143372487001
 30
0.0
 10
337.5909252330923
 20
-463.0143372487001
 30
0.0
 10
337.6218158358767
 20
-462.9879418528241
 30
0.0
 10
337.6218158358767
 20
-462.9879418528241
 30
0.0
  0
SPLINE
  5
55
330
48
100
AcDbEntity
  8
Layer 1
 62
   165
420
  4285358
370
    35
100
AcDbSpline
210
0.0
220
0.0
230
1.0
 70
    11
 71
     3
 72
   152
 73
   148
 74
     0
 42
0.0000000001
 43
0.0000000001
 12
1.0
 22
0.0
 32
0.0
 13
1.0
 23
0.0
 33
0.0
 40
0.0
 40
0.0
 40
0.0
 40
0.0
 40
1.0
 40
1.0
 40
1.0
 40
2.0
 40
2.0
 40
2.0
 40
3.0
 40
3.0
 40
3.0
 40
4.0
 40
4.0
 40
4.0
 40
5.0
 40
5.0
 40
5.0
 40
6.0
 40
6.0
 40
6.0
 40
7.0
 40
7.0
 40
7.0
 40
8.0
 40
8.0
 40
8.0
 40
9.0
 40
9.0
 40
9.0
 40
10.0
 40
10.0
 40
10.0
 40
11.0
 40
11.0
 40
11.0
 40
12.0
 40
12.0
 40
12.0
 40
13.0
 40
13.0
 40
13.0
 40
14.0
 40
14.0
 40
14.0
 40
15.0
 40
15.0
 40
15.0
 40
16.0
 40
16.0
 40
16.0
 40
17.0
 40
17.0
 40
17.0
 40
18.0
 40
18.0
 40
18.0
 40
19.0
 40
19.0
 40
19.0
 40
20.0
 40
20.0
 40
20.0
 40
21.0
 40
21.0
 40
21.0
 40
22.0
 40
22.0
 40
22.0
 40
23.0
 40
23.0
 40
23.0
 40
24.0
 40
24.0
 40
24.0
 40
25.0
 40
25.0
 40
25.0
 40
26.0
 40
26.0
 40
26.0
 40
27.0
 40
27.0
 40
27.0
 40
28.0
 40
28.0
 40
28.0
 40
29.0
 40
29.0
 40
29.0
 40
30.0
 40
30.0
 40
30.0
 40
31.0
 40
31.0
 40
31.0
 40
32.0
 40
32.0
 40
32.0
 40
33.0
 40
33.0
 40
33.0
 40
34.0
 40
34.0
 40
34.0
 40
35.0
 40
35.0
 40
35.0
 40
36.0
 40
36.0
 40
36.0
 40
37.0
 40
37.0
 40
37.0
 40
38.0
 40
38.0
 40
38.0
 40
39.0
 40
39.0
 40
39.0
 40
40.0
 40
40.0
 40
40.0
 40
41.0
 40
41.0
 40
41.0
 40
42.0
 40
42.0
 40
42.0
 40
43.0
 40
43.0
 40
43.0
 40
44.0
 40
44.0
 40
44.0
 40
45.0
 40
45.0
 40
45.0
 40
46.0
 40
46.0
 40
46.0
 40
47.0
 40
47.0
 40
47.0
 40
48.0
 40
48.0
 40
48.0
 40
49.0
 40
49.0
 40
49.0
 40
49.0
 10
337.5054179932578
 20
-441.5150602510966
 30
0.0
 10
336.5182535764047
 20
-441.5404055075636
 30
0.0
 10
335.5310891595548
 20
-441.5878888379935
 30
0.0
 10
334.5439209718766
 20
-441.5879456022876
 30
0.0
 10
252.336036584085
 20
-441.5913230776707
 30
0.0
 10
170.1281635087711
 20
-441.5925151278076
 30
0.0
 10
87.92029043345653
 20
-441.5864413485423
 30
0.0
 10
84.11377780542286
 20
-441.5861859092255
 30
0.0
 10
84.55427056113996
 20
-441.9657687312034
 30
0.0
 10
84.54021292354521
 20
-438.3111700704604
 30
0.0
 10
84.51906613394459
 20
-432.8087517877232
 30
0.0
 10
84.47604855623894
 20
-427.3053117477183
 30
0.0
 10
84.57031919461768
 20
-421.8042274258468
 30
0.0
 10
84.59828363678598
 20
-420.1737298965488
 30
0.0
 10
84.05938741790493
 20
-419.6788304149574
 30
0.0
 10
82.33207782335936
 20
-419.7022456854951
 30
0.0
 10
76.0730504338572
 20
-419.7871366844867
 30
0.0
 10
69.8113080499696
 20
-419.689899451943
 30
0.0
 10
63.55203932763349
 20
-419.7657081641808
 30
0.0
 10
61.88626960582246
 20
-419.7858878700576
 30
0.0
 10
61.04326384918045
 20
-419.3938452859429
 30
0.0
 10
61.29512482832541
 20
-417.7076336038499
 30
0.0
 10
61.36324102079206
 20
-417.2516744267145
 30
0.0
 10
61.30504964113336
 20
-416.7789981655238
 30
0.0
 10
61.30504964113336
 20
-416.3140134659279
 30
0.0
 10
61.30504964113336
 20
-295.8790027698805
 30
0.0
 10
61.30480830829941
 20
-175.4440062649021
 30
0.0
 10
61.30833780099974
 20
-55.00900975992248
 30
0.0
 10
61.30836796760462
 20
-54.00275269977617
 30
0.0
 10
61.35883669656675
 20
-52.99649563962474
 30
0.0
 10
61.3856849743774
 20
-51.99016407634523
 30
0.0
 10
68.37205935970697
 20
-51.9633145661304
 30
0.0
 10
75.35894657730933
 20
-51.88741715968558
 30
0.0
 10
82.34459696413705
 20
-51.94450429880172
 30
0.0
 10
84.07896554408329
 20
-51.95867408524628
 30
0.0
 10
84.58781582510132
 20
-51.45234724207776
 30
0.0
 10
84.5700778617834
 20
-49.83721509713147
 30
0.0
 10
84.49951817436983
 20
-43.41861759043172
 30
0.0
 10
84.56663886889581
 20
-36.99867725344976
 30
0.0
 10
84.58274783558136
 20
-30.57923537790278
 30
0.0
 10
85.56994996068883
 20
-30.55932530241429
 30
0.0
 10
86.5571219191914
 20
-30.5220630923504
 30
0.0
 10
87.54432404429855
 20
-30.52199745863629
 30
0.0
 10
131.5211243491325
 20
-30.5191148969238
 30
0.0
 10
175.4979246539646
 20
-30.51900668999302
 30
0.0
 10
219.4747249587992
 20
-30.52267508237731
 30
0.0
 10
220.4612935852147
 20
-30.5227566810463
 30
0.0
 10
221.4478772949355
 20
-30.57011761346964
 30
0.0
 10
222.4345665877695
 20
-30.59537417573157
 30
0.0
 10
222.4422439885588
 20
-37.68479789663695
 30
0.0
 10
222.4497705563275
 20
-44.77426951240764
 30
0.0
 10
222.4575384569291
 20
-51.8639912458455
 30
0.0
 10
221.3878457524163
 20
-51.87953047083758
 30
0.0
 10
220.3178966317643
 20
-51.90811483973047
 30
0.0
 10
219.2479625944159
 20
-51.90818224732691
 30
0.0
 10
182.9380047676869
 20
-51.91050248776977
 30
0.0
 10
146.6279715244453
 20
-51.93788416322294
 30
0.0
 10
110.3182399472475
 20
-51.85110575151382
 30
0.0
 10
107.7445459363811
 20
-51.84495392134996
 30
0.0
 10
107.1417266830268
 20
-52.53520416678999
 30
0.0
 10
107.2130707021523
 20
-54.84118258225507
 30
0.0
 10
107.3878861739624
 20
-60.49133703099565
 30
0.0
 10
107.223960846298
 20
-66.15005934008803
 30
0.0
 10
107.2997695228567
 20
-71.80410214284461
 30
0.0
 10
107.3202526471636
 20
-73.3324949015357
 30
0.0
 10
106.7740561100457
 20
-73.81140104380002
 30
0.0
 10
105.1689212628393
 20
-73.79288878900286
 30
0.0
 10
99.15934152413978
 20
-73.72362216143858
 30
0.0
 10
93.14668479180513
 20
-73.84013087119109
 30
0.0
 10
87.138734049736
 20
-73.72434590616547
 30
0.0
 10
85.10357425850007
 20
-73.68512178025249
 30
0.0
 10
84.48938219533088
 20
-74.23174772311403
 30
0.0
 10
84.49224802273721
 20
-76.18419103118687
 30
0.0
 10
84.55402922830602
 20
-118.6349270333976
 30
0.0
 10
84.54657807704699
 20
-161.085748182044
 30
0.0
 10
84.55237006507038
 20
-203.5366119039131
 30
0.0
 10
84.5523097318619
 20
-225.2158033256605
 30
0.0
 10
84.55240023167399
 20
-246.8949096009722
 30
0.0
 10
84.5524605648828
 20
-268.5740442584297
 30
0.0
 10
84.54660824365187
 20
-311.0373961245816
 30
0.0
 10
84.55514539266302
 20
-353.5008047550271
 30
0.0
 10
84.48986486099942
 20
-395.9640714747427
 30
0.0
 10
84.4867878673621
 20
-397.9722502222227
 30
0.0
 10
85.20134422297458
 20
-398.4200353412839
 30
0.0
 10
87.18015279741354
 20
-398.3834507549543
 30
0.0
 10
93.02544520919749
 20
-398.2753999247443
 30
0.0
 10
98.87655977560713
 20
-398.4294582137886
 30
0.0
 10
104.7208868560527
 20
-398.3002343025842
 30
0.0
 10
106.8358674822172
 20
-398.2534605258081
 30
0.0
 10
107.3526515801624
 20
-398.9318505819501
 30
0.0
 10
107.3125903296762
 20
-400.8169927260753
 30
0.0
 10
107.1940657414555
 20
-406.3938857601891
 30
0.0
 10
107.3390464416307
 20
-411.9756889055809
 30
0.0
 10
107.2301450001749
 20
-417.5529509075905
 30
0.0
 10
107.195694738086
 20
-419.3185474523341
 30
0.0
 10
107.810731466174
 20
-419.8189246881213
 30
0.0
 10
109.6331261974148
 20
-419.7705898933078
 30
0.0
 10
113.8301756844733
 20
-419.6593318805905
 30
0.0
 10
118.032775826721
 20
-419.7354527964345
 30
0.0
 10
122.2331436402508
 20
-419.7354527964345
 30
0.0
 10
185.3208950064733
 20
-419.7354811785809
 30
0.0
 10
248.408676539302
 20
-419.7252636059828
 30
0.0
 10
311.4963751139668
 20
-419.7777421941285
 30
0.0
 10
313.7150609840003
 20
-419.7795870336232
 30
0.0
 10
314.4868660128876
 20
-419.2923507314815
 30
0.0
 10
314.4165024084019
 20
-417.0950901266676
 30
0.0
 10
314.2454426788246
 20
-411.7532580265768
 30
0.0
 10
314.4522573761267
 20
-406.4012651181769
 30
0.0
 10
314.3146674939992
 20
-401.0577017071712
 30
0.0
 10
314.2615968954169
 20
-398.9964483464775
 30
0.0
 10
314.7795876575325
 20
-398.2243404439054
 30
0.0
 10
317.1493403401556
 20
-398.2903856978865
 30
0.0
 10
323.0740651918363
 20
-398.4555130239118
 30
0.0
 10
329.0088204394421
 20
-398.2775285857028
 30
0.0
 10
334.9366298264115
 20
-398.3827979655979
 30
0.0
 10
336.9032888009757
 20
-398.4177080053008
 30
0.0
 10
337.6418464611187
 20
-397.9925434566889
 30
0.0
 10
337.6365220554627
 20
-395.9721603863823
 30
0.0
 10
337.5625535417655
 20
-367.9216880432598
 30
0.0
 10
337.5786700501027
 20
-339.87096026082
 30
0.0
 10
337.5727762497917
 20
-311.8203176248205
 30
0.0
 10
337.5727837914432
 20
-261.310315135003
 30
0.0
 10
337.5727913330939
 20
-210.8002984541161
 30
0.0
 10
337.5727988747453
 20
-160.2902959643044
 30
0.0
 10
337.5951523285179
 20
-145.8557466727242
 30
0.0
 10
337.6175095531155
 20
-131.4212115722208
 30
0.0
 10
337.6398667777138
 20
-116.9866622806409
 30
0.0
 10
345.1750244864774
 20
-116.9938358680689
 30
0.0
 10
352.7101859660673
 20
-117.0010023599605
 30
0.0
 10
360.2453455602461
 20
-117.0081759473847
 30
0.0
 10
360.2722466296144
 20
-117.704035214454
 30
0.0
 10
360.3226889627967
 20
-118.399908672598
 30
0.0
 10
360.322713473164
 20
-119.0957750351969
 30
0.0
 10
360.3262127992595
 20
-218.5974416313897
 30
0.0
 10
360.3261807472427
 20
-318.0991011320473
 30
0.0
 10
360.3234318154276
 20
-417.6007748237769
 30
0.0
 10
360.3234129613011
 20
-418.2972443069837
 30
0.0
 10
360.2837646162094
 20
-418.9936854080485
 30
0.0
 10
360.2626329099112
 20
-419.6901548912579
 30
0.0
 10
353.5218203396706
 20
-419.70528257513
 30
0.0
 10
346.7800122714879
 20
-419.7853202271365
 30
0.0
 10
340.0408004166873
 20
-419.6946392703401
 30
0.0
 10
338.1030749864528
 20
-419.6685844602187
 30
0.0
 10
337.5197999218479
 20
-420.182301304673
 30
0.0
 10
337.545079536236
 20
-422.0282193228836
 30
0.0
 10
337.6340144564822
 20
-428.5225936119072
 30
0.0
 10
337.5338387053148
 20
-435.0192668547663
 30
0.0
 10
337.5054179932578
 20
-441.5150602510966
 30
0.0
  0
SPLINE
  5
56
330
48
100
AcDbEntity
  8
Layer 1
 62
   165
420
  4285358
370
    35
100
AcDbSpline
210
0.0
220
0.0
230
1.0
 70
    11
 71
     3
 72
    53
 73
    49
 74
     0
 42
0.0000000001
 43
0.0000000001
 12
1.0
 22
0.0
 32
0.0
 13
1.0
 23
0.0
 33
0.0
 40
0.0
 40
0.0
 40
0.0
 40
0.0
 40
1.0
 40
1.0
 40
1.0
 40
2.0
 40
2.0
 40
2.0
 40
3.0
 40
3.0
 40
3.0
 40
4.0
 40
4.0
 40
4.0
 40
5.0
 40
5.0
 40
5.0
 40
6.0
 40
6.0
 40
6.0
 40
7.0
 40
7.0
 40
7.0
 40
8.0
 40
8.0
 40
8.0
 40
9.0
 40
9.0
 40
9.0
 40
10.0
 40
10.0
 40
10.0
 40
11.0
 40
11.0
 40
11.0
 40
12.0
 40
12.0
 40
12.0
 40
13.0
 40
13.0
 40
13.0
 40
14.0
 40
14.0
 40
14.0
 40
15.0
 40
15.0
 40
15.0
 40
16.0
 40
16.0
 40
16.0
 40
16.0
 10
360.2453455602461
 20
-117.0081759473847
 30
0.0
 10
352.7101859660673
 20
-117.0010023599605
 30
0.0
 10
345.1750244864774
 20
-116.9938358680689
 30
0.0
 10
337.6395990491
 20
-116.9864423190092
 30
0.0
 10
337.6230715207805
 20
-103.3570945123576
 30
0.0
 10
337.558545154221
 20
-89.72771122802313
 30
0.0
 10
337.6437356447128
 20
-76.09915102592338
 30
0.0
 10
337.6561982231065
 20
-74.10593676497436
 30
0.0
 10
337.0301959343612
 20
-73.6804742038268
 30
0.0
 10
335.0291357184395
 20
-73.72016663515342
 30
0.0
 10
328.7763301910718
 20
-73.84421080469049
 30
0.0
 10
322.5183510910681
 20
-73.72042917000277
 30
0.0
 10
316.2638449213825
 20
-73.79789823779022
 30
0.0
 10
314.7406953629633
 20
-73.81676526941358
 30
0.0
 10
314.3062660947065
 20
-73.40715413686023
 30
0.0
 10
314.3266662608521
 20
-71.97482784718872
 30
0.0
 10
314.4094283396979
 20
-66.16776270372206
 30
0.0
 10
314.2687840888859
 20
-60.35705755001653
 30
0.0
 10
314.4105294207534
 20
-54.55201463445608
 30
0.0
 10
314.460523025699
 20
-52.50408314359171
 30
0.0
 10
313.9712357875575
 20
-51.83690758292866
 30
0.0
 10
311.6331580394305
 20
-51.85290801779409
 30
0.0
 10
297.2303390748335
 20
-51.95146856790333
 30
0.0
 10
282.8262078629513
 20
-51.87920407615358
 30
0.0
 10
268.4224989835287
 20
-51.86374999760224
 30
0.0
 10
268.4147009163228
 20
-44.77440787537067
 30
0.0
 10
268.4069028491157
 20
-37.6850657531375
 30
0.0
 10
268.3991047819091
 20
-30.59572363090593
 30
0.0
 10
282.1885688066066
 20
-30.57031628849365
 30
0.0
 10
328.3196605938086
 20
-30.5406125987095
 30
0.0
 10
337.5957292648248
 20
-30.55111754054023
 30
0.0
 10
337.5957292648248
 20
-30.55111754054023
 30
0.0
 10
337.5514635438668
 20
-30.51523718621149
 30
0.0
 10
337.5514635438668
 20
-30.51523718621149
 30
0.0
 10
337.5645030585667
 20
-37.0247249680318
 30
0.0
 10
337.6311523999016
 20
-43.53479990550471
 30
0.0
 10
337.5507357745387
 20
-50.04326593006567
 30
0.0
 10
337.5319721466749
 20
-51.56180298852643
 30
0.0
 10
337.9607715724069
 20
-51.96524100429731
 30
0.0
 10
339.5747829429234
 20
-51.94758730942185
 30
0.0
 10
346.4924528870013
 20
-51.87192405568289
 30
0.0
 10
353.4118329004617
 20
-51.93463085972583
 30
0.0
 10
360.3305888422943
 20
-51.94689904237779
 30
0.0
 10
360.3305888422943
 20
-51.94689904237779
 30
0.0
 10
360.2912138820553
 20
-51.90510278447564
 30
0.0
 10
360.2912138820553
 20
-51.90510278447564
 30
0.0
 10
360.2759797468937
 20
-73.60612717211018
 30
0.0
 10
360.2606626535702
 20
-95.30715155974985
 30
0.0
 10
360.2453455602461
 20
-117.0081759473847
 30
0.0
  0
SPLINE
  5
57
330
48
100
AcDbEntity
  8
Layer 1
 62
   165
420
  4285358
370
    35
100
AcDbSpline
210
0.0
220
0.0
230
1.0
 70
    11
 71
     3
 72
    26
 73
    22
 74
     0
 42
0.0000000001
 43
0.0000000001
 12
1.0
 22
0.0
 32
0.0
 13
1.0
 23
0.0
 33
0.0
 40
0.0
 40
0.0
 40
0.0
 40
0.0
 40
1.0
 40
1.0
 40
1.0
 40
2.0
 40
2.0
 40
2.0
 40
3.0
 40
3.0
 40
3.0
 40
4.0
 40
4.0
 40
4.0
 40
5.0
 40
5.0
 40
5.0
 40
6.0
 40
6.0
 40
6.0
 40
7.0
 40
7.0
 40
7.0
 40
7.0
 10
337.5054179932578
 20
-441.5150602510966
 30
0.0
 10
337.5338387053148
 20
-435.0192668547663
 30
0.0
 10
337.6340144564822
 20
-428.5225936119072
 30
0.0
 10
337.545079536236
 20
-422.0282193228836
 30
0.0
 10
337.5197999218479
 20
-420.182301304673
 30
0.0
 10
338.1030749864528
 20
-419.6685844602187
 30
0.0
 10
340.0408004166873
 20
-419.6946392703401
 30
0.0
 10
346.7800122714879
 20
-419.7853202271365
 30
0.0
 10
353.5218203396706
 20
-419.70528257513
 30
0.0
 10
360.2626329099112
 20
-419.6901548912579
 30
0.0
 10
360.284407541965
 20
-427.0014524915456
 30
0.0
 10
360.3061934864945
 20
-434.3127217096902
 30
0.0
 10
360.3279115561642
 20
-441.6240476921262
 30
0.0
 10
360.3279115561642
 20
-441.6240476921262
 30
0.0
 10
360.3607667590521
 20
-441.591408224113
 30
0.0
 10
360.3607667590521
 20
-441.591408224113
 30
0.0
 10
352.7969074117255
 20
-441.6159303983441
 30
0.0
 10
345.2330574914641
 20
-441.6404809547234
 30
0.0
 10
337.6692038003765
 20
-441.6650031289532
 30
0.0
 10
337.6692038003765
 20
-441.6650031289532
 30
0.0
 10
337.5054179932578
 20
-441.5150602510966
 30
0.0
 10
337.5054179932578
 20
-441.5150602510966
 30
0.0
  0
SPLINE
  5
58
330
48
100
AcDbEntity
  8
Layer 1
 62
   165
420
  4285358
370
    35
100
AcDbSpline
210
0.0
220
0.0
230
1.0
 70
    11
 71
     3
 72
    17
 73
    13
 74
     0
 42
0.0000000001
 43
0.0000000001
 12
1.0
 22
0.0
 32
0.0
 13
1.0
 23
0.0
 33
0.0
 40
0.0
 40
0.0
 40
0.0
 40
0.0
 40
1.0
 40
1.0
 40
1.0
 40
2.0
 40
2.0
 40
2.0
 40
3.0
 40
3.0
 40
3.0
 40
4.0
 40
4.0
 40
4.0
 40
4.0
 10
222.4572971240961
 20
-51.86374290206677
 30
0.0
 10
222.4497705563275
 20
-44.77426951240764
 30
0.0
 10
222.4422439885588
 20
-37.68479789663695
 30
0.0
 10
222.4345665877695
 20
-30.59537417573157
 30
0.0
 10
230.1751664133411
 20
-30.59551963422976
 30
0.0
 10
237.9159019886314
 20
-30.59561719785782
 30
0.0
 10
245.6564867309021
 20
-30.59567041438428
 30
0.0
 10
245.6486735803928
 20
-37.68499302388825
 30
0.0
 10
245.6409660129987
 20
-44.77435820661628
 30
0.0
 10
245.6332584456042
 20
-51.8637216154549
 30
0.0
 10
237.907953088403
 20
-51.86372871099615
 30
0.0
 10
230.1826175645988
 20
-51.86373580653098
 30
0.0
 10
222.4572971240961
 20
-51.86374290206677
 30
0.0
  0
SPLINE
  5
59
330
48
100
AcDbEntity
  8
Layer 1
 62
   165
420
  4285358
370
    35
100
AcDbSpline
210
0.0
220
0.0
230
1.0
 70
    11
 71
     3
 72
    26
 73
    22
 74
     0
 42
0.0000000001
 43
0.0000000001
 12
1.0
 22
0.0
 32
0.0
 13
1.0
 23
0.0
 33
0.0
 40
0.0
 40
0.0
 40
0.0
 40
0.0
 40
1.0
 40
1.0
 40
1.0
 40
2.0
 40
2.0
 40
2.0
 40
3.0
 40
3.0
 40
3.0
 40
4.0
 40
4.0
 40
4.0
 40
5.0
 40
5.0
 40
5.0
 40
6.0
 40
6.0
 40
6.0
 40
7.0
 40
7.0
 40
7.0
 40
7.0
 10
84.58274783558136
 20
-30.57923537790278
 30
0.0
 10
84.56663886889581
 20
-36.99867725344976
 30
0.0
 10
84.49951817436983
 20
-43.41861759043172
 30
0.0
 10
84.5700778617834
 20
-49.83721509713147
 30
0.0
 10
84.58781582510132
 20
-51.45234724207776
 30
0.0
 10
84.07896554408329
 20
-51.95867408524628
 30
0.0
 10
82.34459696413705
 20
-51.94450429880172
 30
0.0
 10
75.35894657730933
 20
-51.88741715968558
 30
0.0
 10
68.37205935970697
 20
-51.9633145661304
 30
0.0
 10
61.3856849743774
 20
-51.99016407634523
 30
0.0
 10
61.3856849743774
 20
-51.99016407634523
 30
0.0
 10
61.22634497056218
 20
-51.83628317571282
 30
0.0
 10
61.22634497056218
 20
-51.83628317571282
 30
0.0
 10
61.25249941647491
 20
-44.71983255618529
 30
0.0
 10
61.2785935291782
 20
-37.60333581567094
 30
0.0
 10
61.30465747527755
 20
-30.48684084903508
 30
0.0
 10
61.30465747527755
 20
-30.48684084903508
 30
0.0
 10
61.26903071562148
 20
-30.51767272912639
 30
0.0
 10
61.26903071562148
 20
-30.51767272912639
 30
0.0
 10
69.04024964453797
 20
-30.53824268951256
 30
0.0
 10
76.81149874006032
 20
-30.55873814676586
 30
0.0
 10
84.58274783558136
 20
-30.57923537790278
 30
0.0
  0
SPLINE
  5
5A
330
48
100
AcDbEntity
  8
Layer 1
 62
   165
420
  4285358
370
    35
100
AcDbSpline
210
0.0
220
0.0
230
1.0
 70
    11
 71
     3
 72
    17
 73
    13
 74
     0
 42
0.0000000001
 43
0.0000000001
 12
1.0
 22
0.0
 32
0.0
 13
1.0
 23
0.0
 33
0.0
 40
0.0
 40
0.0
 40
0.0
 40
0.0
 40
1.0
 40
1.0
 40
1.0
 40
2.0
 40
2.0
 40
2.0
 40
3.0
 40
3.0
 40
3.0
 40
4.0
 40
4.0
 40
4.0
 40
4.0
 10
245.6332584456042
 20
-51.8637216154549
 30
0.0
 10
245.6409660129987
 20
-44.77435820661628
 30
0.0
 10
245.6486735803928
 20
-37.68499302388825
 30
0.0
 10
245.6564867309021
 20
-30.59567041438428
 30
0.0
 10
253.2375353864291
 20
-30.5956881532228
 30
0.0
 10
260.8184407505869
 20
-30.59566154495973
 30
0.0
 10
268.3992254483271
 20
-30.59568105768669
 30
0.0
 10
268.4069028491157
 20
-37.6850657531375
 30
0.0
 10
268.4147009163228
 20
-44.77440787537067
 30
0.0
 10
268.4227403163633
 20
-51.86400188914854
 30
0.0
 10
260.8264122757672
 20
-51.86407639228143
 30
0.0
 10
253.2298429023371
 20
-51.86389900386832
 30
0.0
 10
245.6332584456042
 20
-51.8637216154549
 30
0.0
  0
SPLINE
  5
5B
330
48
100
AcDbEntity
  8
Layer 1
 62
   165
420
  4285358
370
    35
100
AcDbSpline
210
0.0
220
0.0
230
1.0
 70
    11
 71
     3
 72
    23
 73
    19
 74
     0
 42
0.0000000001
 43
0.0000000001
 12
1.0
 22
0.0
 32
0.0
 13
1.0
 23
0.0
 33
0.0
 40
0.0
 40
0.0
 40
0.0
 40
0.0
 40
1.0
 40
1.0
 40
1.0
 40
2.0
 40
2.0
 40
2.0
 40
3.0
 40
3.0
 40
3.0
 40
4.0
 40
4.0
 40
4.0
 40
5.0
 40
5.0
 40
5.0
 40
6.0
 40
6.0
 40
6.0
 40
6.0
 10
360.3305888422943
 20
-51.94689904237779
 30
0.0
 10
353.4118329004617
 20
-51.93463085972583
 30
0.0
 10
346.4924528870013
 20
-51.87192405568289
 30
0.0
 10
339.5747829429234
 20
-51.94758730942185
 30
0.0
 10
337.9607715724069
 20
-51.96524100429731
 30
0.0
 10
337.5319721466749
 20
-51.56180298852643
 30
0.0
 10
337.5507357745387
 20
-50.04326593006567
 30
0.0
 10
337.6311523999016
 20
-43.53479990550471
 30
0.0
 10
337.5645030585667
 20
-37.0247249680318
 30
0.0
 10
337.5514635438668
 20
-30.51523718621149
 30
0.0
 10
344.4705626308232
 20
-30.51669886673715
 30
0.0
 10
351.3902725915165
 20
-30.56499108833144
 30
0.0
 10
358.3083083056729
 20
-30.48486828988262
 30
0.0
 10
359.9258887625579
 20
-30.46613429957078
 30
0.0
 10
360.3827789531134
 20
-30.89598722394236
 30
0.0
 10
360.3628652234627
 20
-32.41788756671529
 30
0.0
 10
360.2777048995757
 20
-38.92669949868205
 30
0.0
 10
360.3290352621732
 20
-45.43708486587348
 30
0.0
 10
360.3305888422943
 20
-51.94689904237779
 30
0.0
  0
SPLINE
  5
5C
330
48
100
AcDbEntity
  8
Layer 1
 62
   165
420
  4285358
370
    35
100
AcDbSpline
210
0.0
220
0.0
230
1.0
 70
    11
 71
     3
 72
    20
 73
    16
 74
     0
 42
0.0000000001
 43
0.0000000001
 12
1.0
 22
0.0
 32
0.0
 13
1.0
 23
0.0
 33
0.0
 40
0.0
 40
0.0
 40
0.0
 40
0.0
 40
1.0
 40
1.0
 40
1.0
 40
2.0
 40
2.0
 40
2.0
 40
3.0
 40
3.0
 40
3.0
 40
4.0
 40
4.0
 40
4.0
 40
5.0
 40
5.0
 40
5.0
 40
5.0
 10
337.6692038003765
 20
-441.6650031289532
 30
0.0
 10
345.2330574914641
 20
-441.6404809547234
 30
0.0
 10
352.7969074117255
 20
-441.6159303983441
 30
0.0
 10
360.3607686444633
 20
-441.591408224113
 30
0.0
 10
360.3491601580549
 20
-448.0898411600231
 30
0.0
 10
360.2874713377108
 20
-454.5887565924243
 30
0.0
 10
360.3630914729945
 20
-461.0863096818134
 30
0.0
 10
360.3807709885161
 20
-462.6052653769219
 30
0.0
 10
359.9259868040201
 20
-463.0331262294179
 30
0.0
 10
358.3115153927892
 20
-463.0164942918011
 30
0.0
 10
351.4054765600744
 20
-462.9453402515206
 30
0.0
 10
344.4979350533837
 20
-463.0033817403039
 30
0.0
 10
337.5909327747437
 20
-463.0143372487001
 30
0.0
 10
337.6170193457962
 20
-455.8978830813995
 30
0.0
 10
337.6431096876738
 20
-448.7814572962505
 30
0.0
 10
337.6692038003765
 20
-441.6650031289532
 30
0.0
  0
SPLINE
  5
5D
330
48
100
AcDbEntity
  8
Layer 1
 62
   165
420
  4285358
370
    35
100
AcDbSpline
210
0.0
220
0.0
230
1.0
 70
    11
 71
     3
 72
    20
 73
    16
 74
     0
 42
0.0000000001
 43
0.0000000001
 12
1.0
 22
0.0
 32
0.0
 13
1.0
 23
0.0
 33
0.0
 40
0.0
 40
0.0
 40
0.0
 40
0.0
 40
1.0
 40
1.0
 40
1.0
 40
2.0
 40
2.0
 40
2.0
 40
3.0
 40
3.0
 40
3.0
 40
4.0
 40
4.0
 40
4.0
 40
5.0
 40
5.0
 40
5.0
 40
5.0
 10
61.30465747527755
 20
-30.48684084903508
 30
0.0
 10
61.2785935291782
 20
-37.60333581567094
 30
0.0
 10
61.25249941647491
 20
-44.71983255618529
 30
0.0
 10
61.22634497056218
 20
-51.83627962794557
 30
0.0
 10
53.66249127947675
 20
-51.86074149011468
 30
0.0
 10
46.09863758838842
 20
-51.88524947327573
 30
0.0
 10
38.53481406390626
 20
-51.90976455197195
 30
0.0
 10
38.54642820655442
 20
-45.41134935489936
 30
0.0
 10
38.60814907891441
 20
-38.91240908811972
 30
0.0
 10
38.53252140198055
 20
-32.41488438087924
 30
0.0
 10
38.51487393847633
 20
-30.8959198163504
 30
0.0
 10
38.96960533141366
 20
-30.46802526005488
 30
0.0
 10
40.58406165934183
 20
-30.48465897155557
 30
0.0
 10
47.49013254407404
 20
-30.55580769017907
 30
0.0
 10
54.39765142581219
 20
-30.49776974916855
 30
0.0
 10
61.30465747527755
 20
-30.48684084903508
 30
0.0
  0
SPLINE
  5
5E
330
48
100
AcDbEntity
  8
Layer 1
 62
   165
420
  4285358
370
    35
100
AcDbSpline
210
0.0
220
0.0
230
1.0
 70
    11
 71
     3
 72
    23
 73
    19
 74
     0
 42
0.0000000001
 43
0.0000000001
 12
1.0
 22
0.0
 32
0.0
 13
1.0
 23
0.0
 33
0.0
 40
0.0
 40
0.0
 40
0.0
 40
0.0
 40
1.0
 40
1.0
 40
1.0
 40
2.0
 40
2.0
 40
2.0
 40
3.0
 40
3.0
 40
3.0
 40
4.0
 40
4.0
 40
4.0
 40
5.0
 40
5.0
 40
5.0
 40
6.0
 40
6.0
 40
6.0
 40
6.0
 10
38.5347838973017
 20
-441.591408224113
 30
0.0
 10
45.43608845855639
 20
-441.5914366062549
 30
0.0
 10
52.33784551887795
 20
-441.6323352787904
 30
0.0
 10
59.23827524861023
 20
-441.5612947670967
 30
0.0
 10
60.85315390899877
 20
-441.5446628294812
 30
0.0
 10
61.35437203913423
 20
-442.0162038048232
 30
0.0
 10
61.33669440902449
 20
-443.5355568499829
 30
0.0
 10
61.26115723190497
 20
-450.0278024780499
 30
0.0
 10
61.30459714206939
 20
-456.5212969205441
 30
0.0
 10
61.30465747527755
 20
-463.0143372487001
 30
0.0
 10
54.39768159241643
 20
-463.0034101224464
 30
0.0
 10
47.49016271067957
 20
-462.9453402515206
 30
0.0
 10
40.58409182594671
 20
-463.0164659096548
 30
0.0
 10
38.96963549801726
 20
-463.0330978472721
 30
0.0
 10
38.51481360526785
 20
-462.6053221412153
 30
0.0
 10
38.53249123537599
 20
-461.0863096818134
 30
0.0
 10
38.60811891231049
 20
-454.5887565924243
 30
0.0
 10
38.54642820655442
 20
-448.0898411600231
 30
0.0
 10
38.5347838973017
 20
-441.591408224113
 30
0.0
  0
SPLINE
  5
5F
330
48
100
AcDbEntity
  8
Layer 1
 62
   165
420
  4285358
370
    35
100
AcDbSpline
210
0.0
220
0.0
230
1.0
 70
    11
 71
     3
 72
   128
 73
   124
 74
     0
 42
0.0000000001
 43
0.0000000001
 12
1.0
 22
0.0
 32
0.0
 13
1.0
 23
0.0
 33
0.0
 40
0.0
 40
0.0
 40
0.0
 40
0.0
 40
1.0
 40
1.0
 40
1.0
 40
2.0
 40
2.0
 40
2.0
 40
3.0
 40
3.0
 40
3.0
 40
4.0
 40
4.0
 40
4.0
 40
5.0
 40
5.0
 40
5.0
 40
6.0
 40
6.0
 40
6.0
 40
7.0
 40
7.0
 40
7.0
 40
8.0
 40
8.0
 40
8.0
 40
9.0
 40
9.0
 40
9.0
 40
10.0
 40
10.0
 40
10.0
 40
11.0
 40
11.0
 40
11.0
 40
12.0
 40
12.0
 40
12.0
 40
13.0
 40
13.0
 40
13.0
 40
14.0
 40
14.0
 40
14.0
 40
15.0
 40
15.0
 40
15.0
 40
16.0
 40
16.0
 40
16.0
 40
17.0
 40
17.0
 40
17.0
 40
18.0
 40
18.0
 40
18.0
 40
19.0
 40
19.0
 40
19.0
 40
20.0
 40
20.0
 40
20.0
 40
21.0
 40
21.0
 40
21.0
 40
22.0
 40
22.0
 40
22.0
 40
23.0
 40
23.0
 40
23.0
 40
24.0
 40
24.0
 40
24.0
 40
25.0
 40
25.0
 40
25.0
 40
26.0
 40
26.0
 40
26.0
 40
27.0
 40
27.0
 40
27.0
 40
28.0
 40
28.0
 40
28.0
 40
29.0
 40
29.0
 40
29.0
 40
30.0
 40
30.0
 40
30.0
 40
31.0
 40
31.0
 40
31.0
 40
32.0
 40
32.0
 40
32.0
 40
33.0
 40
33.0
 40
33.0
 40
34.0
 40
34.0
 40
34.0
 40
35.0
 40
35.0
 40
35.0
 40
36.0
 40
36.0
 40
36.0
 40
37.0
 40
37.0
 40
37.0
 40
38.0
 40
38.0
 40
38.0
 40
39.0
 40
39.0
 40
39.0
 40
40.0
 40
40.0
 40
40.0
 40
41.0
 40
41.0
 40
41.0
 40
41.0
 10
245.6332735289067
 20
-51.8637216154549
 30
0.0
 10
253.2298429023371
 20
-51.86389900386832
 30
0.0
 10
260.8264122757672
 20
-51.86407639228143
 30
0.0
 10
268.4227403163633
 20
-51.86400543692157
 30
0.0
 10
282.8262078629513
 20
-51.87920407615358
 30
0.0
 10
297.2303390748335
 20
-51.95146856790333
 30
0.0
 10
311.6331580394305
 20
-51.85290801779409
 30
0.0
 10
313.9712357875575
 20
-51.83690758292866
 30
0.0
 10
314.460523025699
 20
-52.50408314359171
 30
0.0
 10
314.4105294207534
 20
-54.55201463445608
 30
0.0
 10
314.2687840888859
 20
-60.35705755001653
 30
0.0
 10
314.4094283396979
 20
-66.16776270372206
 30
0.0
 10
314.3266662608521
 20
-71.97482784718872
 30
0.0
 10
314.3062660947065
 20
-73.40715413686023
 30
0.0
 10
314.7406953629633
 20
-73.81676526941358
 30
0.0
 10
316.2638449213825
 20
-73.79789823779022
 30
0.0
 10
322.5183510910681
 20
-73.72042917000277
 30
0.0
 10
328.7763301910718
 20
-73.84421080469049
 30
0.0
 10
335.0291357184395
 20
-73.72016663515342
 30
0.0
 10
337.0301959343612
 20
-73.6804742038268
 30
0.0
 10
337.6561982231065
 20
-74.10593676497436
 30
0.0
 10
337.6437356447128
 20
-76.09915102592338
 30
0.0
 10
337.558545154221
 20
-89.72771122802313
 30
0.0
 10
337.6230715207805
 20
-103.3570945123576
 30
0.0
 10
337.6395990491
 20
-116.9864352234731
 30
0.0
 10
337.6175095531155
 20
-131.4212115722208
 30
0.0
 10
337.5951523285179
 20
-145.8557466727242
 30
0.0
 10
337.5729082286858
 20
-160.29036691967
 30
0.0
 10
329.828827931145
 20
-160.2864218013597
 30
0.0
 10
322.0846420504893
 20
-160.2824057276891
 30
0.0
 10
314.340452399008
 20
-160.2783896540141
 30
0.0
 10
314.3472323433204
 20
-153.6135380044296
 30
0.0
 10
314.3037396415982
 20
-146.9480193744075
 30
0.0
 10
314.398854944897
 20
-140.284274628518
 30
0.0
 10
314.4205598166772
 20
-138.763346374251
 30
0.0
 10
313.9773973164823
 20
-138.3456179479114
 30
0.0
 10
312.3607539097426
 20
-138.3667484556884
 30
0.0
 10
305.4428350911787
 20
-138.4572449285362
 30
0.0
 10
298.5229554433351
 20
-138.4153670719609
 30
0.0
 10
291.6037997939969
 20
-138.4217530548325
 30
0.0
 10
291.6109719041642
 20
-131.9150892965461
 30
0.0
 10
291.5689271994479
 20
-125.4078224176576
 30
0.0
 10
291.6621797149324
 20
-118.9022726586067
 30
0.0
 10
291.6837337536917
 20
-117.3989839081442
 30
0.0
 10
291.2681586131114
 20
-116.9688950571812
 30
0.0
 10
289.6366053622058
 20
-116.9761679821177
 30
0.0
 10
275.6405378064385
 20
-117.0385519392545
 30
0.0
 10
261.6438820018867
 20
-117.0386583723017
 30
0.0
 10
247.6478144461172
 20
-116.9760615490696
 30
0.0
 10
246.0143531574913
 20
-116.9687460509116
 30
0.0
 10
245.6020510934753
 20
-117.4017724540004
 30
0.0
 10
245.6234090493079
 20
-118.9032731292587
 30
0.0
 10
245.7159903578467
 20
-125.4088512704563
 30
0.0
 10
245.6737571118517
 20
-131.9161252448818
 30
0.0
 10
245.6805596811179
 20
-138.4227748120912
 30
0.0
 10
238.6835817343836
 20
-138.4160340523934
 30
0.0
 10
231.6854574566862
 20
-138.4727841535244
 30
0.0
 10
224.6904252559285
 20
-138.3593832887757
 30
0.0
 10
222.8656171963446
 20
-138.3297949014629
 30
0.0
 10
222.3702363041393
 20
-138.7383558946057
 30
0.0
 10
222.3822727792481
 20
-140.5021643641451
 30
0.0
 10
222.4712642618782
 20
-153.513107780444
 30
0.0
 10
222.3914735935529
 20
-166.5250445718549
 30
0.0
 10
222.4768300003672
 20
-179.5360305613725
 30
0.0
 10
222.4882178934838
 20
-181.2747775959016
 30
0.0
 10
222.0328530018564
 20
-181.7031777091726
 30
0.0
 10
220.1848166569773
 20
-181.6924350668762
 30
0.0
 10
206.3557966724171
 20
-181.6121277844737
 30
0.0
 10
192.5257661066139
 20
-181.6872411341361
 30
0.0
 10
178.6967913719589
 20
-181.6034996120609
 30
0.0
 10
176.8220274156864
 20
-181.5921325625441
 30
0.0
 10
176.3878696468687
 20
-182.0583093122793
 30
0.0
 10
176.4193032485308
 20
-183.7751169478724
 30
0.0
 10
176.5398188326353
 20
-190.3563547950414
 30
0.0
 10
176.4795308739769
 20
-196.9405160032613
 30
0.0
 10
176.4866954424949
 20
-203.5235844988521
 30
0.0
 10
168.7294738179631
 20
-203.5239250846061
 30
0.0
 10
160.9722521934335
 20
-203.5242656703607
 30
0.0
 10
153.2150305689033
 20
-203.5246062561108
 30
0.0
 10
153.2218180548661
 20
-196.8629050247439
 30
0.0
 10
153.1805199736056
 20
-190.2006361504513
 30
0.0
 10
153.2721359508083
 20
-183.5399708674141
 30
0.0
 10
153.2928000747394
 20
-182.0383282814252
 30
0.0
 10
152.8808449266738
 20
-181.6055715087247
 30
0.0
 10
151.2476098875791
 20
-181.6128799113482
 30
0.0
 10
137.2513009989776
 20
-181.6754625435048
 30
0.0
 10
123.2544340281957
 20
-181.6754625435048
 30
0.0
 10
109.2580949729893
 20
-181.6128941024191
 30
0.0
 10
107.6248448505915
 20
-181.6055715087247
 30
0.0
 10
107.2128897025262
 20
-182.0383424724964
 30
0.0
 10
107.2335538264583
 20
-183.5399708674141
 30
0.0
 10
107.3251698036617
 20
-190.2006361504513
 30
0.0
 10
107.2838717223999
 20
-196.8629192158149
 30
0.0
 10
107.2906893749688
 20
-203.5246062561108
 30
0.0
 10
99.71126971607002
 20
-203.5286081387149
 30
0.0
 10
92.131880223779
 20
-203.5325816391672
 30
0.0
 10
84.5524605648828
 20
-203.5365551396239
 30
0.0
 10
84.54657807704699
 20
-161.085748182044
 30
0.0
 10
84.55402922830602
 20
-118.6349270333976
 30
0.0
 10
84.49224802273721
 20
-76.18419103118687
 30
0.0
 10
84.48938219533088
 20
-74.23174772311403
 30
0.0
 10
85.10357425850007
 20
-73.68512178025249
 30
0.0
 10
87.138734049736
 20
-73.72434590616547
 30
0.0
 10
93.14668479180513
 20
-73.84013087119109
 30
0.0
 10
99.15934152413978
 20
-73.72362216143858
 30
0.0
 10
105.1689212628393
 20
-73.79288878900286
 30
0.0
 10
106.7740561100457
 20
-73.81140104380002
 30
0.0
 10
107.3202526471636
 20
-73.3324949015357
 30
0.0
 10
107.2997695228567
 20
-71.80410214284461
 30
0.0
 10
107.223960846298
 20
-66.15005934008803
 30
0.0
 10
107.3878861739624
 20
-60.49133703099565
 30
0.0
 10
107.2130707021523
 20
-54.84118258225507
 30
0.0
 10
107.1417266830268
 20
-52.53520416678999
 30
0.0
 10
107.7445459363811
 20
-51.84495392134996
 30
0.0
 10
110.3182399472475
 20
-51.85110575151382
 30
0.0
 10
146.6279715244453
 20
-51.93788416322294
 30
0.0
 10
182.9380047676869
 20
-51.91050248776977
 30
0.0
 10
219.2479625944159
 20
-51.90818224732691
 30
0.0
 10
220.3178966317643
 20
-51.90811483973047
 30
0.0
 10
221.3878457524163
 20
-51.87953047083758
 30
0.0
 10
222.4575384569291
 20
-51.8639912458455
 30
0.0
 10
230.1826175645988
 20
-51.86373580653098
 30
0.0
 10
237.907953088403
 20
-51.86372871099615
 30
0.0
 10
245.6332735289067
 20
-51.8637216154549
 30
0.0
  0
SPLINE
  5
60
330
48
100
AcDbEntity
  8
Layer 1
 62
   165
420
  4285358
370
    35
100
AcDbSpline
210
0.0
220
0.0
230
1.0
 70
    11
 71
     3
 72
   110
 73
   106
 74
     0
 42
0.0000000001
 43
0.0000000001
 12
1.0
 22
0.0
 32
0.0
 13
1.0
 23
0.0
 33
0.0
 40
0.0
 40
0.0
 40
0.0
 40
0.0
 40
1.0
 40
1.0
 40
1.0
 40
2.0
 40
2.0
 40
2.0
 40
3.0
 40
3.0
 40
3.0
 40
4.0
 40
4.0
 40
4.0
 40
5.0
 40
5.0
 40
5.0
 40
6.0
 40
6.0
 40
6.0
 40
7.0
 40
7.0
 40
7.0
 40
8.0
 40
8.0
 40
8.0
 40
9.0
 40
9.0
 40
9.0
 40
10.0
 40
10.0
 40
10.0
 40
11.0
 40
11.0
 40
11.0
 40
12.0
 40
12.0
 40
12.0
 40
13.0
 40
13.0
 40
13.0
 40
14.0
 40
14.0
 40
14.0
 40
15.0
 40
15.0
 40
15.0
 40
16.0
 40
16.0
 40
16.0
 40
17.0
 40
17.0
 40
17.0
 40
18.0
 40
18.0
 40
18.0
 40
19.0
 40
19.0
 40
19.0
 40
20.0
 40
20.0
 40
20.0
 40
21.0
 40
21.0
 40
21.0
 40
22.0
 40
22.0
 40
22.0
 40
23.0
 40
23.0
 40
23.0
 40
24.0
 40
24.0
 40
24.0
 40
25.0
 40
25.0
 40
25.0
 40
26.0
 40
26.0
 40
26.0
 40
27.0
 40
27.0
 40
27.0
 40
28.0
 40
28.0
 40
28.0
 40
29.0
 40
29.0
 40
29.0
 40
30.0
 40
30.0
 40
30.0
 40
31.0
 40
31.0
 40
31.0
 40
32.0
 40
32.0
 40
32.0
 40
33.0
 40
33.0
 40
33.0
 40
34.0
 40
34.0
 40
34.0
 40
35.0
 40
35.0
 40
35.0
 40
35.0
 10
337.5727762497917
 20
-311.8203176248205
 30
0.0
 10
337.5786700501027
 20
-339.87096026082
 30
0.0
 10
337.5625535417655
 20
-367.9216880432598
 30
0.0
 10
337.6365220554627
 20
-395.9721603863823
 30
0.0
 10
337.6418464611187
 20
-397.9925434566889
 30
0.0
 10
336.9032888009757
 20
-398.4177080053008
 30
0.0
 10
334.9366298264115
 20
-398.3827979655979
 30
0.0
 10
329.0088204394421
 20
-398.2775285857028
 30
0.0
 10
323.0740651918363
 20
-398.4555130239118
 30
0.0
 10
317.1493403401556
 20
-398.2903856978865
 30
0.0
 10
314.7795876575325
 20
-398.2243404439054
 30
0.0
 10
314.2615968954169
 20
-398.9964483464775
 30
0.0
 10
314.3146674939992
 20
-401.0577017071712
 30
0.0
 10
314.4522573761267
 20
-406.4012651181769
 30
0.0
 10
314.2454426788246
 20
-411.7532580265768
 30
0.0
 10
314.4165024084019
 20
-417.0950901266676
 30
0.0
 10
314.4868660128876
 20
-419.2923507314815
 30
0.0
 10
313.7150609840003
 20
-419.7795870336232
 30
0.0
 10
311.4963751139668
 20
-419.7777421941285
 30
0.0
 10
248.408676539302
 20
-419.7252636059828
 30
0.0
 10
113.8301756844733
 20
-419.6593318805905
 30
0.0
 10
109.6331261974148
 20
-419.7705898933078
 30
0.0
 10
107.810731466174
 20
-419.8189246881213
 30
0.0
 10
107.195694738086
 20
-419.3185474523341
 30
0.0
 10
107.2301450001749
 20
-417.5529509075905
 30
0.0
 10
107.3390464416307
 20
-411.9756889055809
 30
0.0
 10
107.1940657414555
 20
-406.3938857601891
 30
0.0
 10
107.3125903296762
 20
-400.8169927260753
 30
0.0
 10
107.3526515801624
 20
-398.9318505819501
 30
0.0
 10
106.8358674822172
 20
-398.2534605258081
 30
0.0
 10
104.7208868560527
 20
-398.3002343025842
 30
0.0
 10
98.87655977560713
 20
-398.4294582137886
 30
0.0
 10
93.02544520919749
 20
-398.2753999247443
 30
0.0
 10
87.18015279741354
 20
-398.3834507549543
 30
0.0
 10
85.20134422297458
 20
-398.4200353412839
 30
0.0
 10
84.4867878673621
 20
-397.9722502222227
 30
0.0
 10
84.48986486099942
 20
-395.9640714747427
 30
0.0
 10
84.55514539266302
 20
-353.5008047550271
 30
0.0
 10
84.54660824365187
 20
-311.0373961245816
 30
0.0
 10
84.55237006507038
 20
-268.573959111989
 30
0.0
 10
92.13172939075683
 20
-268.5779326124457
 30
0.0
 10
99.71120938286379
 20
-268.581962877192
 30
0.0
 10
107.2906893749688
 20
-268.5859931419376
 30
0.0
 10
107.2838717223999
 20
-275.092713664513
 30
0.0
 10
107.3261351349988
 20
-281.6000585943083
 30
0.0
 10
107.2334633266459
 20
-288.1057005953293
 30
0.0
 10
107.2121053708156
 20
-289.6075986206376
 30
0.0
 10
107.6252370164476
 20
-290.0399438522171
 30
0.0
 10
109.2582156394063
 20
-290.0326496406652
 30
0.0
 10
123.2544340281957
 20
-289.9701237728036
 30
0.0
 10
137.2512255824667
 20
-289.97015215495
 30
0.0
 10
151.2474439712564
 20
-290.0326780228123
 30
0.0
 10
152.8804075109117
 20
-290.0399722343597
 30
0.0
 10
153.2935844064511
 20
-289.6077121492199
 30
0.0
 10
153.2721812007144
 20
-288.1057289774764
 30
0.0
 10
153.179494309059
 20
-281.6000869764554
 30
0.0
 10
153.2217878882625
 20
-275.0927420466594
 30
0.0
 10
153.2149702356945
 20
-268.5860215240808
 30
0.0
 10
160.9718751108802
 20
-268.5860215240808
 30
0.0
 10
168.7287649027644
 20
-268.5860215240808
 30
0.0
 10
176.4856546946476
 20
-268.5860215240808
 30
0.0
 10
176.4788521253814
 20
-282.3807946692941
 30
0.0
 10
176.4978721693819
 20
-296.1756529609436
 30
0.0
 10
176.4285342294395
 20
-309.9701422846903
 30
0.0
 10
176.4209171618594
 20
-311.4875085796208
 30
0.0
 10
176.8462059490166
 20
-311.9088699206571
 30
0.0
 10
178.4643426026702
 20
-311.8882928647354
 30
0.0
 10
185.5470087888638
 20
-311.7982646972968
 30
0.0
 10
192.6315302212242
 20
-311.838964694807
 30
0.0
 10
199.7153879882886
 20
-311.8322381261808
 30
0.0
 10
199.7085854190227
 20
-318.3420806848318
 30
0.0
 10
199.7530660770351
 20
-324.8526327971326
 30
0.0
 10
199.6568647759822
 20
-331.3612833056421
 30
0.0
 10
199.6344057390945
 20
-332.8823676617155
 30
0.0
 10
200.0784732374192
 20
-333.2999541773213
 30
0.0
 10
201.6950261443465
 20
-333.2788378606204
 30
0.0
 10
208.6129223379556
 20
-333.1883555788422
 30
0.0
 10
215.5327793608447
 20
-333.2302192443469
 30
0.0
 10
222.4519123852323
 20
-333.2237764971825
 30
0.0
 10
222.444762900016
 20
-339.8860311803987
 30
0.0
 10
222.4862570642057
 20
-346.5488535065399
 30
0.0
 10
222.3933439230189
 20
-353.2100580503567
 30
0.0
 10
222.372332883138
 20
-354.7168661869333
 30
0.0
 10
222.7938659280634
 20
-355.1373760635898
 30
0.0
 10
224.4212938958333
 20
-355.1334877095732
 30
0.0
 10
246.1589266085088
 20
-355.0813213250344
 30
0.0
 10
267.8967855707185
 20
-355.0813213250344
 30
0.0
 10
289.6344107417432
 20
-355.1334593274274
 30
0.0
 10
291.2618010012594
 20
-355.1373760635898
 30
0.0
 10
291.6834170043462
 20
-354.716922951228
 30
0.0
 10
291.6623984228136
 20
-353.2100864324993
 30
0.0
 10
291.5694852816264
 20
-346.5489102708301
 30
0.0
 10
291.6109719041642
 20
-339.8860595625451
 30
0.0
 10
291.6037997939969
 20
-333.2238332614714
 30
0.0
 10
298.5229554433351
 20
-333.2302192443469
 30
0.0
 10
305.4428124662258
 20
-333.1883555788422
 30
0.0
 10
312.3607312847903
 20
-333.2788094784727
 30
0.0
 10
313.977284191716
 20
-333.2999541773213
 30
0.0
 10
314.4213516900408
 20
-332.8823676617155
 30
0.0
 10
314.3988851115006
 20
-331.3612833056421
 30
0.0
 10
314.3026913520978
 20
-324.8526044149862
 30
0.0
 10
314.3471870934147
 20
-318.3420806848318
 30
0.0
 10
314.3403845241475
 20
-311.8322097440344
 30
0.0
 10
322.084513842421
 20
-311.8282362435818
 30
0.0
 10
329.8286469315176
 20
-311.8242911252731
 30
0.0
 10
337.5727762497917
 20
-311.8203176248205
 30
0.0
  0
SPLINE
  5
61
330
48
100
AcDbEntity
  8
Layer 1
 62
   165
420
  4285358
370
    35
100
AcDbSpline
210
0.0
220
0.0
230
1.0
 70
    11
 71
     3
 72
    23
 73
    19
 74
     0
 42
0.0000000001
 43
0.0000000001
 12
1.0
 22
0.0
 32
0.0
 13
1.0
 23
0.0
 33
0.0
 40
0.0
 40
0.0
 40
0.0
 40
0.0
 40
1.0
 40
1.0
 40
1.0
 40
2.0
 40
2.0
 40
2.0
 40
3.0
 40
3.0
 40
3.0
 40
4.0
 40
4.0
 40
4.0
 40
5.0
 40
5.0
 40
5.0
 40
6.0
 40
6.0
 40
6.0
 40
6.0
 10
337.5727762497917
 20
-311.8203176248205
 30
0.0
 10
329.8286469315176
 20
-311.8242911252731
 30
0.0
 10
322.084513842421
 20
-311.8282362435818
 30
0.0
 10
314.3403845241475
 20
-311.8322097440344
 30
0.0
 10
314.3403845241475
 20
-311.8322097440344
 30
0.0
 10
314.3791259856968
 20
-311.8696741768915
 30
0.0
 10
314.3791259856968
 20
-311.8696741768915
 30
0.0
 10
314.3791335273482
 20
-261.3267483975957
 30
0.0
 10
314.3791335273482
 20
-210.7838368093818
 30
0.0
 10
314.3791410689983
 20
-160.2409252211577
 30
0.0
 10
314.3791410689983
 20
-160.2409252211577
 30
0.0
 10
314.340452399008
 20
-160.2783896540141
 30
0.0
 10
314.340452399008
 20
-160.2783896540141
 30
0.0
 10
322.0846420504893
 20
-160.2824057276891
 30
0.0
 10
329.828827931145
 20
-160.2864218013597
 30
0.0
 10
337.5729082286858
 20
-160.29036691967
 30
0.0
 10
337.5727913330939
 20
-210.8002984541161
 30
0.0
 10
337.5727837914432
 20
-261.310315135003
 30
0.0
 10
337.5727762497917
 20
-311.8203176248205
 30
0.0
  0
SPLINE
  5
62
330
48
100
AcDbEntity
  8
Layer 1
 62
   165
420
  4285358
370
    35
100
AcDbSpline
210
0.0
220
0.0
230
1.0
 70
    11
 71
     3
 72
    23
 73
    19
 74
     0
 42
0.0000000001
 43
0.0000000001
 12
1.0
 22
0.0
 32
0.0
 13
1.0
 23
0.0
 33
0.0
 40
0.0
 40
0.0
 40
0.0
 40
0.0
 40
1.0
 40
1.0
 40
1.0
 40
2.0
 40
2.0
 40
2.0
 40
3.0
 40
3.0
 40
3.0
 40
4.0
 40
4.0
 40
4.0
 40
5.0
 40
5.0
 40
5.0
 40
6.0
 40
6.0
 40
6.0
 40
6.0
 10
107.2906893749688
 20
-268.5859931419376
 30
0.0
 10
99.71120938286379
 20
-268.581962877192
 30
0.0
 10
92.13172939075683
 20
-268.5779326124457
 30
0.0
 10
84.55237006507038
 20
-268.573959111989
 30
0.0
 10
84.55240023167399
 20
-246.8949096009722
 30
0.0
 10
84.5523097318619
 20
-225.2158033256605
 30
0.0
 10
84.55237006507038
 20
-203.5366260949886
 30
0.0
 10
92.131880223779
 20
-203.5325816391672
 30
0.0
 10
99.71126971607002
 20
-203.5286081387149
 30
0.0
 10
107.2906893749688
 20
-203.5246062561108
 30
0.0
 10
107.2906893749688
 20
-203.5246062561108
 30
0.0
 10
107.251925288466
 20
-203.4871418232586
 30
0.0
 10
107.251925288466
 20
-203.4871418232586
 30
0.0
 10
107.251925288466
 20
-225.1992423434091
 30
0.0
 10
107.251925288466
 20
-246.911342863563
 30
0.0
 10
107.251925288466
 20
-268.623429192648
 30
0.0
 10
107.251925288466
 20
-268.623429192648
 30
0.0
 10
107.2906893749688
 20
-268.5859931419376
 30
0.0
 10
107.2906893749688
 20
-268.5859931419376
 30
0.0
  0
SPLINE
  5
63
330
48
100
AcDbEntity
  8
Layer 1
 62
   165
420
  4285358
370
    35
100
AcDbSpline
210
0.0
220
0.0
230
1.0
 70
    11
 71
     3
 72
    65
 73
    61
 74
     0
 42
0.0000000001
 43
0.0000000001
 12
1.0
 22
0.0
 32
0.0
 13
1.0
 23
0.0
 33
0.0
 40
0.0
 40
0.0
 40
0.0
 40
0.0
 40
1.0
 40
1.0
 40
1.0
 40
2.0
 40
2.0
 40
2.0
 40
3.0
 40
3.0
 40
3.0
 40
4.0
 40
4.0
 40
4.0
 40
5.0
 40
5.0
 40
5.0
 40
6.0
 40
6.0
 40
6.0
 40
7.0
 40
7.0
 40
7.0
 40
8.0
 40
8.0
 40
8.0
 40
9.0
 40
9.0
 40
9.0
 40
10.0
 40
10.0
 40
10.0
 40
11.0
 40
11.0
 40
11.0
 40
12.0
 40
12.0
 40
12.0
 40
13.0
 40
13.0
 40
13.0
 40
14.0
 40
14.0
 40
14.0
 40
15.0
 40
15.0
 40
15.0
 40
16.0
 40
16.0
 40
16.0
 40
17.0
 40
17.0
 40
17.0
 40
18.0
 40
18.0
 40
18.0
 40
19.0
 40
19.0
 40
19.0
 40
20.0
 40
20.0
 40
20.0
 40
20.0
 10
176.4866954424949
 20
-203.5235844988521
 30
0.0
 10
176.4795308739769
 20
-196.9405160032613
 30
0.0
 10
176.5398188326353
 20
-190.3563547950414
 30
0.0
 10
176.4193032485308
 20
-183.7751169478724
 30
0.0
 10
176.3878696468687
 20
-182.0583093122793
 30
0.0
 10
176.8220274156864
 20
-181.5921325625441
 30
0.0
 10
178.6967913719589
 20
-181.6034996120609
 30
0.0
 10
192.5257661066139
 20
-181.6872411341361
 30
0.0
 10
206.3557966724171
 20
-181.6121277844737
 30
0.0
 10
220.1848166569773
 20
-181.6924350668762
 30
0.0
 10
222.0328530018564
 20
-181.7031777091726
 30
0.0
 10
222.4882178934838
 20
-181.2747775959016
 30
0.0
 10
222.4768300003672
 20
-179.5360305613725
 30
0.0
 10
222.3914735935529
 20
-166.5250445718549
 30
0.0
 10
222.4712642618782
 20
-153.513107780444
 30
0.0
 10
222.3822727792481
 20
-140.5021643641451
 30
0.0
 10
222.3702363041393
 20
-138.7383558946057
 30
0.0
 10
222.8656171963446
 20
-138.3297949014629
 30
0.0
 10
224.6904252559285
 20
-138.3593832887757
 30
0.0
 10
231.6854574566862
 20
-138.4727841535244
 30
0.0
 10
238.6835817343836
 20
-138.4160340523934
 30
0.0
 10
245.6805596811179
 20
-138.4227748120912
 30
0.0
 10
245.6805596811179
 20
-138.4227748120912
 30
0.0
 10
245.6418257612212
 20
-138.3853103792396
 30
0.0
 10
245.6418257612212
 20
-138.3853103792396
 30
0.0
 10
245.6479194152851
 20
-159.3862678466513
 30
0.0
 10
245.6774676041782
 20
-180.3872820783525
 30
0.0
 10
245.6161388976753
 20
-201.3880692528828
 30
0.0
 10
245.6111614079696
 20
-203.0897917778224
 30
0.0
 10
245.9834927213108
 20
-203.5937877372386
 30
0.0
 10
247.8735813125589
 20
-203.5531728861646
 30
0.0
 10
253.9655611308533
 20
-203.4222318551198
 30
0.0
 10
260.0643736850159
 20
-203.5792418873579
 30
0.0
 10
266.1568587939323
 20
-203.4589441611065
 30
0.0
 10
267.9943896188706
 20
-203.4226717783861
 30
0.0
 10
268.4495584275704
 20
-203.8462895000412
 30
0.0
 10
268.443148024161
 20
-205.5967157876886
 30
0.0
 10
268.3688024279081
 20
-225.9000826771222
 30
0.0
 10
268.3695188847608
 20
-246.2038752987418
 30
0.0
 10
268.4421977761251
 20
-266.507256379246
 30
0.0
 10
268.4484120966082
 20
-268.2442721028652
 30
0.0
 10
268.0119842908173
 20
-268.6620856756357
 30
0.0
 10
266.1646040695821
 20
-268.6509882565095
 30
0.0
 10
252.4098693480641
 20
-268.5684529756458
 30
0.0
 10
238.6539279623748
 20
-268.5583489316355
 30
0.0
 10
224.8994496569939
 20
-268.6575729144093
 30
0.0
 10
222.8272754423044
 20
-268.6725019232575
 30
0.0
 10
222.3711262189664
 20
-268.1831369601579
 30
0.0
 10
222.3789997026832
 20
-266.2660932838132
 30
0.0
 10
222.4620483642696
 20
-246.0402806086078
 30
0.0
 10
222.402544737325
 20
-225.8139428636995
 30
0.0
 10
222.4791528288984
 20
-205.5880876152761
 30
0.0
 10
222.4858498150481
 20
-203.8200785881125
 30
0.0
 10
221.997316742014
 20
-203.4530122925724
 30
0.0
 10
220.1832178269514
 20
-203.4617681846413
 30
0.0
 10
205.6047688922295
 20
-203.5321275248293
 30
0.0
 10
191.0257317087228
 20
-203.4928750167731
 30
0.0
 10
176.4468755248449
 20
-203.4871418232586
 30
0.0
 10
176.4468755248449
 20
-203.4871418232586
 30
0.0
 10
176.4866954424949
 20
-203.5235844988521
 30
0.0
 10
176.4866954424949
 20
-203.5235844988521
 30
0.0
  0
SPLINE
  5
64
330
48
100
AcDbEntity
  8
Layer 1
 62
   165
420
  4285358
370
    35
100
AcDbSpline
210
0.0
220
0.0
230
1.0
 70
    11
 71
     3
 72
    29
 73
    25
 74
     0
 42
0.0000000001
 43
0.0000000001
 12
1.0
 22
0.0
 32
0.0
 13
1.0
 23
0.0
 33
0.0
 40
0.0
 40
0.0
 40
0.0
 40
0.0
 40
1.0
 40
1.0
 40
1.0
 40
2.0
 40
2.0
 40
2.0
 40
3.0
 40
3.0
 40
3.0
 40
4.0
 40
4.0
 40
4.0
 40
5.0
 40
5.0
 40
5.0
 40
6.0
 40
6.0
 40
6.0
 40
7.0
 40
7.0
 40
7.0
 40
8.0
 40
8.0
 40
8.0
 40
8.0
 10
176.4856546946476
 20
-268.5860215240808
 30
0.0
 10
168.7287649027644
 20
-268.5860215240808
 30
0.0
 10
160.9718751108802
 20
-268.5860215240808
 30
0.0
 10
153.2149853189963
 20
-268.5860215240808
 30
0.0
 10
153.2149853189963
 20
-268.5860215240808
 30
0.0
 10
153.2537644888007
 20
-268.623429192648
 30
0.0
 10
153.2537644888007
 20
-268.623429192648
 30
0.0
 10
153.2537644888007
 20
-246.911342863563
 30
0.0
 10
153.2537644888007
 20
-225.1992423434091
 30
0.0
 10
153.2537644888007
 20
-203.4871418232586
 30
0.0
 10
153.2537644888007
 20
-203.4871418232586
 30
0.0
 10
153.2150305689033
 20
-203.5246062561108
 30
0.0
 10
153.2150305689033
 20
-203.5246062561108
 30
0.0
 10
160.9722521934335
 20
-203.5242656703607
 30
0.0
 10
168.7294738179631
 20
-203.5239250846061
 30
0.0
 10
176.4866954424949
 20
-203.5235844988521
 30
0.0
 10
176.4866954424949
 20
-203.5235844988521
 30
0.0
 10
176.4468755248449
 20
-203.4871418232586
 30
0.0
 10
176.4468755248449
 20
-203.4871418232586
 30
0.0
 10
176.4468755248449
 20
-225.1992423434091
 30
0.0
 10
176.4468755248449
 20
-246.911342863563
 30
0.0
 10
176.4468755248449
 20
-268.623429192648
 30
0.0
 10
176.4468755248449
 20
-268.623429192648
 30
0.0
 10
176.4856546946476
 20
-268.5860215240808
 30
0.0
 10
176.4856546946476
 20
-268.5860215240808
 30
0.0
  0
SPLINE
  5
65
330
48
100
AcDbEntity
  8
Layer 1
 62
   165
420
  4285358
370
    35
100
AcDbSpline
210
0.0
220
0.0
230
1.0
 70
    11
 71
     3
 72
    29
 73
    25
 74
     0
 42
0.0000000001
 43
0.0000000001
 12
1.0
 22
0.0
 32
0.0
 13
1.0
 23
0.0
 33
0.0
 40
0.0
 40
0.0
 40
0.0
 40
0.0
 40
1.0
 40
1.0
 40
1.0
 40
2.0
 40
2.0
 40
2.0
 40
3.0
 40
3.0
 40
3.0
 40
4.0
 40
4.0
 40
4.0
 40
5.0
 40
5.0
 40
5.0
 40
6.0
 40
6.0
 40
6.0
 40
7.0
 40
7.0
 40
7.0
 40
8.0
 40
8.0
 40
8.0
 40
8.0
 10
107.2906893749688
 20
-203.5246062561108
 30
0.0
 10
107.2838717223999
 20
-196.8629192158149
 30
0.0
 10
107.3251698036617
 20
-190.2006361504513
 30
0.0
 10
107.2335538264583
 20
-183.5399708674141
 30
0.0
 10
107.2128897025262
 20
-182.0383424724964
 30
0.0
 10
107.6248448505915
 20
-181.6055715087247
 30
0.0
 10
109.2580949729893
 20
-181.6128941024191
 30
0.0
 10
123.2544340281957
 20
-181.6754625435048
 30
0.0
 10
137.2513009989776
 20
-181.6754625435048
 30
0.0
 10
151.2476098875791
 20
-181.6128799113482
 30
0.0
 10
152.8808449266738
 20
-181.6055715087247
 30
0.0
 10
153.2928000747394
 20
-182.0383282814252
 30
0.0
 10
153.2721359508083
 20
-183.5399708674141
 30
0.0
 10
153.1805199736056
 20
-190.2006361504513
 30
0.0
 10
153.2218180548661
 20
-196.8629050247439
 30
0.0
 10
153.2150305689033
 20
-203.5246062561108
 30
0.0
 10
153.2150305689033
 20
-203.5246062561108
 30
0.0
 10
153.2537644888007
 20
-203.4871418232586
 30
0.0
 10
153.2537644888007
 20
-203.4871418232586
 30
0.0
 10
137.9198231164566
 20
-203.4871418232586
 30
0.0
 10
122.5858817441131
 20
-203.4871418232586
 30
0.0
 10
107.251925288466
 20
-203.4871418232586
 30
0.0
 10
107.251925288466
 20
-203.4871418232586
 30
0.0
 10
107.2906893749688
 20
-203.5246062561108
 30
0.0
 10
107.2906893749688
 20
-203.5246062561108
 30
0.0
  0
SPLINE
  5
66
330
48
100
AcDbEntity
  8
Layer 1
 62
   165
420
  4285358
370
    35
100
AcDbSpline
210
0.0
220
0.0
230
1.0
 70
    11
 71
     3
 72
    29
 73
    25
 74
     0
 42
0.0000000001
 43
0.0000000001
 12
1.0
 22
0.0
 32
0.0
 13
1.0
 23
0.0
 33
0.0
 40
0.0
 40
0.0
 40
0.0
 40
0.0
 40
1.0
 40
1.0
 40
1.0
 40
2.0
 40
2.0
 40
2.0
 40
3.0
 40
3.0
 40
3.0
 40
4.0
 40
4.0
 40
4.0
 40
5.0
 40
5.0
 40
5.0
 40
6.0
 40
6.0
 40
6.0
 40
7.0
 40
7.0
 40
7.0
 40
8.0
 40
8.0
 40
8.0
 40
8.0
 10
245.6805596811179
 20
-138.4227748120912
 30
0.0
 10
245.6737571118517
 20
-131.9161252448818
 30
0.0
 10
245.7159903578467
 20
-125.4088512704563
 30
0.0
 10
245.6234090493079
 20
-118.9032731292587
 30
0.0
 10
245.6020510934753
 20
-117.4017724540004
 30
0.0
 10
246.0143531574913
 20
-116.9687460509116
 30
0.0
 10
247.6478144461172
 20
-116.9760615490696
 30
0.0
 10
261.6438820018867
 20
-117.0386583723017
 30
0.0
 10
275.6405378064385
 20
-117.0385519392545
 30
0.0
 10
289.6366053622058
 20
-116.9761679821177
 30
0.0
 10
291.2681586131114
 20
-116.9688950571812
 30
0.0
 10
291.6837337536917
 20
-117.3989839081442
 30
0.0
 10
291.6621797149324
 20
-118.9022726586067
 30
0.0
 10
291.5689271994479
 20
-125.4078224176576
 30
0.0
 10
291.6109719041642
 20
-131.9150892965461
 30
0.0
 10
291.6037997939969
 20
-138.4217388637616
 30
0.0
 10
291.6037997939969
 20
-138.4217388637616
 30
0.0
 10
291.6436574199033
 20
-138.3853103792396
 30
0.0
 10
291.6436574199033
 20
-138.3853103792396
 30
0.0
 10
276.3097160475601
 20
-138.3853103792396
 30
0.0
 10
260.975767133564
 20
-138.3853103792396
 30
0.0
 10
245.6418257612212
 20
-138.3853103792396
 30
0.0
 10
245.6418257612212
 20
-138.3853103792396
 30
0.0
 10
245.6805596811179
 20
-138.4227748120912
 30
0.0
 10
245.6805596811179
 20
-138.4227748120912
 30
0.0
  0
SPLINE
  5
67
330
48
100
AcDbEntity
  8
Layer 1
 62
   165
420
  4285358
370
    35
100
AcDbSpline
210
0.0
220
0.0
230
1.0
 70
    11
 71
     3
 72
    29
 73
    25
 74
     0
 42
0.0000000001
 43
0.0000000001
 12
1.0
 22
0.0
 32
0.0
 13
1.0
 23
0.0
 33
0.0
 40
0.0
 40
0.0
 40
0.0
 40
0.0
 40
1.0
 40
1.0
 40
1.0
 40
2.0
 40
2.0
 40
2.0
 40
3.0
 40
3.0
 40
3.0
 40
4.0
 40
4.0
 40
4.0
 40
5.0
 40
5.0
 40
5.0
 40
6.0
 40
6.0
 40
6.0
 40
7.0
 40
7.0
 40
7.0
 40
8.0
 40
8.0
 40
8.0
 40
8.0
 10
291.6037922523458
 20
-138.4217530548325
 30
0.0
 10
298.5229554433351
 20
-138.4153670719609
 30
0.0
 10
305.4428350911787
 20
-138.4572449285362
 30
0.0
 10
312.3607539097426
 20
-138.3667484556884
 30
0.0
 10
313.9773973164823
 20
-138.3456179479114
 30
0.0
 10
314.4205598166772
 20
-138.763346374251
 30
0.0
 10
314.398854944897
 20
-140.284274628518
 30
0.0
 10
314.3037396415982
 20
-146.9480193744075
 30
0.0
 10
314.3472323433204
 20
-153.6135380044296
 30
0.0
 10
314.340452399008
 20
-160.2784038450851
 30
0.0
 10
314.340452399008
 20
-160.2784038450851
 30
0.0
 10
314.3791410689983
 20
-160.2409252211577
 30
0.0
 10
314.3791410689983
 20
-160.2409252211577
 30
0.0
 10
307.4114247284164
 20
-160.246672605748
 30
0.0
 10
300.4430371808907
 20
-160.205816506432
 30
0.0
 10
293.4765199628294
 20
-160.2946242415877
 30
0.0
 10
291.9515754914542
 20
-160.3140518205909
 30
0.0
 10
291.5672604945612
 20
-159.9443034122428
 30
0.0
 10
291.5869668288086
 20
-158.5142547897962
 30
0.0
 10
291.6794350125821
 20
-151.8054959601899
 30
0.0
 10
291.6375637658384
 20
-145.0951193482516
 30
0.0
 10
291.6436574199033
 20
-138.3853103792396
 30
0.0
 10
291.6436574199033
 20
-138.3853103792396
 30
0.0
 10
291.6037922523458
 20
-138.4217530548325
 30
0.0
 10
291.6037922523458
 20
-138.4217530548325
 30
0.0
  0
SPLINE
  5
68
330
48
100
AcDbEntity
  8
Layer 1
 62
   165
420
  4285358
370
    35
100
AcDbSpline
210
0.0
220
0.0
230
1.0
 70
    11
 71
     3
 72
    29
 73
    25
 74
     0
 42
0.0000000001
 43
0.0000000001
 12
1.0
 22
0.0
 32
0.0
 13
1.0
 23
0.0
 33
0.0
 40
0.0
 40
0.0
 40
0.0
 40
0.0
 40
1.0
 40
1.0
 40
1.0
 40
2.0
 40
2.0
 40
2.0
 40
3.0
 40
3.0
 40
3.0
 40
4.0
 40
4.0
 40
4.0
 40
5.0
 40
5.0
 40
5.0
 40
6.0
 40
6.0
 40
6.0
 40
7.0
 40
7.0
 40
7.0
 40
8.0
 40
8.0
 40
8.0
 40
8.0
 10
291.6037997939969
 20
-333.2238332614714
 30
0.0
 10
291.6109719041642
 20
-339.8860595625451
 30
0.0
 10
291.5694852816264
 20
-346.5489102708301
 30
0.0
 10
291.6623984228136
 20
-353.2100864324993
 30
0.0
 10
291.6834170043462
 20
-354.716922951228
 30
0.0
 10
291.2618010012594
 20
-355.1373760635898
 30
0.0
 10
289.6344107417432
 20
-355.1334593274274
 30
0.0
 10
267.8967855707185
 20
-355.0813213250344
 30
0.0
 10
246.1589266085088
 20
-355.0813213250344
 30
0.0
 10
224.4212938958333
 20
-355.1334877095732
 30
0.0
 10
222.7938659280634
 20
-355.1373760635898
 30
0.0
 10
222.372332883138
 20
-354.7168661869333
 30
0.0
 10
222.3933439230189
 20
-353.2100580503567
 30
0.0
 10
222.4862570642057
 20
-346.5488535065399
 30
0.0
 10
222.444762900016
 20
-339.8860311803987
 30
0.0
 10
222.4519123852323
 20
-333.2237764971825
 30
0.0
 10
222.4519123852323
 20
-333.2237764971825
 30
0.0
 10
222.41209246758
 20
-333.2602475549215
 30
0.0
 10
222.41209246758
 20
-333.2602475549215
 30
0.0
 10
245.4892732433704
 20
-333.2602475549215
 30
0.0
 10
268.5664615608123
 20
-333.2602475549215
 30
0.0
 10
291.6436423366005
 20
-333.2602759370691
 30
0.0
 10
291.6436423366005
 20
-333.2602759370691
 30
0.0
 10
291.6037997939969
 20
-333.2238332614714
 30
0.0
 10
291.6037997939969
 20
-333.2238332614714
 30
0.0
  0
SPLINE
  5
69
330
48
100
AcDbEntity
  8
Layer 1
 62
   165
420
  4285358
370
    35
100
AcDbSpline
210
0.0
220
0.0
230
1.0
 70
    11
 71
     3
 72
    29
 73
    25
 74
     0
 42
0.0000000001
 43
0.0000000001
 12
1.0
 22
0.0
 32
0.0
 13
1.0
 23
0.0
 33
0.0
 40
0.0
 40
0.0
 40
0.0
 40
0.0
 40
1.0
 40
1.0
 40
1.0
 40
2.0
 40
2.0
 40
2.0
 40
3.0
 40
3.0
 40
3.0
 40
4.0
 40
4.0
 40
4.0
 40
5.0
 40
5.0
 40
5.0
 40
6.0
 40
6.0
 40
6.0
 40
7.0
 40
7.0
 40
7.0
 40
8.0
 40
8.0
 40
8.0
 40
8.0
 10
199.7153879882886
 20
-311.8322381261808
 30
0.0
 10
192.6315302212242
 20
-311.838964694807
 30
0.0
 10
185.5470087888638
 20
-311.7982646972968
 30
0.0
 10
178.4643426026702
 20
-311.8882928647354
 30
0.0
 10
176.8462059490166
 20
-311.9088699206571
 30
0.0
 10
176.4209171618594
 20
-311.4875085796208
 30
0.0
 10
176.4285342294395
 20
-309.9701422846903
 30
0.0
 10
176.4978721693819
 20
-296.1756529609436
 30
0.0
 10
176.4788521253814
 20
-282.3807946692941
 30
0.0
 10
176.4856546946476
 20
-268.5860215240808
 30
0.0
 10
176.4856546946476
 20
-268.5860215240808
 30
0.0
 10
176.4468755248449
 20
-268.6234575747947
 30
0.0
 10
176.4468755248449
 20
-268.6234575747947
 30
0.0
 10
183.590252002155
 20
-268.6176959991341
 30
0.0
 10
190.7344278944796
 20
-268.6640724258642
 30
0.0
 10
197.8763714580885
 20
-268.565983728933
 30
0.0
 10
199.4696055799054
 20
-268.5441010942914
 30
0.0
 10
199.7331259516052
 20
-269.0197858629687
 30
0.0
 10
199.7272887136767
 20
-270.3858185548801
 30
0.0
 10
199.6681169193798
 20
-284.2136001360075
 30
0.0
 10
199.6827175558522
 20
-298.0416655385965
 30
0.0
 10
199.6766088184852
 20
-311.8696457947438
 30
0.0
 10
199.6766088184852
 20
-311.8696457947438
 30
0.0
 10
199.7153879882886
 20
-311.8322381261808
 30
0.0
 10
199.7153879882886
 20
-311.8322381261808
 30
0.0
  0
SPLINE
  5
6A
330
48
100
AcDbEntity
  8
Layer 1
 62
   165
420
  4285358
370
    35
100
AcDbSpline
210
0.0
220
0.0
230
1.0
 70
    11
 71
     3
 72
    29
 73
    25
 74
     0
 42
0.0000000001
 43
0.0000000001
 12
1.0
 22
0.0
 32
0.0
 13
1.0
 23
0.0
 33
0.0
 40
0.0
 40
0.0
 40
0.0
 40
0.0
 40
1.0
 40
1.0
 40
1.0
 40
2.0
 40
2.0
 40
2.0
 40
3.0
 40
3.0
 40
3.0
 40
4.0
 40
4.0
 40
4.0
 40
5.0
 40
5.0
 40
5.0
 40
6.0
 40
6.0
 40
6.0
 40
7.0
 40
7.0
 40
7.0
 40
8.0
 40
8.0
 40
8.0
 40
8.0
 10
153.2149702356945
 20
-268.5860215240808
 30
0.0
 10
153.2217878882625
 20
-275.0927420466594
 30
0.0
 10
153.179494309059
 20
-281.6000869764554
 30
0.0
 10
153.2721812007144
 20
-288.1057289774764
 30
0.0
 10
153.2935844064511
 20
-289.6077121492199
 30
0.0
 10
152.8804075109117
 20
-290.0399722343597
 30
0.0
 10
151.2474439712564
 20
-290.0326780228123
 30
0.0
 10
137.2512255824667
 20
-289.97015215495
 30
0.0
 10
123.2544340281957
 20
-289.9701237728036
 30
0.0
 10
109.2582156394063
 20
-290.0326496406652
 30
0.0
 10
107.6252370164476
 20
-290.0399438522171
 30
0.0
 10
107.2121053708156
 20
-289.6075986206376
 30
0.0
 10
107.2334633266459
 20
-288.1057005953293
 30
0.0
 10
107.3261351349988
 20
-281.6000585943083
 30
0.0
 10
107.2838717223999
 20
-275.092713664513
 30
0.0
 10
107.2906893749688
 20
-268.5859931419376
 30
0.0
 10
107.2906893749688
 20
-268.5859931419376
 30
0.0
 10
107.251925288466
 20
-268.623429192648
 30
0.0
 10
107.251925288466
 20
-268.623429192648
 30
0.0
 10
122.5858817441131
 20
-268.623429192648
 30
0.0
 10
137.9198231164566
 20
-268.623429192648
 30
0.0
 10
153.2537644888007
 20
-268.623429192648
 30
0.0
 10
153.2537644888007
 20
-268.623429192648
 30
0.0
 10
153.2149702356945
 20
-268.5860215240808
 30
0.0
 10
153.2149702356945
 20
-268.5860215240808
 30
0.0
  0
SPLINE
  5
6B
330
48
100
AcDbEntity
  8
Layer 1
 62
   165
420
  4285358
370
    35
100
AcDbSpline
210
0.0
220
0.0
230
1.0
 70
    11
 71
     3
 72
    29
 73
    25
 74
     0
 42
0.0000000001
 43
0.0000000001
 12
1.0
 22
0.0
 32
0.0
 13
1.0
 23
0.0
 33
0.0
 40
0.0
 40
0.0
 40
0.0
 40
0.0
 40
1.0
 40
1.0
 40
1.0
 40
2.0
 40
2.0
 40
2.0
 40
3.0
 40
3.0
 40
3.0
 40
4.0
 40
4.0
 40
4.0
 40
5.0
 40
5.0
 40
5.0
 40
6.0
 40
6.0
 40
6.0
 40
7.0
 40
7.0
 40
7.0
 40
8.0
 40
8.0
 40
8.0
 40
8.0
 10
314.3403845241475
 20
-311.8322097440344
 30
0.0
 10
314.3471870934147
 20
-318.3420806848318
 30
0.0
 10
314.3026913520978
 20
-324.8526044149862
 30
0.0
 10
314.3988851115006
 20
-331.3612833056421
 30
0.0
 10
314.4213516900408
 20
-332.8823676617155
 30
0.0
 10
313.977284191716
 20
-333.2999541773213
 30
0.0
 10
312.3607312847903
 20
-333.2788094784727
 30
0.0
 10
305.4428124662258
 20
-333.1883555788422
 30
0.0
 10
298.5229554433351
 20
-333.2302192443469
 30
0.0
 10
291.6037997939969
 20
-333.2238332614714
 30
0.0
 10
291.6037997939969
 20
-333.2238332614714
 30
0.0
 10
291.643634794951
 20
-333.2602759370691
 30
0.0
 10
291.643634794951
 20
-333.2602759370691
 30
0.0
 10
291.6375486825376
 20
-326.7050787089474
 30
0.0
 10
291.6806869266583
 20
-320.1492286914666
 30
0.0
 10
291.5867782875317
 20
-313.5951383670447
 30
0.0
 10
291.5662499133168
 20
-312.1628049818345
 30
0.0
 10
291.9550899008523
 20
-311.7967604435535
 30
0.0
 10
293.4775908772822
 20
-311.8160603029022
 30
0.0
 10
300.4437611793925
 20
-311.9044706880095
 30
0.0
 10
307.4117716443671
 20
-311.8639409833763
 30
0.0
 10
314.3791259856968
 20
-311.8696741768915
 30
0.0
 10
314.3791259856968
 20
-311.8696741768915
 30
0.0
 10
314.3403845241475
 20
-311.8322097440344
 30
0.0
 10
314.3403845241475
 20
-311.8322097440344
 30
0.0
  0
SPLINE
  5
6C
330
48
100
AcDbEntity
  8
Layer 1
 62
   165
420
  4285358
370
    35
100
AcDbSpline
210
0.0
220
0.0
230
1.0
 70
    11
 71
     3
 72
    29
 73
    25
 74
     0
 42
0.0000000001
 43
0.0000000001
 12
1.0
 22
0.0
 32
0.0
 13
1.0
 23
0.0
 33
0.0
 40
0.0
 40
0.0
 40
0.0
 40
0.0
 40
1.0
 40
1.0
 40
1.0
 40
2.0
 40
2.0
 40
2.0
 40
3.0
 40
3.0
 40
3.0
 40
4.0
 40
4.0
 40
4.0
 40
5.0
 40
5.0
 40
5.0
 40
6.0
 40
6.0
 40
6.0
 40
7.0
 40
7.0
 40
7.0
 40
8.0
 40
8.0
 40
8.0
 40
8.0
 10
222.4519123852323
 20
-333.2237764971825
 30
0.0
 10
215.5327793608447
 20
-333.2302192443469
 30
0.0
 10
208.6129223379556
 20
-333.1883555788422
 30
0.0
 10
201.6950261443465
 20
-333.2788378606204
 30
0.0
 10
200.0784732374192
 20
-333.2999541773213
 30
0.0
 10
199.6344057390945
 20
-332.8823676617155
 30
0.0
 10
199.6568647759822
 20
-331.3612833056421
 30
0.0
 10
199.7530660770351
 20
-324.8526327971326
 30
0.0
 10
199.7085854190227
 20
-318.3420806848318
 30
0.0
 10
199.7153879882886
 20
-311.8322381261808
 30
0.0
 10
199.7153879882886
 20
-311.8322381261808
 30
0.0
 10
199.6766088184852
 20
-311.8696457947438
 30
0.0
 10
199.6766088184852
 20
-311.8696457947438
 30
0.0
 10
206.6439631598146
 20
-311.8639126012312
 30
0.0
 10
213.6119660831362
 20
-311.9044990701565
 30
0.0
 10
220.5781288435983
 20
-311.8160886850499
 30
0.0
 10
222.1005770284686
 20
-311.7968172078469
 30
0.0
 10
222.4895301407694
 20
-312.1627482175443
 30
0.0
 10
222.4690168498588
 20
-313.5951099848983
 30
0.0
 10
222.3750931274286
 20
-320.1492003093209
 30
0.0
 10
222.4182012049469
 20
-326.7050503268049
 30
0.0
 10
222.41209246758
 20
-333.2602475549215
 30
0.0
 10
222.41209246758
 20
-333.2602475549215
 30
0.0
 10
222.4519123852323
 20
-333.2237764971825
 30
0.0
 10
222.4519123852323
 20
-333.2237764971825
 30
0.0
  0
SPLINE
  5
6D
330
48
100
AcDbEntity
  8
Layer 1
 62
   165
420
  4285358
370
    35
100
AcDbSpline
210
0.0
220
0.0
230
1.0
 70
    11
 71
     3
 72
    86
 73
    82
 74
     0
 42
0.0000000001
 43
0.0000000001
 12
1.0
 22
0.0
 32
0.0
 13
1.0
 23
0.0
 33
0.0
 40
0.0
 40
0.0
 40
0.0
 40
0.0
 40
1.0
 40
1.0
 40
1.0
 40
2.0
 40
2.0
 40
2.0
 40
3.0
 40
3.0
 40
3.0
 40
4.0
 40
4.0
 40
4.0
 40
5.0
 40
5.0
 40
5.0
 40
6.0
 40
6.0
 40
6.0
 40
7.0
 40
7.0
 40
7.0
 40
8.0
 40
8.0
 40
8.0
 40
9.0
 40
9.0
 40
9.0
 40
10.0
 40
10.0
 40
10.0
 40
11.0
 40
11.0
 40
11.0
 40
12.0
 40
12.0
 40
12.0
 40
13.0
 40
13.0
 40
13.0
 40
14.0
 40
14.0
 40
14.0
 40
15.0
 40
15.0
 40
15.0
 40
16.0
 40
16.0
 40
16.0
 40
17.0
 40
17.0
 40
17.0
 40
18.0
 40
18.0
 40
18.0
 40
19.0
 40
19.0
 40
19.0
 40
20.0
 40
20.0
 40
20.0
 40
21.0
 40
21.0
 40
21.0
 40
22.0
 40
22.0
 40
22.0
 40
23.0
 40
23.0
 40
23.0
 40
24.0
 40
24.0
 40
24.0
 40
25.0
 40
25.0
 40
25.0
 40
26.0
 40
26.0
 40
26.0
 40
27.0
 40
27.0
 40
27.0
 40
27.0
 10
222.41209246758
 20
-333.2602475549215
 30
0.0
 10
222.4182012049469
 20
-326.7050503268049
 30
0.0
 10
222.3750931274286
 20
-320.1492003093209
 30
0.0
 10
222.4690168498588
 20
-313.5951099848983
 30
0.0
 10
222.4895301407694
 20
-312.1627482175443
 30
0.0
 10
222.1005770284686
 20
-311.7968172078469
 30
0.0
 10
220.5781288435983
 20
-311.8160886850499
 30
0.0
 10
213.6119660831362
 20
-311.9044990701565
 30
0.0
 10
206.6439631598146
 20
-311.8639126012312
 30
0.0
 10
199.6766088184852
 20
-311.8696457947438
 30
0.0
 10
199.6827175558522
 20
-298.0416655385965
 30
0.0
 10
199.6681169193798
 20
-284.2136001360075
 30
0.0
 10
199.7272887136767
 20
-270.3858185548801
 30
0.0
 10
199.7331259516052
 20
-269.0197858629687
 30
0.0
 10
199.4696055799054
 20
-268.5441010942914
 30
0.0
 10
197.8763714580885
 20
-268.565983728933
 30
0.0
 10
190.7344278944796
 20
-268.6640724258642
 30
0.0
 10
183.590252002155
 20
-268.6176959991341
 30
0.0
 10
176.4468755248449
 20
-268.6234575747947
 30
0.0
 10
176.4468755248449
 20
-246.911342863563
 30
0.0
 10
176.4468755248449
 20
-225.1992423434091
 30
0.0
 10
176.4468755248449
 20
-203.4871418232586
 30
0.0
 10
191.0257317087228
 20
-203.4928750167731
 30
0.0
 10
205.6047688922295
 20
-203.5321275248293
 30
0.0
 10
220.1832178269514
 20
-203.4617681846413
 30
0.0
 10
221.997316742014
 20
-203.4530122925724
 30
0.0
 10
222.4858498150481
 20
-203.8200785881125
 30
0.0
 10
222.4791528288984
 20
-205.5880876152761
 30
0.0
 10
222.402544737325
 20
-225.8139428636995
 30
0.0
 10
222.4620483642696
 20
-246.0402806086078
 30
0.0
 10
222.3789997026832
 20
-266.2660932838132
 30
0.0
 10
222.3711262189664
 20
-268.1831369601579
 30
0.0
 10
222.8272754423044
 20
-268.6725019232575
 30
0.0
 10
224.8994496569939
 20
-268.6575729144093
 30
0.0
 10
238.6539279623748
 20
-268.5583489316355
 30
0.0
 10
252.4098693480641
 20
-268.5684529756458
 30
0.0
 10
266.1646040695821
 20
-268.6509882565095
 30
0.0
 10
268.0119842908173
 20
-268.6620856756357
 30
0.0
 10
268.4484120966082
 20
-268.2442721028652
 30
0.0
 10
268.4421977761251
 20
-266.507256379246
 30
0.0
 10
268.3695188847608
 20
-246.2038752987418
 30
0.0
 10
268.3688024279081
 20
-225.9000826771222
 30
0.0
 10
268.443148024161
 20
-205.5967157876886
 30
0.0
 10
268.4495584275704
 20
-203.8462895000412
 30
0.0
 10
267.9943896188706
 20
-203.4226717783861
 30
0.0
 10
266.1568587939323
 20
-203.4589441611065
 30
0.0
 10
260.0643736850159
 20
-203.5792418873579
 30
0.0
 10
253.9655611308533
 20
-203.4222318551198
 30
0.0
 10
247.8735813125589
 20
-203.5531728861646
 30
0.0
 10
245.9834927213108
 20
-203.5937877372386
 30
0.0
 10
245.6111614079696
 20
-203.0897917778224
 30
0.0
 10
245.6161388976753
 20
-201.3880692528828
 30
0.0
 10
245.6774676041782
 20
-180.3872820783525
 30
0.0
 10
245.6479194152851
 20
-159.3862678466513
 30
0.0
 10
245.6418257612212
 20
-138.3853103792396
 30
0.0
 10
260.975767133564
 20
-138.3853103792396
 30
0.0
 10
276.3097160475601
 20
-138.3853103792396
 30
0.0
 10
291.6436574199033
 20
-138.3853103792396
 30
0.0
 10
291.6375637658384
 20
-145.0951193482516
 30
0.0
 10
291.6794350125821
 20
-151.8054959601899
 30
0.0
 10
291.5869668288086
 20
-158.5142547897962
 30
0.0
 10
291.5672604945612
 20
-159.9443034122428
 30
0.0
 10
291.9515754914542
 20
-160.3140518205909
 30
0.0
 10
293.4765199628294
 20
-160.2946242415877
 30
0.0
 10
300.4430371808907
 20
-160.205816506432
 30
0.0
 10
307.4114247284164
 20
-160.246672605748
 30
0.0
 10
314.3791410689983
 20
-160.2409252211577
 30
0.0
 10
314.3791335273482
 20
-210.7838368093818
 30
0.0
 10
314.3791335273482
 20
-261.3267483975957
 30
0.0
 10
314.3791259856968
 20
-311.8696741768915
 30
0.0
 10
307.4117716443671
 20
-311.8639409833763
 30
0.0
 10
300.4437611793925
 20
-311.9044706880095
 30
0.0
 10
293.4775908772822
 20
-311.8160603029022
 30
0.0
 10
291.9550899008523
 20
-311.7967604435535
 30
0.0
 10
291.5662499133168
 20
-312.1628049818345
 30
0.0
 10
291.5867782875317
 20
-313.5951383670447
 30
0.0
 10
291.6806869266583
 20
-320.1492286914666
 30
0.0
 10
291.6375486825376
 20
-326.7050787089474
 30
0.0
 10
291.643634794951
 20
-333.2602759370691
 30
0.0
 10
268.5664615608123
 20
-333.2602475549215
 30
0.0
 10
245.4892732433704
 20
-333.2602475549215
 30
0.0
 10
222.41209246758
 20
-333.2602475549215
 30
0.0
  0
SPLINE
  5
6E
330
48
100
AcDbEntity
  8
Layer 1
 62
   165
420
  4285358
370
    35
100
AcDbSpline
210
0.0
220
0.0
230
1.0
 70
    11
 71
     3
 72
    17
 73
    13
 74
     0
 42
0.0000000001
 43
0.0000000001
 12
1.0
 22
0.0
 32
0.0
 13
1.0
 23
0.0
 33
0.0
 40
0.0
 40
0.0
 40
0.0
 40
0.0
 40
1.0
 40
1.0
 40
1.0
 40
2.0
 40
2.0
 40
2.0
 40
3.0
 40
3.0
 40
3.0
 40
4.0
 40
4.0
 40
4.0
 40
4.0
 10
153.2537644888007
 20
-268.623429192648
 30
0.0
 10
137.9198231164566
 20
-268.623429192648
 30
0.0
 10
122.5858817441131
 20
-268.623429192648
 30
0.0
 10
107.251925288466
 20
-268.623429192648
 30
0.0
 10
107.251925288466
 20
-246.911342863563
 30
0.0
 10
107.251925288466
 20
-225.1992423434091
 30
0.0
 10
107.251925288466
 20
-203.4871418232586
 30
0.0
 10
122.5858817441131
 20
-203.4871418232586
 30
0.0
 10
137.9198231164566
 20
-203.4871418232586
 30
0.0
 10
153.2537644888007
 20
-203.4871418232586
 30
0.0
 10
153.2537644888007
 20
-225.1992423434091
 30
0.0
 10
153.2537644888007
 20
-246.911342863563
 30
0.0
 10
153.2537644888007
 20
-268.623429192648
 30
0.0
  0
ENDBLK
  5
4B
330
48
100
AcDbEntity
  8
0
100
AcDbBlockEnd
  0
ENDSEC
  0
SECTION
  2
ENTITIES
  0
POLYLINE
  5
41
330
1F
100
AcDbEntity
  8
Layer 1
 62
   240
420
 15539499
370
    35
100
AcDb2dPolyline
 66
     1
 10
0.0
 20
0.0
 30
0.0
  0
VERTEX
  5
42
330
41
100
AcDbEntity
  8
Layer 1
 62
   240
420
 15539499
370
    35
100
AcDbVertex
100
AcDb2dVertex
 10
15.29772726890208
 20
-484.8770200808005
 30
0.0
  0
VERTEX
  5
43
330
41
100
AcDbEntity
  8
Layer 1
 62
   240
420
 15539499
370
    35
100
AcDbVertex
100
AcDb2dVertex
 10
15.29772726890208
 20
-8.627020199863622
 30
0.0
  0
VERTEX
  5
44
330
41
100
AcDbEntity
  8
Layer 1
 62
   240
420
 15539499
370
    35
100
AcDbVertex
100
AcDb2dVertex
 10
383.5977271768277
 20
-8.627020199863622
 30
0.0
  0
VERTEX
  5
45
330
41
100
AcDbEntity
  8
Layer 1
 62
   240
420
 15539499
370
    35
100
AcDbVertex
100
AcDb2dVertex
 10
383.5977271768277
 20
-484.8770200808005
 30
0.0
  0
VERTEX
  5
46
330
41
100
AcDbEntity
  8
Layer 1
 62
   240
420
 15539499
370
    35
100
AcDbVertex
100
AcDb2dVertex
 10
15.29772726890208
 20
-484.8770200808005
 30
0.0
  0
SEQEND
  5
47
330
41
100
AcDbEntity
  8
Layer 1
 62
   240
420
 15539499
370
    35
  0
INSERT
  5
49
330
1F
100
AcDbEntity
  8
Layer 1
100
AcDbBlockReference
  2
block 2
 10
0.0
 20
0.0
 30
0.0
  0
ENDSEC
  0
SECTION
  2
OBJECTS
  0
DICTIONARY
  5
C
330
0
100
AcDbDictionary
281
     1
  3
ACAD_GROUP
350
D
  3
ACAD_LAYOUT
350
1A
  3
ACAD_MATERIAL
350
3B
  3
ACAD_MLEADERSTYLE
350
70
  3
ACAD_MLINESTYLE
350
17
  3
ACAD_PLOTSETTINGS
350
19
  3
ACAD_PLOTSTYLENAME
350
E
  3
ACAD_TABLESTYLE
350
6F
  3
ACAD_VISUALSTYLE
350
2A
  0
SUN
  5
3F
330
29
100
AcDbSun
 90
        1
290
     0
 63
     7
421
 16777215
 40
1.0
291
     1
 91
  2455826
 92
 54000000
292
     0
 70
     2
 71
   256
280
     1
  0
DICTIONARY
  5
D
102
{ACAD_REACTORS
330
C
102
}
330
C
100
AcDbDictionary
281
     1
  0
DICTIONARY
  5
1A
102
{ACAD_REACTORS
330
C
102
}
330
C
100
AcDbDictionary
281
     1
  3
Layout1
350
1E
  3
Layout2
350
26
  3
Model
350
22
  0
DICTIONARY
  5
3B
102
{ACAD_REACTORS
330
C
102
}
330
C
100
AcDbDictionary
281
     1
  3
ByBlock
350
3D
  3
ByLayer
350
3C
  3
Global
350
3E
  0
DICTIONARY
  5
70
102
{ACAD_REACTORS
330
C
102
}
330
C
100
AcDbDictionary
281
     1
  0
DICTIONARY
  5
17
102
{ACAD_REACTORS
330
C
102
}
330
C
100
AcDbDictionary
281
     1
  3
Standard
350
18
  0
DICTIONARY
  5
19
102
{ACAD_REACTORS
330
C
102
}
330
C
100
AcDbDictionary
281
     1
  0
ACDBDICTIONARYWDFLT
  5
E
102
{ACAD_REACTORS
330
C
102
}
330
C
100
AcDbDictionary
281
     1
  3
Normal
350
F
100
AcDbDictionaryWithDefault
340
F
  0
DICTIONARY
  5
6F
102
{ACAD_REACTORS
330
C
102
}
330
C
100
AcDbDictionary
281
     1
  0
DICTIONARY
  5
2A
102
{ACAD_REACTORS
330
C
102
}
330
C
100
AcDbDictionary
281
     1
  3
2dWireframe
350
2F
  3
3D Hidden
350
31
  3
3dWireframe
350
30
  3
Basic
350
32
  3
Brighten
350
36
  3
ColorChange
350
3A
  3
Conceptual
350
34
  3
Dim
350
35
  3
Facepattern
350
39
  3
Flat
350
2B
  3
FlatWithEdges
350
2C
  3
Gouraud
350
2D
  3
GouraudWithEdges
350
2E
  3
Linepattern
350
38
  3
Realistic
350
33
  3
Thicken
350
37
  0
LAYOUT
  5
1E
102
{ACAD_REACTORS
330
1A
102
}
330
1A
100
AcDbPlotSettings
  1

  2
none_device
  4

  6

 40
0.0
 41
0.0
 42
0.0
 43
0.0
 44
0.0
 45
0.0
 46
0.0
 47
0.0
 48
0.0
 49
0.0
140
0.0
141
0.0
142
1.0
143
1.0
 70
   688
 72
     0
 73
     0
 74
     5
  7

 75
    16
 76
     0
 77
     2
 78
   300
147
1.0
148
0.0
149
0.0
100
AcDbLayout
  1
Layout1
 70
     1
 71
     1
 10
0.0
 20
0.0
 11
12.0
 21
9.0
 12
0.0
 22
0.0
 32
0.0
 14
1.000000000000000E+20
 24
1.000000000000000E+20
 34
1.000000000000000E+20
 15
-1.000000000000000E+20
 25
-1.000000000000000E+20
 35
-1.000000000000000E+20
146
0.0
 13
0.0
 23
0.0
 33
0.0
 16
1.0
 26
0.0
 36
0.0
 17
0.0
 27
1.0
 37
0.0
 76
     0
330
1B
  0
LAYOUT
  5
26
102
{ACAD_REACTORS
330
1A
102
}
330
1A
100
AcDbPlotSettings
  1

  2
none_device
  4

  6

 40
0.0
 41
0.0
 42
0.0
 43
0.0
 44
0.0
 45
0.0
 46
0.0
 47
0.0
 48
0.0
 49
0.0
140
0.0
141
0.0
142
1.0
143
1.0
 70
   688
 72
     0
 73
     0
 74
     5
  7

 75
    16
 76
     0
 77
     2
 78
   300
147
1.0
148
0.0
149
0.0
100
AcDbLayout
  1
Layout2
 70
     1
 71
     2
 10
0.0
 20
0.0
 11
0.0
 21
0.0
 12
0.0
 22
0.0
 32
0.0
 14
0.0
 24
0.0
 34
0.0
 15
0.0
 25
0.0
 35
0.0
146
0.0
 13
0.0
 23
0.0
 33
0.0
 16
1.0
 26
0.0
 36
0.0
 17
0.0
 27
1.0
 37
0.0
 76
     0
330
23
  0
LAYOUT
  5
22
102
{ACAD_REACTORS
330
1A
102
}
330
1A
100
AcDbPlotSettings
  1

  2
none_device
  4

  6

 40
0.0
 41
0.0
 42
0.0
 43
0.0
 44
0.0
 45
0.0
 46
0.0
 47
0.0
 48
0.0
 49
0.0
140
0.0
141
0.0
142
1.0
143
1.0
 70
  1712
 72
     0
 73
     0
 74
     0
  7

 75
     0
 76
     0
 77
     2
 78
   300
147
1.0
148
0.0
149
0.0
100
AcDbLayout
  1
Model
 70
     1
 71
     0
 10
0.0
 20
0.0
 11
12.0
 21
9.0
 12
0.0
 22
0.0
 32
0.0
 14
1.000000000000000E+20
 24
1.000000000000000E+20
 34
1.000000000000000E+20
 15
-1.000000000000000E+20
 25
-1.000000000000000E+20
 35
-1.000000000000000E+20
146
0.0
 13
0.0
 23
0.0
 33
0.0
 16
1.0
 26
0.0
 36
0.0
 17
0.0
 27
1.0
 37
0.0
 76
     0
330
1F
331
29
  0
MATERIAL
  5
3D
102
{ACAD_REACTORS
330
3B
102
}
330
3B
100
AcDbMaterial
  1
ByBlock
 72
     1
 94
      127
  0
MATERIAL
  5
3C
102
{ACAD_REACTORS
330
3B
102
}
330
3B
100
AcDbMaterial
  1
ByLayer
 72
     1
 94
      127
  0
MATERIAL
  5
3E
102
{ACAD_REACTORS
330
3B
102
}
330
3B
100
AcDbMaterial
  1
Global
 72
     1
 94
      127
  0
MLINESTYLE
  5
18
102
{ACAD_REACTORS
330
17
102
}
330
17
100
AcDbMlineStyle
  2
Standard
 70
     0
  3

 62
   256
 51
90.0
 52
90.0
 71
     2
 49
0.5
 62
   256
  6
BYLAYER
 49
-0.5
 62
   256
  6
BYLAYER
  0
ACDBPLACEHOLDER
  5
F
102
{ACAD_REACTORS
330
E
102
}
330
E
  0
VISUALSTYLE
  5
2F
102
{ACAD_REACTORS
330
2A
102
}
330
2A
100
AcDbVisualStyle
  2
2dWireframe
 70
     4
177
     2
291
     0
 71
     0
176
     1
 72
     2
176
     1
 73
     0
176
     1
 90
        0
176
     1
 40
-0.6
176
     1
 41
-30.0
176
     1
 62
     5
 63
     7
421
 16777215
176
     1
 74
     1
176
     1
 91
        4
176
     1
 64
     7
176
     1
 65
   257
176
     1
 75
     1
176
     1
175
     1
176
     1
 42
1.0
176
     1
 92
        0
176
     1
 66
   257
176
     1
 43
1.0
176
     1
 76
     1
176
     1
 77
     6
176
     1
 78
     2
176
     1
 67
     7
176
     1
 79
     5
176
     1
170
     0
176
     1
171
     0
176
     1
290
     0
176
     1
 93
        1
176
     1
 44
0.0
176
     1
173
     0
176
     1
  0
VISUALSTYLE
  5
31
102
{ACAD_REACTORS
330
2A
102
}
330
2A
100
AcDbVisualStyle
  2
3D Hidden
 70
     6
177
     2
291
     0
 71
     1
176
     1
 72
     2
176
     1
 73
     2
176
     1
 90
        0
176
     1
 40
-0.6
176
     1
 41
-30.0
176
     1
 62
     5
 63
     7
421
 16777215
176
     1
 74
     2
176
     1
 91
        2
176
     1
 64
     7
176
     1
 65
   257
176
     1
 75
     2
176
     1
175
     1
176
     1
 42
40.0
176
     1
 92
        0
176
     1
 66
   257
176
     1
 43
1.0
176
     1
 76
     1
176
     1
 77
     6
176
     1
 78
     2
176
     1
 67
     7
176
     1
 79
     3
176
     1
170
     0
176
     1
171
     0
176
     1
290
     0
176
     1
 93
        1
176
     1
 44
0.0
176
     1
173
     0
176
     1
  0
VISUALSTYLE
  5
30
102
{ACAD_REACTORS
330
2A
102
}
330
2A
100
AcDbVisualStyle
  2
3dWireframe
 70
     5
177
     2
291
     0
 71
     0
176
     1
 72
     2
176
     1
 73
     0
176
     1
 90
        0
176
     1
 40
-0.6
176
     1
 41
-30.0
176
     1
 62
     5
 63
     7
421
 16777215
176
     1
 74
     1
176
     1
 91
        4
176
     1
 64
     7
176
     1
 65
   257
176
     1
 75
     1
176
     1
175
     1
176
     1
 42
1.0
176
     1
 92
        0
176
     1
 66
   257
176
     1
 43
1.0
176
     1
 76
     1
176
     1
 77
     6
176
     1
 78
     2
176
     1
 67
     7
176
     1
 79
     5
176
     1
170
     0
176
     1
171
     0
176
     1
290
     0
176
     1
 93
        1
176
     1
 44
0.0
176
     1
173
     0
176
     1
  0
VISUALSTYLE
  5
32
102
{ACAD_REACTORS
330
2A
102
}
330
2A
100
AcDbVisualStyle
  2
Basic
 70
     7
177
     2
291
     1
 71
     1
176
     1
 72
     0
176
     1
 73
     1
176
     1
 90
        0
176
     1
 40
-0.6
176
     1
 41
-30.0
176
     1
 62
     5
 63
     7
421
 16777215
176
     1
 74
     0
176
     1
 91
        4
176
     1
 64
     7
176
     1
 65
   257
176
     1
 75
     1
176
     1
175
     1
176
     1
 42
1.0
176
     1
 92
        8
176
     1
 66
     7
176
     1
 43
1.0
176
     1
 76
     1
176
     1
 77
     6
176
     1
 78
     2
176
     1
 67
     7
176
     1
 79
     5
176
     1
170
     0
176
     1
171
     0
176
     1
290
     0
176
     1
 93
        1
176
     1
 44
0.0
176
     1
173
     0
176
     1
  0
VISUALSTYLE
  5
36
102
{ACAD_REACTORS
330
2A
102
}
330
2A
100
AcDbVisualStyle
  2
Brighten
 70
    12
177
     2
291
     1
 71
     2
176
     1
 72
     2
176
     1
 73
     0
176
     1
 90
        0
176
     1
 40
-0.6
176
     1
 41
-30.0
176
     1
 62
     5
 63
     7
421
 16777215
176
     1
 74
     1
176
     1
 91
        4
176
     1
 64
     7
176
     1
 65
   257
176
     1
 75
     1
176
     1
175
     1
176
     1
 42
1.0
176
     1
 92
        8
176
     1
 66
     7
176
     1
 43
1.0
176
     1
 76
     1
176
     1
 77
     6
176
     1
 78
     2
176
     1
 67
     7
176
     1
 79
     5
176
     1
170
     0
176
     1
171
     0
176
     1
290
     0
176
     1
 93
        1
176
     1
 44
50.0
176
     1
173
     0
176
     1
  0
VISUALSTYLE
  5
3A
102
{ACAD_REACTORS
330
2A
102
}
330
2A
100
AcDbVisualStyle
  2
ColorChange
 70
    16
177
     2
291
     1
 71
     2
176
     1
 72
     2
176
     1
 73
     3
176
     1
 90
        0
176
     1
 40
-0.6
176
     1
 41
-30.0
176
     1
 62
     5
 63
     8
421
  8421504
176
     1
 74
     1
176
     1
 91
        4
176
     1
 64
     7
176
     1
 65
   257
176
     1
 75
     1
176
     1
175
     1
176
     1
 42
1.0
176
     1
 92
        8
176
     1
 66
     8
424
  8421504
176
     1
 43
1.0
176
     1
 76
     1
176
     1
 77
     6
176
     1
 78
     2
176
     1
 67
     7
176
     1
 79
     5
176
     1
170
     0
176
     1
171
     0
176
     1
290
     0
176
     1
 93
        1
176
     1
 44
0.0
176
     1
173
     0
176
     1
  0
VISUALSTYLE
  5
34
102
{ACAD_REACTORS
330
2A
102
}
330
2A
100
AcDbVisualStyle
  2
Conceptual
 70
     9
177
     2
291
     0
 71
     3
176
     1
 72
     2
176
     1
 73
     0
176
     1
 90
        0
176
     1
 40
-0.6
176
     1
 41
-30.0
176
     1
 62
     5
 63
     7
421
 16777215
176
     1
 74
     2
176
     1
 91
        2
176
     1
 64
     7
176
     1
 65
   257
176
     1
 75
     1
176
     1
175
     1
176
     1
 42
40.0
176
     1
 92
        8
176
     1
 66
     7
176
     1
 43
1.0
176
     1
 76
     1
176
     1
 77
     6
176
     1
 78
     2
176
     1
 67
     7
176
     1
 79
     3
176
     1
170
     0
176
     1
171
     0
176
     1
290
     0
176
     1
 93
        1
176
     1
 44
0.0
176
     1
173
     0
176
     1
  0
VISUALSTYLE
  5
35
102
{ACAD_REACTORS
330
2A
102
}
330
2A
100
AcDbVisualStyle
  2
Dim
 70
    11
177
     2
291
     1
 71
     2
176
     1
 72
     2
176
     1
 73
     0
176
     1
 90
        0
176
     1
 40
-0.6
176
     1
 41
-30.0
176
     1
 62
     5
 63
     7
421
 16777215
176
     1
 74
     1
176
     1
 91
        4
176
     1
 64
     7
176
     1
 65
   257
176
     1
 75
     1
176
     1
175
     1
176
     1
 42
1.0
176
     1
 92
        8
176
     1
 66
     7
176
     1
 43
1.0
176
     1
 76
     1
176
     1
 77
     6
176
     1
 78
     2
176
     1
 67
     7
176
     1
 79
     5
176
     1
170
     0
176
     1
171
     0
176
     1
290
     0
176
     1
 93
        1
176
     1
 44
-50.0
176
     1
173
     0
176
     1
  0
VISUALSTYLE
  5
39
102
{ACAD_REACTORS
330
2A
102
}
330
2A
100
AcDbVisualStyle
  2
Facepattern
 70
    15
177
     2
291
     1
 71
     2
176
     1
 72
     2
176
     1
 73
     0
176
     1
 90
        0
176
     1
 40
-0.6
176
     1
 41
-30.0
176
     1
 62
     5
 63
     7
421
 16777215
176
     1
 74
     1
176
     1
 91
        4
176
     1
 64
     7
176
     1
 65
   257
176
     1
 75
     1
176
     1
175
     1
176
     1
 42
1.0
176
     1
 92
        8
176
     1
 66
     7
176
     1
 43
1.0
176
     1
 76
     1
176
     1
 77
     6
176
     1
 78
     2
176
     1
 67
     7
176
     1
 79
     5
176
     1
170
     0
176
     1
171
     0
176
     1
290
     0
176
     1
 93
        1
176
     1
 44
0.0
176
     1
173
     0
176
     1
  0
VISUALSTYLE
  5
2B
102
{ACAD_REACTORS
330
2A
102
}
330
2A
100
AcDbVisualStyle
  2
Flat
 70
     0
177
     2
291
     1
 71
     2
176
     1
 72
     1
176
     1
 73
     1
176
     1
 90
        2
176
     1
 40
-0.6
176
     1
 41
30.0
176
     1
 62
     5
 63
     7
421
 16777215
176
     1
 74
     0
176
     1
 91
        4
176
     1
 64
     7
176
     1
 65
   257
176
     1
 75
     1
176
     1
175
     1
176
     1
 42
1.0
176
     1
 92
        8
176
     1
 66
     7
176
     1
 43
1.0
176
     1
 76
     1
176
     1
 77
     6
176
     1
 78
     2
176
     1
 67
     7
176
     1
 79
     5
176
     1
170
     0
176
     1
171
     0
176
     1
290
     0
176
     1
 93
       13
176
     1
 44
0.0
176
     1
173
     0
176
     1
  0
VISUALSTYLE
  5
2C
102
{ACAD_REACTORS
330
2A
102
}
330
2A
100
AcDbVisualStyle
  2
FlatWithEdges
 70
     1
177
     2
291
     1
 71
     2
176
     1
 72
     1
176
     1
 73
     1
176
     1
 90
        2
176
     1
 40
-0.6
176
     1
 41
30.0
176
     1
 62
     5
 63
     7
421
 16777215
176
     1
 74
     1
176
     1
 91
        4
176
     1
 64
     7
176
     1
 65
   257
176
     1
 75
     1
176
     1
175
     1
176
     1
 42
1.0
176
     1
 92
        0
176
     1
 66
   257
176
     1
 43
1.0
176
     1
 76
     1
176
     1
 77
     6
176
     1
 78
     2
176
     1
 67
     7
176
     1
 79
     5
176
     1
170
     0
176
     1
171
     0
176
     1
290
     0
176
     1
 93
       13
176
     1
 44
0.0
176
     1
173
     0
176
     1
  0
VISUALSTYLE
  5
2D
102
{ACAD_REACTORS
330
2A
102
}
330
2A
100
AcDbVisualStyle
  2
Gouraud
 70
     2
177
     2
291
     1
 71
     2
176
     1
 72
     2
176
     1
 73
     1
176
     1
 90
        2
176
     1
 40
-0.6
176
     1
 41
30.0
176
     1
 62
     5
 63
     7
421
 16777215
176
     1
 74
     0
176
     1
 91
        4
176
     1
 64
     7
176
     1
 65
   257
176
     1
 75
     1
176
     1
175
     1
176
     1
 42
1.0
176
     1
 92
        0
176
     1
 66
     7
176
     1
 43
1.0
176
     1
 76
     1
176
     1
 77
     6
176
     1
 78
     2
176
     1
 67
     7
176
     1
 79
     5
176
     1
170
     0
176
     1
171
     0
176
     1
290
     0
176
     1
 93
       13
176
     1
 44
0.0
176
     1
173
     0
176
     1
  0
VISUALSTYLE
  5
2E
102
{ACAD_REACTORS
330
2A
102
}
330
2A
100
AcDbVisualStyle
  2
GouraudWithEdges
 70
     3
177
     2
291
     1
 71
     2
176
     1
 72
     2
176
     1
 73
     1
176
     1
 90
        2
176
     1
 40
-0.6
176
     1
 41
30.0
176
     1
 62
     5
 63
     7
421
 16777215
176
     1
 74
     1
176
     1
 91
        4
176
     1
 64
     7
176
     1
 65
   257
176
     1
 75
     1
176
     1
175
     1
176
     1
 42
1.0
176
     1
 92
        0
176
     1
 66
   257
176
     1
 43
1.0
176
     1
 76
     1
176
     1
 77
     6
176
     1
 78
     2
176
     1
 67
     7
176
     1
 79
     5
176
     1
170
     0
176
     1
171
     0
176
     1
290
     0
176
     1
 93
       13
176
     1
 44
0.0
176
     1
173
     0
176
     1
  0
VISUALSTYLE
  5
38
102
{ACAD_REACTORS
330
2A
102
}
330
2A
100
AcDbVisualStyle
  2
Linepattern
 70
    14
177
     2
291
     1
 71
     2
176
     1
 72
     2
176
     1
 73
     0
176
     1
 90
        0
176
     1
 40
-0.6
176
     1
 41
-30.0
176
     1
 62
     5
 63
     7
421
 16777215
176
     1
 74
     1
176
     1
 91
        4
176
     1
 64
     7
176
     1
 65
   257
176
     1
 75
     7
176
     1
175
     7
176
     1
 42
1.0
176
     1
 92
        8
176
     1
 66
     7
176
     1
 43
1.0
176
     1
 76
     1
176
     1
 77
     6
176
     1
 78
     2
176
     1
 67
     7
176
     1
 79
     5
176
     1
170
     0
176
     1
171
     0
176
     1
290
     0
176
     1
 93
        1
176
     1
 44
0.0
176
     1
173
     0
176
     1
  0
VISUALSTYLE
  5
33
102
{ACAD_REACTORS
330
2A
102
}
330
2A
100
AcDbVisualStyle
  2
Realistic
 70
     8
177
     2
291
     0
 71
     2
176
     1
 72
     2
176
     1
 73
     0
176
     1
 90
        0
176
     1
 40
-0.6
176
     1
 41
-30.0
176
     1
 62
     5
 63
     7
421
 16777215
176
     1
 74
     1
176
     1
 91
        0
176
     1
 64
     7
176
     1
 65
   257
176
     1
 75
     1
176
     1
175
     1
176
     1
 42
1.0
176
     1
 92
        8
176
     1
 66
     8
424
  7895160
176
     1
 43
1.0
176
     1
 76
     1
176
     1
 77
     6
176
     1
 78
     2
176
     1
 67
     7
176
     1
 79
     5
176
     1
170
     0
176
     1
171
     0
176
     1
290
     0
176
     1
 93
       13
176
     1
 44
0.0
176
     1
173
     0
176
     1
  0
VISUALSTYLE
  5
37
102
{ACAD_REACTORS
330
2A
102
}
330
2A
100
AcDbVisualStyle
  2
Thicken
 70
    13
177
     2
291
     1
 71
     2
176
     1
 72
     2
176
     1
 73
     0
176
     1
 90
        0
176
     1
 40
-0.6
176
     1
 41
-30.0
176
     1
 62
     5
 63
     7
421
 16777215
176
     1
 74
     1
176
     1
 91
        4
176
     1
 64
     7
176
     1
 65
   257
176
     1
 75
     1
176
     1
175
     1
176
     1
 42
1.0
176
     1
 92
       12
176
     1
 66
     7
176
     1
 43
1.0
176
     1
 76
     1
176
     1
 77
     6
176
     1
 78
     2
176
     1
 67
     7
176
     1
 79
     5
176
     1
170
     0
176
     1
171
     0
176
     1
290
     0
176
     1
 93
        1
176
     1
 44
0.0
176
     1
173
     0
176
     1
  0
ENDSEC
  0
EOF
